999
dxfrw 0.6.3
  0
SECTION
  2
HEADER
  9
$ACADVER
  1
AC1021
  9
$DWGCODEPAGE
  3
ANSI_1252
  9
$INSBASE
 10
0
 20
0
 30
0
  9
$EXTMIN
 10
-77.23681425275009
 20
-80.40636240233258
 30
0
  9
$EXTMAX
 10
80.21588995244294
 20
47.04365476465752
 30
0
  9
$LIMMIN
 10
0
 20
0
  9
$LIMMAX
 10
420
 20
297
  9
$ORTHOMODE
 70
    0
  9
$REGENMODE
 70
    1
  9
$FILLMODE
 70
    1
  9
$QTEXTMODE
 70
    0
  9
$MIRRTEXT
 70
    0
  9
$LTSCALE
 40
1
  9
$ATTMODE
 70
    0
  9
$TEXTSIZE
 40
2.5
  9
$TRACEWID
 40
15.68
  9
$TEXTSTYLE
  7
STANDARD
  9
$CLAYER
  8
60 ProMicro Edge Cut
  9
$CELTYPE
  6
BYLAYER
  9
$CECOLOR
 62
  256
  9
$CELTSCALE
 40
1
  9
$DISPSILH
 70
    0
  9
$DIMSCALE
 40
2.5
  9
$DIMASZ
 40
2.5
  9
$DIMEXO
 40
0.625
  9
$DIMDLI
 40
3.75
  9
$DIMRND
 40
0
  9
$DIMDLE
 40
0
  9
$DIMEXE
 40
1.25
  9
$DIMTP
 40
0
  9
$DIMTM
 40
0
  9
$DIMTXT
 40
2.5
  9
$DIMCEN
 40
2.5
  9
$DIMTSZ
 40
0
  9
$DIMTOL
 70
    0
  9
$DIMLIM
 70
    0
  9
$DIMTIH
 70
    0
  9
$DIMTOH
 70
    0
  9
$DIMSE1
 70
    0
  9
$DIMSE2
 70
    0
  9
$DIMTAD
 70
    1
  9
$DIMZIN
 70
    8
  9
$DIMBLK
  1

  9
$DIMASO
 70
    1
  9
$DIMSHO
 70
    1
  9
$DIMPOST
  1

  9
$DIMAPOST
  1

  9
$DIMALT
 70
    0
  9
$DIMALTD
 70
    3
  9
$DIMALTF
 40
0.03937
  9
$DIMLFAC
 40
1
  9
$DIMTOFL
 70
    1
  9
$DIMTVP
 40
0
  9
$DIMTIX
 70
    0
  9
$DIMSOXD
 70
    0
  9
$DIMSAH
 70
    0
  9
$DIMBLK1
  1

  9
$DIMBLK2
  1

  9
$DIMSTYLE
  2
Standard
  9
$DIMCLRD
 70
    0
  9
$DIMCLRE
 70
    0
  9
$DIMCLRT
 70
    0
  9
$DIMTFAC
 40
1
  9
$DIMGAP
 40
0.625
  9
$DIMJUST
 70
    0
  9
$DIMSD1
 70
    0
  9
$DIMSD2
 70
    0
  9
$DIMTOLJ
 70
    0
  9
$DIMTZIN
 70
    8
  9
$DIMALTZ
 70
    0
  9
$DIMALTTZ
 70
    0
  9
$DIMUPT
 70
    0
  9
$DIMDEC
 70
    2
  9
$DIMTDEC
 70
    2
  9
$DIMALTU
 70
    2
  9
$DIMALTTD
 70
    3
  9
$DIMTXSTY
  7
STANDARD
  9
$DIMAUNIT
 70
    0
  9
$DIMADEC
 70
    0
  9
$DIMALTRND
 40
0
  9
$DIMAZIN
 70
    0
  9
$DIMDSEP
 70
   44
  9
$DIMATFIT
 70
    3
  9
$DIMFRAC
 70
    0
  9
$DIMLDRBLK
  1
STANDARD
  9
$DIMLUNIT
 70
    2
  9
$DIMLWD
 70
   -2
  9
$DIMLWE
 70
   -2
  9
$DIMTMOVE
 70
    0
  9
$DIMFXL
 40
1
  9
$DIMFXLON
 70
    0
  9
$DIMJOGANG
 40
0.7854
  9
$DIMTFILL
 70
    0
  9
$DIMTFILLCLR
 70
    0
  9
$DIMARCSYM
 70
    0
  9
$DIMLTYPE
  6

  9
$DIMLTEX1
  6

  9
$DIMLTEX2
  6

  9
$LUNITS
 70
    2
  9
$LUPREC
 70
    4
  9
$SKETCHINC
 40
1
  9
$FILLETRAD
 40
0
  9
$AUNITS
 70
    0
  9
$AUPREC
 70
    2
  9
$MENU
  1
.
  9
$ELEVATION
 40
0
  9
$PELEVATION
 40
0
  9
$THICKNESS
 40
0
  9
$LIMCHECK
 70
    0
  9
$CHAMFERA
 40
0
  9
$CHAMFERB
 40
0
  9
$CHAMFERC
 40
0
  9
$CHAMFERD
 40
0
  9
$SKPOLY
 70
    0
  9
$USRTIMER
 70
    1
  9
$ANGBASE
 50
0
  9
$ANGDIR
 70
    1
  9
$PDMODE
 70
   34
  9
$PDSIZE
 40
0
  9
$PLINEWID
 40
0
  9
$SPLFRAME
 70
    0
  9
$SPLINETYPE
 70
    2
  9
$SPLINESEGS
 70
    8
  9
$HANDSEED
  5
20000
  9
$SURFTAB1
 70
    6
  9
$SURFTAB2
 70
    6
  9
$SURFTYPE
 70
    6
  9
$SURFU
 70
    6
  9
$SURFV
 70
    6
  9
$UCSBASE
  2

  9
$UCSNAME
  2

  9
$UCSORG
 10
0
 20
0
 30
0
  9
$UCSXDIR
 10
1
 20
0
 30
0
  9
$UCSYDIR
 10
0
 20
1
 30
0
  9
$UCSORTHOREF
  2

  9
$UCSORTHOVIEW
 70
    0
  9
$UCSORGTOP
 10
0
 20
0
 30
0
  9
$UCSORGBOTTOM
 10
0
 20
0
 30
0
  9
$UCSORGLEFT
 10
0
 20
0
 30
0
  9
$UCSORGRIGHT
 10
0
 20
0
 30
0
  9
$UCSORGFRONT
 10
0
 20
0
 30
0
  9
$UCSORGBACK
 10
0
 20
0
 30
0
  9
$PUCSBASE
  2

  9
$PUCSNAME
  2

  9
$PUCSORG
 10
0
 20
0
 30
0
  9
$PUCSXDIR
 10
1
 20
0
 30
0
  9
$PUCSYDIR
 10
0
 20
1
 30
0
  9
$PUCSORTHOREF
  2

  9
$PUCSORTHOVIEW
 70
    0
  9
$PUCSORGTOP
 10
0
 20
0
 30
0
  9
$PUCSORGBOTTOM
 10
0
 20
0
 30
0
  9
$PUCSORGLEFT
 10
0
 20
0
 30
0
  9
$PUCSORGRIGHT
 10
0
 20
0
 30
0
  9
$PUCSORGFRONT
 10
0
 20
0
 30
0
  9
$PUCSORGBACK
 10
0
 20
0
 30
0
  9
$USERI1
 70
    0
  9
$USERI2
 70
    0
  9
$USERI3
 70
    0
  9
$USERI4
 70
    0
  9
$USERI5
 70
    0
  9
$USERR1
 40
0
  9
$USERR2
 40
0
  9
$USERR3
 40
0
  9
$USERR4
 40
0
  9
$USERR5
 40
0
  9
$WORLDVIEW
 70
    1
  9
$SHADEDGE
 70
    3
  9
$SHADEDIF
 70
   70
  9
$TILEMODE
 70
    1
  9
$MAXACTVP
 70
   64
  9
$PINSBASE
 10
0
 20
0
 30
0
  9
$PLIMCHECK
 70
    0
  9
$PEXTMIN
 10
0
 20
0
 30
0
  9
$PEXTMAX
 10
0
 20
0
 30
0
  9
$GRIDMODE
 70
    1
  9
$SNAPSTYLE
 70
    0
  9
$PLIMMIN
 10
0
 20
0
  9
$PLIMMAX
 10
210
 20
297
  9
$UNITMODE
 70
    0
  9
$VISRETAIN
 70
    1
  9
$PLINEGEN
 70
    0
  9
$PSLTSCALE
 70
    1
  9
$TREEDEPTH
 70
 3020
  9
$CMLSTYLE
  2
Standard
  9
$CMLJUST
 70
    0
  9
$CMLSCALE
 40
20
  9
$PROXYGRAPHICS
 70
    1
  9
$MEASUREMENT
 70
    1
  9
$CELWEIGHT
370
   -1
  9
$ENDCAPS
280
    0
  9
$JOINSTYLE
280
    0
  9
$LWDISPLAY
290
    0
  9
$INSUNITS
 70
    4
  9
$HYPERLINKBASE
  1

  9
$STYLESHEET
  1

  9
$XEDIT
290
    1
  9
$CEPSNTYPE
380
    0
  9
$PSTYLEMODE
290
    1
  9
$EXTNAMES
290
    1
  9
$PSVPSCALE
 40
1
  9
$OLESTARTUP
290
    0
  9
$SORTENTS
280
  127
  9
$INDEXCTL
280
    0
  9
$HIDETEXT
280
    1
  9
$XCLIPFRAME
290
    0
  9
$HALOGAP
280
    0
  9
$OBSCOLOR
 70
  257
  9
$OBSLTYPE
280
    0
  9
$INTERSECTIONDISPLAY
280
    0
  9
$INTERSECTIONCOLOR
 70
  257
  9
$DIMASSOC
280
    1
  9
$PROJECTNAME
  1

  9
$CAMERADISPLAY
290
    0
  9
$LENSLENGTH
 40
50
  9
$CAMERAHEIGHT
 40
0
  9
$STEPSPERSEC
 40
2
  9
$STEPSIZE
 40
50
  9
$3DDWFPREC
 40
2
  9
$PSOLWIDTH
 40
5
  9
$PSOLHEIGHT
 40
80
  9
$LOFTANG1
 40
1.570796326794897
  9
$LOFTANG2
 40
1.570796326794897
  9
$LOFTMAG1
 40
0
  9
$LOFTMAG2
 40
0
  9
$LOFTPARAM
 70
    7
  9
$LOFTNORMALS
280
    1
  9
$LATITUDE
 40
1
  9
$LONGITUDE
 40
1
  9
$NORTHDIRECTION
 40
0
  9
$TIMEZONE
 70
-8000
  9
$LIGHTGLYPHDISPLAY
280
    1
  9
$TILEMODELIGHTSYNCH
280
    1
  9
$SOLIDHIST
280
    1
  9
$SHOWHIST
280
    1
  9
$DWFFRAME
280
    2
  9
$DGNFRAME
280
    0
  9
$REALWORLDSCALE
290
    1
  9
$INTERFERECOLOR
 62
    1
  9
$CSHADOW
280
    0
  9
$SHADOWPLANELOCATION
 40
0
  0
ENDSEC
  0
SECTION
  2
CLASSES
  0
ENDSEC
  0
SECTION
  2
TABLES
  0
TABLE
  2
VPORT
  5
8
330
0
100
AcDbSymbolTable
 70
    1
  0
VPORT
  5
31
330
2
100
AcDbSymbolTableRecord
100
AcDbViewportTableRecord
  2
*ACTIVE
 70
    0
 10
0
 20
0
 11
1
 21
1
 12
55.68674762235509
 22
24.50216895383624
 13
0
 23
0
 14
10
 24
10
 15
10
 25
10
 16
0
 26
0
 36
1
 17
0
 27
0
 37
0
 40
131.3238778711539
 41
1.671091445427729
 42
50
 43
0
 44
0
 50
0
 51
0
 71
    0
 72
  100
 73
    1
 74
    3
 75
    0
 76
    1
 77
    0
 78
    0
281
    0
 65
    1
110
0
120
0
130
0
111
1
121
0
131
0
112
0
122
1
132
0
 79
    0
146
0
348
10020
 60
    7
 61
    5
292
1
282
    1
141
0
142
0
 63
  250
421
3358443
  0
ENDTAB
  0
TABLE
  2
LTYPE
  5
5
330
0
100
AcDbSymbolTable
 70
    4
  0
LTYPE
  5
14
330
5
100
AcDbSymbolTableRecord
100
AcDbLinetypeTableRecord
  2
ByBlock
 70
    0
  3

 72
   65
 73
    0
 40
0
  0
LTYPE
  5
15
330
5
100
AcDbSymbolTableRecord
100
AcDbLinetypeTableRecord
  2
ByLayer
 70
    0
  3

 72
   65
 73
    0
 40
0
  0
LTYPE
  5
16
330
5
100
AcDbSymbolTableRecord
100
AcDbLinetypeTableRecord
  2
Continuous
 70
    0
  3
Solid line
 72
   65
 73
    0
 40
0
  0
LTYPE
  5
32
330
5
100
AcDbSymbolTableRecord
100
AcDbLinetypeTableRecord
  2
DOT
 70
    0
  3
Dot . . . . . . . . . . . . . . . . . . . . . .
 72
   65
 73
    2
 40
6.35
 49
0
 74
    0
 49
-6.35
 74
    0
  0
LTYPE
  5
33
330
5
100
AcDbSymbolTableRecord
100
AcDbLinetypeTableRecord
  2
DOTTINY
 70
    0
  3
Dot (.15x) .....................................
 72
   65
 73
    2
 40
0.9525
 49
0
 74
    0
 49
-0.9525
 74
    0
  0
LTYPE
  5
34
330
5
100
AcDbSymbolTableRecord
100
AcDbLinetypeTableRecord
  2
DOT2
 70
    0
  3
Dot (.5x) .....................................
 72
   65
 73
    2
 40
3.175
 49
0
 74
    0
 49
-3.175
 74
    0
  0
LTYPE
  5
35
330
5
100
AcDbSymbolTableRecord
100
AcDbLinetypeTableRecord
  2
DOTX2
 70
    0
  3
Dot (2x) .  .  .  .  .  .  .  .  .  .  .  .  .
 72
   65
 73
    2
 40
12.7
 49
0
 74
    0
 49
-12.7
 74
    0
  0
LTYPE
  5
36
330
5
100
AcDbSymbolTableRecord
100
AcDbLinetypeTableRecord
  2
DASHED
 70
    0
  3
Dashed _ _ _ _ _ _ _ _ _ _ _ _ _ _ _ _ _
 72
   65
 73
    2
 40
19.05
 49
12.7
 74
    0
 49
-6.35
 74
    0
  0
LTYPE
  5
37
330
5
100
AcDbSymbolTableRecord
100
AcDbLinetypeTableRecord
  2
DASHEDTINY
 70
    0
  3
Dashed (.15x) _ _ _ _ _ _ _ _ _ _ _ _ _ _ _ _ _
 72
   65
 73
    2
 40
2.8575
 49
1.905
 74
    0
 49
-0.9525
 74
    0
  0
LTYPE
  5
38
330
5
100
AcDbSymbolTableRecord
100
AcDbLinetypeTableRecord
  2
DASHED2
 70
    0
  3
Dashed (.5x) _ _ _ _ _ _ _ _ _ _ _ _ _ _ _ _ _
 72
   65
 73
    2
 40
9.524999999999999
 49
6.35
 74
    0
 49
-3.175
 74
    0
  0
LTYPE
  5
39
330
5
100
AcDbSymbolTableRecord
100
AcDbLinetypeTableRecord
  2
DASHEDX2
 70
    0
  3
Dashed (2x) ____  ____  ____  ____  ____  ___
 72
   65
 73
    2
 40
38.09999999999999
 49
25.4
 74
    0
 49
-12.7
 74
    0
  0
LTYPE
  5
3A
330
5
100
AcDbSymbolTableRecord
100
AcDbLinetypeTableRecord
  2
DASHDOT
 70
    0
  3
Dash dot __ . __ . __ . __ . __ . __ . __ . __
 72
   65
 73
    4
 40
25.4
 49
12.7
 74
    0
 49
-6.35
 74
    0
 49
0
 74
    0
 49
-6.35
 74
    0
  0
LTYPE
  5
3B
330
5
100
AcDbSymbolTableRecord
100
AcDbLinetypeTableRecord
  2
DASHDOTTINY
 70
    0
  3
Dash dot (.15x) _._._._._._._._._._._._._._._.
 72
   65
 73
    4
 40
3.81
 49
1.905
 74
    0
 49
-0.9525
 74
    0
 49
0
 74
    0
 49
-0.9525
 74
    0
  0
LTYPE
  5
3C
330
5
100
AcDbSymbolTableRecord
100
AcDbLinetypeTableRecord
  2
DASHDOT2
 70
    0
  3
Dash dot (.5x) _._._._._._._._._._._._._._._.
 72
   65
 73
    4
 40
12.7
 49
6.35
 74
    0
 49
-3.175
 74
    0
 49
0
 74
    0
 49
-3.175
 74
    0
  0
LTYPE
  5
3D
330
5
100
AcDbSymbolTableRecord
100
AcDbLinetypeTableRecord
  2
DASHDOTX2
 70
    0
  3
Dash dot (2x) ____  .  ____  .  ____  .  ___
 72
   65
 73
    4
 40
50.8
 49
25.4
 74
    0
 49
-12.7
 74
    0
 49
0
 74
    0
 49
-12.7
 74
    0
  0
LTYPE
  5
3E
330
5
100
AcDbSymbolTableRecord
100
AcDbLinetypeTableRecord
  2
DIVIDE
 70
    0
  3
Divide ____ . . ____ . . ____ . . ____ . . ____
 72
   65
 73
    6
 40
31.75
 49
12.7
 74
    0
 49
-6.35
 74
    0
 49
0
 74
    0
 49
-6.35
 74
    0
 49
0
 74
    0
 49
-6.35
 74
    0
  0
LTYPE
  5
3F
330
5
100
AcDbSymbolTableRecord
100
AcDbLinetypeTableRecord
  2
DIVIDETINY
 70
    0
  3
Divide (.15x) __..__..__..__..__..__..__..__.._
 72
   65
 73
    6
 40
4.7625
 49
1.905
 74
    0
 49
-0.9525
 74
    0
 49
0
 74
    0
 49
-0.9525
 74
    0
 49
0
 74
    0
 49
-0.9525
 74
    0
  0
LTYPE
  5
40
330
5
100
AcDbSymbolTableRecord
100
AcDbLinetypeTableRecord
  2
DIVIDE2
 70
    0
  3
Divide (.5x) __..__..__..__..__..__..__..__.._
 72
   65
 73
    6
 40
15.875
 49
6.35
 74
    0
 49
-3.175
 74
    0
 49
0
 74
    0
 49
-3.175
 74
    0
 49
0
 74
    0
 49
-3.175
 74
    0
  0
LTYPE
  5
41
330
5
100
AcDbSymbolTableRecord
100
AcDbLinetypeTableRecord
  2
DIVIDEX2
 70
    0
  3
Divide (2x) ________  .  .  ________  .  .  _
 72
   65
 73
    6
 40
63.5
 49
25.4
 74
    0
 49
-12.7
 74
    0
 49
0
 74
    0
 49
-12.7
 74
    0
 49
0
 74
    0
 49
-12.7
 74
    0
  0
LTYPE
  5
42
330
5
100
AcDbSymbolTableRecord
100
AcDbLinetypeTableRecord
  2
BORDER
 70
    0
  3
Border __ __ . __ __ . __ __ . __ __ . __ __ .
 72
   65
 73
    6
 40
44.45
 49
12.7
 74
    0
 49
-6.35
 74
    0
 49
12.7
 74
    0
 49
-6.35
 74
    0
 49
0
 74
    0
 49
-6.35
 74
    0
  0
LTYPE
  5
43
330
5
100
AcDbSymbolTableRecord
100
AcDbLinetypeTableRecord
  2
BORDERTINY
 70
    0
  3
Border (.15x) __.__.__.__.__.__.__.__.__.__.__.
 72
   65
 73
    6
 40
6.6675
 49
1.905
 74
    0
 49
-0.9525
 74
    0
 49
1.905
 74
    0
 49
-0.9525
 74
    0
 49
0
 74
    0
 49
-0.9525
 74
    0
  0
LTYPE
  5
44
330
5
100
AcDbSymbolTableRecord
100
AcDbLinetypeTableRecord
  2
BORDER2
 70
    0
  3
Border (.5x) __.__.__.__.__.__.__.__.__.__.__.
 72
   65
 73
    6
 40
22.225
 49
6.35
 74
    0
 49
-3.175
 74
    0
 49
6.35
 74
    0
 49
-3.175
 74
    0
 49
0
 74
    0
 49
-3.175
 74
    0
  0
LTYPE
  5
45
330
5
100
AcDbSymbolTableRecord
100
AcDbLinetypeTableRecord
  2
BORDERX2
 70
    0
  3
Border (2x) ____  ____  .  ____  ____  .  ___
 72
   65
 73
    6
 40
88.89999999999999
 49
25.4
 74
    0
 49
-12.7
 74
    0
 49
25.4
 74
    0
 49
-12.7
 74
    0
 49
0
 74
    0
 49
-12.7
 74
    0
  0
LTYPE
  5
46
330
5
100
AcDbSymbolTableRecord
100
AcDbLinetypeTableRecord
  2
CENTER
 70
    0
  3
Center ____ _ ____ _ ____ _ ____ _ ____ _ ____
 72
   65
 73
    4
 40
50.8
 49
31.75
 74
    0
 49
-6.35
 74
    0
 49
6.35
 74
    0
 49
-6.35
 74
    0
  0
LTYPE
  5
47
330
5
100
AcDbSymbolTableRecord
100
AcDbLinetypeTableRecord
  2
CENTERTINY
 70
    0
  3
Center (.15x) ___ _ ___ _ ___ _ ___ _ ___ _ ___
 72
   65
 73
    4
 40
7.619999999999999
 49
4.7625
 74
    0
 49
-0.9525
 74
    0
 49
0.9525
 74
    0
 49
-0.9525
 74
    0
  0
LTYPE
  5
48
330
5
100
AcDbSymbolTableRecord
100
AcDbLinetypeTableRecord
  2
CENTER2
 70
    0
  3
Center (.5x) ___ _ ___ _ ___ _ ___ _ ___ _ ___
 72
   65
 73
    4
 40
28.575
 49
19.05
 74
    0
 49
-3.175
 74
    0
 49
3.175
 74
    0
 49
-3.175
 74
    0
  0
LTYPE
  5
49
330
5
100
AcDbSymbolTableRecord
100
AcDbLinetypeTableRecord
  2
CENTERX2
 70
    0
  3
Center (2x) ________  __  ________  __  _____
 72
   65
 73
    4
 40
101.6
 49
63.5
 74
    0
 49
-12.7
 74
    0
 49
12.7
 74
    0
 49
-12.7
 74
    0
  0
ENDTAB
  0
TABLE
  2
LAYER
  5
2
330
0
100
AcDbSymbolTable
 70
    1
  0
LAYER
  5
10
330
2
100
AcDbSymbolTableRecord
100
AcDbLayerTableRecord
  2
0
 70
    0
 62
    7
  6
CONTINUOUS
370
    0
390
F
  0
LAYER
  5
4A
330
2
100
AcDbSymbolTableRecord
100
AcDbLayerTableRecord
  2
00 External Edge
 70
    0
 62
    7
  6
CONTINUOUS
370
    0
390
F
  0
LAYER
  5
4B
330
2
100
AcDbSymbolTableRecord
100
AcDbLayerTableRecord
  2
10 Inner Surface of the Outer Wall
 70
    0
 62
    7
  6
CONTINUOUS
370
    0
390
F
  0
LAYER
  5
4C
330
2
100
AcDbSymbolTableRecord
100
AcDbLayerTableRecord
  2
20 Bottom Case Bump
 70
    0
 62
    7
  6
CONTINUOUS
370
    0
390
F
  0
LAYER
  5
4D
330
2
100
AcDbSymbolTableRecord
100
AcDbLayerTableRecord
  2
30 Gasket Pocket
 70
    0
 62
    7
  6
CONTINUOUS
370
    0
390
F
  0
LAYER
  5
4E
330
2
100
AcDbSymbolTableRecord
100
AcDbLayerTableRecord
  2
35 Screw Hole
 70
    0
 62
    7
  6
CONTINUOUS
370
    0
390
F
  0
LAYER
  5
4F
330
2
100
AcDbSymbolTableRecord
100
AcDbLayerTableRecord
  2
36 Nut Pockets
 70
    0
 62
    7
  6
CONTINUOUS
370
    0
390
F
  0
LAYER
  5
50
330
2
100
AcDbSymbolTableRecord
100
AcDbLayerTableRecord
  2
40 Inner Bezel
 70
    0
 62
    7
  6
CONTINUOUS
370
   -3
390
F
  0
LAYER
  5
51
330
2
100
AcDbSymbolTableRecord
100
AcDbLayerTableRecord
  2
50 ProMicro Connector Cut
 70
    0
 62
    7
  6
CONTINUOUS
370
    0
390
F
  0
LAYER
  5
52
330
2
100
AcDbSymbolTableRecord
100
AcDbLayerTableRecord
  2
60 ProMicro Edge Cut
 70
    0
 62
    7
  6
CONTINUOUS
370
    0
390
F
  0
LAYER
  5
53
330
2
100
AcDbSymbolTableRecord
100
AcDbLayerTableRecord
  2
bottom case edges
 70
    0
 62
    8
  6
CONTINUOUS
370
   -3
390
F
  0
LAYER
  5
54
330
2
100
AcDbSymbolTableRecord
100
AcDbLayerTableRecord
  2
guildes
 70
    0
 62
    1
  6
DASHEDTINY
370
    0
390
F
  0
ENDTAB
  0
TABLE
  2
STYLE
  5
3
330
0
100
AcDbSymbolTable
 70
    3
  0
STYLE
  5
55
330
2
100
AcDbSymbolTableRecord
100
AcDbTextStyleTableRecord
  2
Standard
 70
    0
 40
0
 41
1
 50
0
 71
    0
 42
1
  3
txt
  4

  0
ENDTAB
  0
TABLE
  2
VIEW
  5
6
330
0
100
AcDbSymbolTable
 70
    0
  0
ENDTAB
  0
TABLE
  2
UCS
  5
7
330
0
100
AcDbSymbolTable
 70
    0
  0
ENDTAB
  0
TABLE
  2
APPID
  5
9
330
0
100
AcDbSymbolTable
 70
    1
  0
APPID
  5
12
330
9
100
AcDbSymbolTableRecord
100
AcDbRegAppTableRecord
  2
ACAD
 70
    0
  0
APPID
  5
56
330
9
100
AcDbSymbolTableRecord
100
AcDbRegAppTableRecord
  2
LibreCad
 70
    0
  0
ENDTAB
  0
TABLE
  2
DIMSTYLE
  5
A
330
0
100
AcDbSymbolTable
 70
    1
100
AcDbDimStyleTable
 71
    1
  0
DIMSTYLE
105
57
330
A
100
AcDbSymbolTableRecord
100
AcDbDimStyleTableRecord
  2
Standard
 70
    0
 40
2.5
 41
2.5
 42
0.625
 43
0.38
 44
1.25
 45
0
 46
0
 47
0
 48
0
 49
1
140
2.5
141
0.09
142
0
143
25.4
144
1
145
0
146
1
147
0.625
148
0
 71
    0
 72
    0
 73
    0
 74
    1
 75
    0
 76
    0
 77
    0
 78
    8
 79
    0
170
    0
171
    2
172
    0
173
    0
174
    0
175
    0
176
    0
177
    0
178
    0
179
    0
271
    2
272
    4
273
    2
274
    2
275
    0
276
    0
277
    2
278
   44
279
    0
280
    0
281
    0
282
    0
283
    1
284
    0
285
    0
286
    0
288
    0
289
    3
340
STANDARD
341

371
   -2
372
   -2
  0
ENDTAB
  0
TABLE
  2
BLOCK_RECORD
  5
1
330
0
100
AcDbSymbolTable
 70
    2
  0
BLOCK_RECORD
  5
1F
330
1
100
AcDbSymbolTableRecord
100
AcDbBlockTableRecord
  2
*Model_Space
 70
    0
280
    1
281
    0
  0
BLOCK_RECORD
  5
1E
330
1
100
AcDbSymbolTableRecord
100
AcDbBlockTableRecord
  2
*Paper_Space
 70
    0
280
    1
281
    0
  0
ENDTAB
  0
ENDSEC
  0
SECTION
  2
BLOCKS
  0
BLOCK
  5
20
330
1F
100
AcDbEntity
  8
0
100
AcDbBlockBegin
  2
*Model_Space
 70
    0
 10
0
 20
0
 30
0
  3
*Model_Space
  1

  0
ENDBLK
  5
21
330
1F
100
AcDbEntity
  8
0
100
AcDbBlockEnd
  0
BLOCK
  5
1C
330
1B
100
AcDbEntity
  8
0
100
AcDbBlockBegin
  2
*Paper_Space
 70
    0
 10
0
 20
0
 30
0
  3
*Paper_Space
  1

  0
ENDBLK
  5
1D
330
1F
100
AcDbEntity
  8
0
100
AcDbBlockEnd
  0
ENDSEC
  0
SECTION
  2
ENTITIES
  0
LINE
  5
58
100
AcDbEntity
  8
bottom case edges
  6
ByLayer
 62
  256
370
   -1
100
AcDbLine
 10
60.5195
 20
-50.2554
 11
67.77119999999999
 21
-27.9373
  0
LINE
  5
59
100
AcDbEntity
  8
bottom case edges
  6
ByLayer
 62
  256
370
   -1
100
AcDbLine
 10
-15.59
 20
-39.1534
 11
-5.965
 21
-39.1534
  0
ARC
  5
5A
100
AcDbEntity
  8
bottom case edges
  6
ByLayer
 62
  256
370
   -1
100
AcDbCircle
 10
-6.22857
 20
-222.398
 40
183.245
100
AcDbArc
 50
71.7933
 51
89.91759999999999
  0
LINE
  5
5B
100
AcDbEntity
  8
bottom case edges
  6
ByLayer
 62
  256
370
   -1
100
AcDbLine
 10
51.0257
 20
-48.3273
 11
59.1335
 21
-50.9617
  0
ARC
  5
5C
100
AcDbEntity
  8
bottom case edges
  6
ByLayer
 62
  256
370
   -1
100
AcDbCircle
 10
59.4734
 20
-49.9155
 40
1.1
100
AcDbArc
 50
252
 51
342
  0
ARC
  5
5D
100
AcDbEntity
  8
bottom case edges
  6
ByLayer
 62
  256
370
   -1
100
AcDbCircle
 10
7.31222
 20
159.531
 40
200
100
AcDbArc
 50
248.147
 51
263.425
  0
ARC
  5
5E
100
AcDbEntity
  8
bottom case edges
  6
ByLayer
 62
  256
370
   -1
100
AcDbCircle
 10
-66.72499999999999
 20
-25.0759
 40
1.1
100
AcDbArc
 50
180
 51
248.147
  0
LINE
  5
5F
100
AcDbEntity
  8
bottom case edges
  6
ByLayer
 62
  256
370
   -1
100
AcDbLine
 10
-67.825
 20
-25.0759
 11
-67.825
 21
30.6477
  0
ARC
  5
60
100
AcDbEntity
  8
bottom case edges
  6
ByLayer
 62
  256
370
   -1
100
AcDbCircle
 10
-66.72499999999999
 20
30.6477
 40
1.1
100
AcDbArc
 50
102.667
 51
180
  0
ARC
  5
61
100
AcDbEntity
  8
bottom case edges
  6
ByLayer
 62
  256
370
   -1
100
AcDbCircle
 10
-1.42109e-14
 20
-266.243
 40
305.396
100
AcDbArc
 50
77.3335
 51
102.667
  0
ARC
  5
62
100
AcDbEntity
  8
bottom case edges
  6
ByLayer
 62
  256
370
   -1
100
AcDbCircle
 10
66.72499999999999
 20
30.6477
 40
1.1
100
AcDbArc
 50
0
 51
77.3335
  0
LINE
  5
63
100
AcDbEntity
  8
bottom case edges
  6
ByLayer
 62
  256
370
   -1
100
AcDbLine
 10
67.825
 20
30.6477
 11
67.825
 21
-27.5974
  0
LINE
  5
64
100
AcDbEntity
  8
bottom case edges
  6
ByLayer
 62
  256
370
   -1
100
AcDbLine
 10
58.23700581564518
 20
-49.51380048208411
 11
55.7648698606456
 21
-57.12225261244534
  0
LINE
  5
65
100
AcDbEntity
  8
bottom case edges
  6
ByLayer
 62
  256
370
   -1
100
AcDbLine
 10
65.42500000000001
 20
30.93644913974115
 11
66.41402498724835
 21
35.42886826250997
  0
LINE
  5
66
100
AcDbEntity
  8
bottom case edges
  6
ByLayer
 62
  256
370
   -1
100
AcDbLine
 10
-65.42500000000001
 20
-25.59195056710713
 11
-73.42500000000001
 21
-25.59195056710713
  0
LINE
  5
67
100
AcDbEntity
  8
bottom case edges
  6
ByLayer
 62
  256
370
   -1
100
AcDbLine
 10
-65.42500000000001
 20
30.93644913974114
 11
-73.42500000000001
 21
30.93644913974114
  0
LINE
  5
68
100
AcDbEntity
  8
bottom case edges
  6
ByLayer
 62
  256
370
   -1
100
AcDbLine
 10
-65.42500000000001
 20
30.93644913974114
 11
-67.14560989613692
 21
38.74922723625174
  0
LINE
  5
69
100
AcDbEntity
  8
bottom case edges
  6
ByLayer
 62
  256
370
   -1
100
AcDbLine
 10
56.81551979014541
 20
-53.88865790596764
 11
54.25798801969511
 21
-53.05766038554111
  0
ARC
  5
6A
100
AcDbEntity
  8
bottom case edges
  6
ByLayer
 62
  256
370
   -1
100
AcDbCircle
 10
-1.42109e-14
 20
-266.243
 40
308.896
100
AcDbArc
 50
77.5842
 51
102.416
  0
ARC
  5
6B
100
AcDbEntity
  8
bottom case edges
  6
ByLayer
 62
  256
370
   -1
100
AcDbCircle
 10
65.425
 20
30.9364
 40
4.6
100
AcDbArc
 50
5.088889999999999e-14
 51
77.5842
  0
LINE
  5
6C
100
AcDbEntity
  8
bottom case edges
  6
ByLayer
 62
  256
370
   -1
100
AcDbLine
 10
70.02500000000001
 20
-28.12
 11
70.02500000000001
 21
30.9364
  0
LINE
  5
6D
100
AcDbEntity
  8
bottom case edges
  6
ByLayer
 62
  256
370
   -1
100
AcDbLine
 10
62.6119
 20
-50.9353
 11
70.02500000000001
 21
-28.12
  0
ARC
  5
6E
100
AcDbEntity
  8
bottom case edges
  6
ByLayer
 62
  256
370
   -1
100
AcDbCircle
 10
58.237
 20
-49.5138
 40
4.6
100
AcDbArc
 50
252
 51
342
  0
ARC
  5
6F
100
AcDbEntity
  8
bottom case edges
  6
ByLayer
 62
  256
370
   -1
100
AcDbCircle
 10
-6.22857
 20
-222.398
 40
179.745
100
AcDbArc
 50
71.7933
 51
89.91759999999999
  0
LINE
  5
70
100
AcDbEntity
  8
bottom case edges
  6
ByLayer
 62
  256
370
   -1
100
AcDbLine
 10
-5.965
 20
-42.6534
 11
-15.7901
 21
-42.6534
  0
LINE
  5
71
100
AcDbEntity
  8
bottom case edges
  6
ByLayer
 62
  256
370
   -1
100
AcDbLine
 10
49.9441
 20
-51.656
 11
56.8155
 21
-53.8887
  0
ARC
  5
72
100
AcDbEntity
  8
bottom case edges
  6
ByLayer
 62
  256
370
   -1
100
AcDbCircle
 10
7.31222
 20
159.531
 40
203.5
100
AcDbArc
 50
248.549
 51
263.481
  0
ARC
  5
73
100
AcDbEntity
  8
bottom case edges
  6
ByLayer
 62
  256
370
   -1
100
AcDbCircle
 10
-65.425
 20
-25.592
 40
4.6
100
AcDbArc
 50
180
 51
248.549
  0
LINE
  5
74
100
AcDbEntity
  8
bottom case edges
  6
ByLayer
 62
  256
370
   -1
100
AcDbLine
 10
-70.02500000000001
 20
-25.5919
 11
-70.02500000000001
 21
30.9364
  0
ARC
  5
75
100
AcDbEntity
  8
bottom case edges
  6
ByLayer
 62
  256
370
   -1
100
AcDbCircle
 10
-65.425
 20
30.9364
 40
4.6
100
AcDbArc
 50
102.42
 51
180
  0
ARC
  5
76
100
AcDbEntity
  8
bottom case edges
  6
ByLayer
 62
  256
370
   -1
100
AcDbCircle
 10
-1.42109e-14
 20
-266.243
 40
306.096
100
AcDbArc
 50
77.3335
 51
102.667
  0
ARC
  5
77
100
AcDbEntity
  8
bottom case edges
  6
ByLayer
 62
  256
370
   -1
100
AcDbCircle
 10
66.72499999999999
 20
30.6477
 40
1.8
100
AcDbArc
 50
0
 51
77.3335
  0
LINE
  5
78
100
AcDbEntity
  8
bottom case edges
  6
ByLayer
 62
  256
370
   -1
100
AcDbLine
 10
68.52500000000001
 20
30.6477
 11
68.52500000000001
 21
-27.8825
  0
LINE
  5
79
100
AcDbEntity
  8
bottom case edges
  6
ByLayer
 62
  256
370
   -1
100
AcDbLine
 10
61.1853
 20
-50.4718
 11
68.52500000000001
 21
-27.8825
  0
ARC
  5
7A
100
AcDbEntity
  8
bottom case edges
  6
ByLayer
 62
  256
370
   -1
100
AcDbCircle
 10
-6.22857
 20
-222.398
 40
182.545
100
AcDbArc
 50
71.7933
 51
89.91759999999999
  0
ARC
  5
7B
100
AcDbEntity
  8
bottom case edges
  6
ByLayer
 62
  256
370
   -1
100
AcDbCircle
 10
59.4734
 20
-49.9155
 40
1.8
100
AcDbArc
 50
252
 51
342
  0
LINE
  5
7C
100
AcDbEntity
  8
bottom case edges
  6
ByLayer
 62
  256
370
   -1
100
AcDbLine
 10
50.8094
 20
-48.993
 11
58.9172
 21
-51.6274
  0
LINE
  5
7D
100
AcDbEntity
  8
bottom case edges
  6
ByLayer
 62
  256
370
   -1
100
AcDbLine
 10
-5.965
 20
-39.8534
 11
-15.6301
 21
-39.8534
  0
ARC
  5
7E
100
AcDbEntity
  8
bottom case edges
  6
ByLayer
 62
  256
370
   -1
100
AcDbCircle
 10
7.31222
 20
159.531
 40
200.7
100
AcDbArc
 50
248.144
 51
263.436
  0
ARC
  5
7F
100
AcDbEntity
  8
bottom case edges
  6
ByLayer
 62
  256
370
   -1
100
AcDbCircle
 10
-66.72499999999999
 20
-25.0759
 40
1.8
100
AcDbArc
 50
180
 51
248.147
  0
LINE
  5
80
100
AcDbEntity
  8
bottom case edges
  6
ByLayer
 62
  256
370
   -1
100
AcDbLine
 10
-68.52500000000001
 20
-25.0759
 11
-68.52500000000001
 21
30.6477
  0
ARC
  5
81
100
AcDbEntity
  8
bottom case edges
  6
ByLayer
 62
  256
370
   -1
100
AcDbCircle
 10
-66.72499999999999
 20
30.6477
 40
1.8
100
AcDbArc
 50
102.667
 51
180
  0
LINE
  5
82
100
AcDbEntity
  8
guildes
  6
ByLayer
 62
  256
370
   -1
100
AcDbLine
 10
72.02500000000001
 20
-52.33538376275848
 11
72.02500000000001
 21
47.04365476465752
  0
LINE
  5
83
100
AcDbEntity
  8
bottom case edges
  6
ByLayer
 62
  256
370
   -1
100
AcDbLine
 10
65.42500000000001
 20
30.93644913974115
 11
75.55431073241419
 21
30.93644913974115
  0
LINE
  5
84
100
AcDbEntity
  8
bottom case edges
  6
ByLayer
 62
  256
370
   -1
100
AcDbLine
 10
65.42500000000001
 20
30.93644913974115
 11
67.57576237017115
 21
40.70242176037939
  0
LINE
  5
85
100
AcDbEntity
  8
guildes
  6
ByLayer
 62
  256
370
   -1
100
AcDbLine
 10
74.40089999999999
 20
-21.1245
 11
62.0402
 21
-59.1668
  0
LINE
  5
86
100
AcDbEntity
  8
guildes
  6
ByLayer
 62
  256
370
   -1
100
AcDbLine
 10
49.32605429356445
 20
-53.55810922524354
 11
65.49401507058205
 21
-58.81139812961765
  0
LINE
  5
87
100
AcDbEntity
  8
guildes
  6
ByLayer
 62
  256
370
   -1
100
AcDbLine
 10
-5.965
 20
-44.6534
 11
-15.7901
 21
-44.6534
  0
LINE
  5
88
100
AcDbEntity
  8
bottom case edges
  6
ByLayer
 62
  256
370
   -1
100
AcDbLine
 10
-65.42500000000001
 20
-25.59195056710713
 11
-71.64171546117593
 21
-41.41448035455819
  0
ARC
  5
89
100
AcDbEntity
  8
guildes
  6
ByLayer
 62
  256
370
   -1
100
AcDbCircle
 10
7.31222
 20
159.531
 40
205.5
100
AcDbArc
 50
248.549
 51
263.481
  0
LINE
  5
8A
100
AcDbEntity
  8
guildes
  6
ByLayer
 62
  256
370
   -1
100
AcDbLine
 10
-67.8402374693559
 20
-31.73415139020139
 11
-77.14760793256241
 21
-28.07725994245085
  0
LINE
  5
8B
100
AcDbEntity
  8
guildes
  6
ByLayer
 62
  256
370
   -1
100
AcDbLine
 10
-72.02500000000001
 20
-34.86426516602201
 11
-72.02500000000001
 21
39.59048232051656
  0
LINE
  5
8C
100
AcDbEntity
  8
bottom case edges
  6
ByLayer
 62
  256
370
   -1
100
AcDbLine
 10
58.23700581564518
 20
-49.51380048208411
 11
67.74757097859671
 21
-52.60397042583358
  0
LINE
  5
8D
100
AcDbEntity
  8
guildes
  6
ByLayer
 62
  256
370
   -1
100
AcDbLine
 10
70.52500000000001
 20
-52.33538376275848
 11
70.52500000000001
 21
47.04365476465752
  0
LINE
  5
8E
100
AcDbEntity
  8
guildes
  6
ByLayer
 62
  256
370
   -1
100
AcDbLine
 10
72.97431530755323
 20
-20.66097425608003
 11
60.61361530755323
 21
-58.70327425608003
  0
LINE
  5
8F
100
AcDbEntity
  8
guildes
  6
ByLayer
 62
  256
370
   -1
100
AcDbLine
 10
49.78957978512687
 20
-52.13152445080081
 11
65.95754056214447
 21
-57.38481335517492
  0
LINE
  5
90
100
AcDbEntity
  8
guildes
  6
ByLayer
 62
  256
370
   -1
100
AcDbLine
 10
-70.52500000000001
 20
-34.86426516602201
 11
-70.52500000000001
 21
39.59048232051656
  0
ARC
  5
91
100
AcDbEntity
  8
guildes
  6
ByLayer
 62
  256
370
   -1
100
AcDbCircle
 10
7.31222
 20
159.531
 40
202.5
100
AcDbArc
 50
248.549
 51
263.481
  0
LWPOLYLINE
  5
92
100
AcDbEntity
  8
bottom case edges
  6
ByLayer
 62
  256
370
   -1
100
AcDbPolyline
 90
    4
 70
    1
 43
0
 10
58.52785918651325
 20
-48.05708187503558
 10
62.88499772335915
 20
-34.64718439359139
 10
49.47510024191506
 20
-30.29004585674558
 10
45.11796170506916
 20
-43.69994333818968
  0
LWPOLYLINE
  5
93
100
AcDbEntity
  8
bottom case edges
  6
ByLayer
 62
  256
370
   -1
100
AcDbPolyline
 90
    4
 70
    1
 43
0
 10
39.73164290795985
 20
-42.23528181243098
 10
42.66319766075456
 20
-28.44340067214488
 10
28.87131652046846
 20
-25.51184591935018
 10
25.93976176767375
 20
-39.30372705963629
  0
LWPOLYLINE
  5
94
100
AcDbEntity
  8
bottom case edges
  6
ByLayer
 62
  256
370
   -1
100
AcDbPolyline
 90
    4
 70
    1
 43
0
 10
20.57593372233517
 20
-38.42186914221058
 10
22.04978499053415
 20
-24.39910985776959
 10
8.027025706093159
 20
-22.92525858957057
 10
6.55317443789416
 20
-36.94801787401158
  0
LWPOLYLINE
  5
95
100
AcDbEntity
  8
bottom case edges
  6
ByLayer
 62
  256
370
   -1
100
AcDbPolyline
 90
    4
 70
    1
 43
0
 10
-13.01351978578586
 20
-36.57856436589059
 10
1.086480214214152
 20
-36.57856436589059
 10
1.086480214214152
 20
-22.47856436589058
 10
-13.01351978578586
 20
-22.47856436589058
  0
LWPOLYLINE
  5
96
100
AcDbEntity
  8
bottom case edges
  6
ByLayer
 62
  256
370
   -1
100
AcDbPolyline
 90
    4
 70
    1
 43
0
 10
30.00148021421414
 20
-19.43356436589058
 10
44.10148021421416
 20
-19.43356436589058
 10
44.10148021421416
 20
-5.333564365890581
 10
30.00148021421414
 20
-5.333564365890581
  0
LWPOLYLINE
  5
97
100
AcDbEntity
  8
bottom case edges
  6
ByLayer
 62
  256
370
   -1
100
AcDbPolyline
 90
    4
 70
    1
 43
0
 10
10.95148021421416
 20
-17.52856436589057
 10
25.05148021421416
 20
-17.52856436589057
 10
25.05148021421416
 20
-3.42856436589058
 10
10.95148021421416
 20
-3.42856436589058
  0
LWPOLYLINE
  5
98
100
AcDbEntity
  8
bottom case edges
  6
ByLayer
 62
  256
370
   -1
100
AcDbPolyline
 90
    4
 70
    1
 43
0
 10
-8.09851978578585
 20
-15.62356436589057
 10
6.001480214214158
 20
-15.62356436589057
 10
6.001480214214158
 20
-1.523564365890579
 10
-8.09851978578585
 20
-1.523564365890579
  0
LWPOLYLINE
  5
99
100
AcDbEntity
  8
bottom case edges
  6
ByLayer
 62
  256
370
   -1
100
AcDbPolyline
 90
    4
 70
    1
 43
0
 10
-27.14851978578585
 20
-17.52856436589057
 10
-13.04851978578585
 20
-17.52856436589057
 10
-13.04851978578585
 20
-3.42856436589058
 10
-27.14851978578585
 20
-3.42856436589058
  0
LWPOLYLINE
  5
9A
100
AcDbEntity
  8
bottom case edges
  6
ByLayer
 62
  256
370
   -1
100
AcDbPolyline
 90
    4
 70
    1
 43
0
 10
-46.19851978578583
 20
-23.24356436589058
 10
-32.09851978578587
 20
-23.24356436589058
 10
-32.09851978578584
 20
-9.143564365890569
 10
-46.19851978578585
 20
-9.143564365890569
  0
LWPOLYLINE
  5
9B
100
AcDbEntity
  8
bottom case edges
  6
ByLayer
 62
  256
370
   -1
100
AcDbPolyline
 90
    4
 70
    1
 43
0
 10
-65.24851978578585
 20
-23.24356436589058
 10
-51.14851978578587
 20
-23.24356436589058
 10
-51.14851978578585
 20
-9.143564365890569
 10
-65.24851978578585
 20
-9.143564365890569
  0
LWPOLYLINE
  5
9C
100
AcDbEntity
  8
bottom case edges
  6
ByLayer
 62
  256
370
   -1
100
AcDbPolyline
 90
    4
 70
    1
 43
0
 10
-65.24851978578585
 20
-4.19356436589058
 10
-51.14851978578587
 20
-4.19356436589058
 10
-51.14851978578587
 20
9.906435634109428
 10
-65.24851978578585
 20
9.906435634109428
  0
LWPOLYLINE
  5
9D
100
AcDbEntity
  8
bottom case edges
  6
ByLayer
 62
  256
370
   -1
100
AcDbPolyline
 90
    4
 70
    1
 43
0
 10
-46.19851978578583
 20
-4.193564365890595
 10
-32.09851978578587
 20
-4.19356436589058
 10
-32.09851978578585
 20
9.906435634109428
 10
-46.19851978578585
 20
9.906435634109428
  0
LWPOLYLINE
  5
9E
100
AcDbEntity
  8
bottom case edges
  6
ByLayer
 62
  256
370
   -1
100
AcDbPolyline
 90
    4
 70
    1
 43
0
 10
-27.14851978578585
 20
1.521435634109423
 10
-13.04851978578585
 20
1.521435634109423
 10
-13.04851978578585
 20
15.62143563410943
 10
-27.14851978578585
 20
15.62143563410943
  0
LWPOLYLINE
  5
9F
100
AcDbEntity
  8
bottom case edges
  6
ByLayer
 62
  256
370
   -1
100
AcDbPolyline
 90
    4
 70
    1
 43
0
 10
-8.09851978578585
 20
3.42643563410941
 10
6.001480214214158
 20
3.426435634109438
 10
6.001480214214158
 20
17.52643563410942
 10
-8.09851978578585
 20
17.52643563410941
  0
LWPOLYLINE
  5
A0
100
AcDbEntity
  8
bottom case edges
  6
ByLayer
 62
  256
370
   -1
100
AcDbPolyline
 90
    4
 70
    1
 43
0
 10
10.95148021421416
 20
1.481435634109417
 10
25.05148021421416
 20
1.481435634109417
 10
25.05148021421416
 20
15.58143563410943
 10
10.95148021421416
 20
15.58143563410943
  0
LWPOLYLINE
  5
A1
100
AcDbEntity
  8
bottom case edges
  6
ByLayer
 62
  256
370
   -1
100
AcDbPolyline
 90
    4
 70
    1
 43
0
 10
30.00148021421414
 20
-0.3835643658905781
 10
44.10148021421416
 20
-0.3835643658905781
 10
44.10148021421416
 20
13.71643563410943
 10
30.00148021421414
 20
13.71643563410943
  0
LWPOLYLINE
  5
A2
100
AcDbEntity
  8
bottom case edges
  6
ByLayer
 62
  256
370
   -1
100
AcDbPolyline
 90
    4
 70
    1
 43
0
 10
30.00148021421414
 20
18.66643563410941
 10
44.10148021421416
 20
18.66643563410942
 10
44.10148021421416
 20
32.76643563410943
 10
30.00148021421414
 20
32.76643563410943
  0
LWPOLYLINE
  5
A3
100
AcDbEntity
  8
bottom case edges
  6
ByLayer
 62
  256
370
   -1
100
AcDbPolyline
 90
    4
 70
    1
 43
0
 10
10.95148021421416
 20
20.57143563410941
 10
25.05148021421416
 20
20.57143563410941
 10
25.05148021421416
 20
34.67143563410943
 10
10.95148021421416
 20
34.67143563410943
  0
LWPOLYLINE
  5
A4
100
AcDbEntity
  8
bottom case edges
  6
ByLayer
 62
  256
370
   -1
100
AcDbPolyline
 90
    4
 70
    1
 43
0
 10
-8.09851978578585
 20
22.47643563410942
 10
6.001480214214158
 20
22.47643563410944
 10
6.001480214214158
 20
36.57643563410942
 10
-8.09851978578585
 20
36.57643563410943
  0
LWPOLYLINE
  5
A5
100
AcDbEntity
  8
bottom case edges
  6
ByLayer
 62
  256
370
   -1
100
AcDbPolyline
 90
    4
 70
    1
 43
0
 10
-27.14851978578585
 20
20.57143563410941
 10
-13.04851978578585
 20
20.57143563410941
 10
-13.04851978578585
 20
34.67143563410943
 10
-27.14851978578585
 20
34.67143563410943
  0
LWPOLYLINE
  5
A6
100
AcDbEntity
  8
bottom case edges
  6
ByLayer
 62
  256
370
   -1
100
AcDbPolyline
 90
    4
 70
    1
 43
0
 10
-46.19851978578585
 20
14.85643563410942
 10
-32.09851978578585
 20
14.85643563410942
 10
-32.09851978578585
 20
28.95643563410943
 10
-46.19851978578585
 20
28.95643563410941
  0
LWPOLYLINE
  5
A7
100
AcDbEntity
  8
bottom case edges
  6
ByLayer
 62
  256
370
   -1
100
AcDbPolyline
 90
    4
 70
    1
 43
0
 10
-65.24851978578586
 20
14.85643563410942
 10
-51.14851978578585
 20
14.85643563410942
 10
-51.14851978578585
 20
28.95643563410943
 10
-65.24851978578585
 20
28.95643563410941
  0
LINE
  5
A8
100
AcDbEntity
  8
bottom case edges
  6
ByLayer
 62
  256
370
   -1
100
AcDbLine
 10
-51.64851978578586
 20
32.79777579721851
 11
-51.64851978578586
 21
40.06310587888081
  0
LINE
  5
A9
100
AcDbEntity
  8
bottom case edges
  6
ByLayer
 62
  256
370
   -1
100
AcDbLine
 10
-26.64851978578586
 20
36.82484447105421
 11
-26.64851978578586
 21
43.0937864272314
  0
LINE
  5
AA
100
AcDbEntity
  8
bottom case edges
  6
ByLayer
 62
  256
370
   -1
100
AcDbLine
 10
-51.64851978578587
 20
-36.57574743968291
 11
-51.64851978578587
 21
-30.26528931161048
  0
LINE
  5
AB
100
AcDbEntity
  8
bottom case edges
  6
ByLayer
 62
  256
370
   -1
100
AcDbLine
 10
-26.64851978578587
 20
-42.84468939586011
 11
-26.64851978578587
 21
-36.2436180645212
  0
LINE
  5
AC
100
AcDbEntity
  8
bottom case edges
  6
ByLayer
 62
  256
370
   -1
100
AcDbLine
 10
5.501500000000004
 20
38.0231483922747
 11
5.501500000000004
 21
44.12483605657555
  0
LINE
  5
AD
100
AcDbEntity
  8
bottom case edges
  6
ByLayer
 62
  256
370
   -1
100
AcDbLine
 10
30.5015
 20
36.0962996561797
 11
30.5015
 21
43.06506925172329
  0
LINE
  5
AE
100
AcDbEntity
  8
bottom case edges
  6
ByLayer
 62
  256
370
   -1
100
AcDbLine
 10
5.501499999999997
 20
-44.92247636076016
 11
5.501499999999998
 21
-36.97919499708931
  0
LINE
  5
AF
100
AcDbEntity
  8
bottom case edges
  6
ByLayer
 62
  256
370
   -1
100
AcDbLine
 10
-5.965
 20
-39.1534
 11
-5.96351978578585
 21
-39.07856436589059
  0
LINE
  5
B0
100
AcDbEntity
  8
bottom case edges
  6
ByLayer
 62
  256
370
   -1
100
AcDbLine
 10
51.0257
 20
-48.3273
 11
51.05036816502641
 21
-48.25615396401511
  0
ARC
  5
B1
100
AcDbEntity
  8
guildes
  6
ByLayer
 62
  256
370
   -1
100
AcDbCircle
 10
7.312220000000991
 20
159.5310000000039
 40
204.000000000004
100
AcDbArc
 50
245.5787152476478
 51
265.2689068366235
  0
ARC
  5
B2
100
AcDbEntity
  8
guildes
  6
ByLayer
 62
  256
370
   -1
100
AcDbCircle
 10
-6.228488130701791
 20
-222.3982047032738
 40
179.2449983656721
100
AcDbArc
 50
68.1570552612057
 51
71.78794558520583
  0
ARC
  5
B3
100
AcDbEntity
  8
guildes
  6
ByLayer
 62
  256
370
   -1
100
AcDbCircle
 10
-6.228488130701791
 20
-222.3982047032738
 40
179.2449983656721
100
AcDbArc
 50
71.78794558520585
 51
93.0345253207649
  0
LINE
  5
B4
100
AcDbEntity
  8
guildes
  6
ByLayer
 62
  256
370
   -1
100
AcDbLine
 10
-5.965
 20
-43.1534
 11
-15.81858190222579
 21
-43.1534
  0
LINE
  5
B5
100
AcDbEntity
  8
bottom case edges
  6
ByLayer
 62
  256
370
   -1
100
AcDbLine
 10
30.5015
 20
-48.35740884234756
 11
30.5015
 21
-43.58642603792366
  0
LINE
  5
B6
100
AcDbEntity
  8
bottom case edges
  6
ByLayer
 62
  256
370
   -1
100
AcDbLine
 10
30.5015
 20
-43.58642603792366
 11
30.5015
 21
-41.05817731897434
  0
LINE
  5
B7
100
AcDbEntity
  8
guildes
  6
ByLayer
 62
  256
370
   -1
100
AcDbLine
 10
-68.52500000000001
 20
-34.7141
 11
-68.52500000000001
 21
40.2859
  0
LINE
  5
B8
100
AcDbEntity
  8
guildes
  6
ByLayer
 62
  256
370
   -1
100
AcDbLine
 10
68.52500000000001
 20
-38.6174
 11
68.52500000000001
 21
41.3826
  0
LINE
  5
B9
100
AcDbEntity
  8
guildes
  6
ByLayer
 62
  256
370
   -1
100
AcDbLine
 10
76.18162818649242
 20
-4.321841098720299
 11
51.46026863649661
 21
-80.40636240233258
  0
LWPOLYLINE
  5
BA
100
AcDbEntity
  8
30 Gasket Pocket
  6
ByLayer
 62
  256
370
   -1
100
AcDbPolyline
 90
    4
 70
    1
 43
0
 10
5.5015
 20
39.80355644811624
 10
5.501500000000149
 20
43.10408389404608
 42
-0.02024327644732797
 10
30.50149999999998
 20
41.64584895973422
 10
30.50150000000016
 20
38.32951962997282
 42
0.02046245619909338
  0
LWPOLYLINE
  5
BB
100
AcDbEntity
  8
30 Gasket Pocket
  6
ByLayer
 62
  256
370
   -1
100
AcDbPolyline
 90
    4
 70
    1
 43
0
 10
-51.64851978578587
 20
35.46412888484634
 10
-51.64851978578601
 20
38.81161022567386
 42
-0.02037305481684036
 10
-26.64851978578594
 20
42.00323470405419
 10
-26.64851978578582
 20
38.6907921733611
 42
0.02059652894112271
  0
LWPOLYLINE
  5
BC
100
AcDbEntity
  8
30 Gasket Pocket
  6
ByLayer
 62
  256
370
   -1
100
AcDbPolyline
 90
    4
 70
    1
 43
0
 10
-26.64851978578587
 20
-41.62234487202078
 10
-26.6485197857863
 20
-38.27485975446237
 42
-0.03204713637480296
 10
-51.64851978578593
 20
-32.31300215777617
 10
-51.64851978578605
 20
-35.76270487527967
 42
0.03149877857537983
  0
LWPOLYLINE
  5
BD
100
AcDbEntity
  8
30 Gasket Pocket
  6
ByLayer
 62
  256
370
   -1
100
AcDbPolyline
 90
    5
 70
    0
 43
0
 10
30.50149999999993
 20
-43.58630562856891
 42
0.03459126172615987
 10
5.501499999999936
 20
-40.2302682723554
 10
5.501500000000055
 20
-43.53742974810538
 42
-0.03523681538937887
 10
30.50150000000006
 20
-46.95682585829235
 10
30.5015
 20
-43.58642603792366
  0
LWPOLYLINE
  5
BE
100
AcDbEntity
  8
20 Bottom Case Bump
  6
ByLayer
 62
  256
370
   -1
100
AcDbPolyline
 90
    8
 70
    1
 43
0
 10
68.52500000000001
 20
-27.8825
 10
68.52500000000009
 20
32.08414524662379
 42
0.113372561158358
 10
-68.52499999999999
 20
32.08414524662334
 10
-68.52500000000046
 20
-26.28935965596315
 42
0.06833715467318149
 10
-15.63040000000019
 20
-39.85339999999991
 10
-5.966039999981302
 20
-39.85319999999993
 42
-0.07924704370369583
 10
50.80689999999995
 20
-48.99199999999999
 10
60.63017330623036
 20
-52.18381184890225
  0
CIRCLE
  5
BF
100
AcDbEntity
  8
guildes
  6
ByLayer
 62
  256
370
   -1
100
AcDbCircle
 10
-10.642586169045
 20
41.66913125766001
 40
1.05
  0
LWPOLYLINE
  5
C0
100
AcDbEntity
  8
guildes
  6
ByLayer
 62
  256
370
   -1
100
AcDbPolyline
 90
    6
 70
    1
 43
0
 10
-8.334563320733247
 20
41.74890509425087
 10
-9.557660913934123
 20
43.70782459510836
 10
-11.86568376224588
 20
43.62805075851753
 10
-12.95060901735675
 20
41.58935742106923
 10
-11.72751142415588
 20
39.63043792021175
 10
-9.419488575844122
 20
39.71021175680256
  0
LWPOLYLINE
  5
C1
100
AcDbEntity
  8
guildes
  6
ByLayer
 62
  256
370
   -1
100
AcDbPolyline
 90
    6
 70
    1
 43
0
 10
-7.872958751070904
 20
41.76485986156903
 10
-9.340675862911951
 20
44.11556326259802
 10
-12.11030328088605
 20
44.01983465868902
 10
-13.4122135870191
 20
41.57340265375106
 10
-11.94449647517805
 20
39.2226992527221
 10
-9.174869057203949
 20
39.31842785663108
  0
ARC
  5
C2
100
AcDbEntity
  8
10 Inner Surface of the Outer Wall
  6
ByLayer
 62
  256
370
   -1
100
AcDbCircle
 10
-6.228570000001913
 20
-222.3980000000106
 40
179.2448208493032
100
AcDbArc
 50
71.78864890401388
 51
89.91527641303125
  0
LINE
  5
C3
100
AcDbEntity
  8
10 Inner Surface of the Outer Wall
  6
ByLayer
 62
  256
370
   -1
100
AcDbLine
 10
59.6105
 20
-55.3225
 11
68.52500000000001
 21
-27.8825
  0
LINE
  5
C4
100
AcDbEntity
  8
10 Inner Surface of the Outer Wall
  6
ByLayer
 62
  256
370
   -1
100
AcDbLine
 10
68.52500000000001
 20
-27.8825
 11
68.52500000000005
 21
35.4691296716457
  0
LINE
  5
C5
100
AcDbEntity
  8
10 Inner Surface of the Outer Wall
  6
ByLayer
 62
  256
370
   -1
100
AcDbLine
 10
-68.52499999999996
 20
35.46912967164582
 11
-68.52500000000022
 21
-29.84881957608781
  0
ARC
  5
C6
100
AcDbEntity
  8
10 Inner Surface of the Outer Wall
  6
ByLayer
 62
  256
370
   -1
100
AcDbCircle
 10
-10.642586169045
 20
41.66913125766001
 40
2.400000000000072
100
AcDbArc
 50
34.58934474048044
 51
149.3697887909148
  0
CIRCLE
  5
C7
100
AcDbEntity
  8
guildes
  6
ByLayer
 62
  256
370
   -1
100
AcDbCircle
 10
57.602
 20
-53.303
 40
1.05
  0
CIRCLE
  5
C8
100
AcDbEntity
  8
guildes
  6
ByLayer
 62
  256
370
   -1
100
AcDbCircle
 10
-10.5735
 20
-41.8534
 40
1.05
  0
CIRCLE
  5
C9
100
AcDbEntity
  8
guildes
  6
ByLayer
 62
  256
370
   -1
100
AcDbCircle
 10
-65.82643248597918
 20
-29.51404096255775
 40
1.05
  0
CIRCLE
  5
CA
100
AcDbEntity
  8
guildes
  6
ByLayer
 62
  256
370
   -1
100
AcDbCircle
 10
45.24409816618731
 20
38.51283144072615
 40
1.05
  0
CIRCLE
  5
CB
100
AcDbEntity
  8
guildes
  6
ByLayer
 62
  256
370
   -1
100
AcDbCircle
 10
-65.8622
 20
34.731
 40
1.05
  0
LWPOLYLINE
  5
CC
100
AcDbEntity
  8
guildes
  6
ByLayer
 62
  256
370
   -1
100
AcDbPolyline
 90
    6
 70
    1
 43
0
 10
47.52846224942469
 20
38.17369419926133
 10
46.67998167428392
 20
40.32158014757006
 10
44.39561759104654
 20
40.66071738903489
 10
42.95973408294994
 20
38.85196868219098
 10
43.80821465809071
 20
36.70408273388225
 10
46.09257874132809
 20
36.36494549241742
  0
LWPOLYLINE
  5
CD
100
AcDbEntity
  8
guildes
  6
ByLayer
 62
  256
370
   -1
100
AcDbPolyline
 90
    6
 70
    1
 43
0
 10
47.98533506607216
 20
38.10586675096837
 10
46.96715837590325
 20
40.68332988893884
 10
44.22592147601837
 20
41.09029457869663
 10
42.50286126630246
 20
38.91979613048395
 10
43.52103795647137
 20
36.34233299251348
 10
46.26227485635626
 20
35.93536830275568
  0
LWPOLYLINE
  5
CE
100
AcDbEntity
  8
guildes
  6
ByLayer
 62
  256
370
   -1
100
AcDbPolyline
 90
    6
 70
    1
 43
0
 10
-63.60615941504982
 20
35.22463492749668
 10
-65.16171056820542
 20
36.93156021679604
 10
-67.41772680767856
 20
36.43787604592681
 10
-68.11819189399611
 20
34.23726658575821
 10
-66.56264074084054
 20
32.53034129645884
 10
-64.30662450136738
 20
33.02402546732808
  0
LWPOLYLINE
  5
CF
100
AcDbEntity
  8
guildes
  6
ByLayer
 62
  256
370
   -1
100
AcDbPolyline
 90
    6
 70
    1
 43
0
 10
-63.1549561671552
 20
35.32337176167053
 10
-65.02161755094193
 20
37.37168210882975
 10
-67.72883703830968
 20
36.77926110378668
 10
-68.56939514189074
 20
34.13852975158435
 10
-66.70273375810406
 20
32.09021940442513
 10
-63.99551427073627
 20
32.68264040946821
  0
LWPOLYLINE
  5
D0
100
AcDbEntity
  8
guildes
  6
ByLayer
 62
  256
370
   -1
100
AcDbPolyline
 90
    6
 70
    1
 43
0
 10
-67.98025987966309
 20
-28.68075776246905
 10
-67.62499060264474
 20
-30.9626686008105
 10
-65.47116320896083
 20
-31.7959518008992
 10
-63.67260509229526
 20
-30.34732416264645
 10
-64.02787436931362
 20
-28.06541332430501
 10
-66.18170176299753
 20
-27.2321301242163
  0
LWPOLYLINE
  5
D1
100
AcDbEntity
  8
guildes
  6
ByLayer
 62
  256
370
   -1
100
AcDbPolyline
 90
    6
 70
    1
 43
0
 10
-68.41102535839988
 20
-28.51410112245131
 10
-67.98470222597784
 20
-31.25239412846105
 10
-65.40010935355716
 20
-32.25233396856749
 10
-63.24183961355848
 20
-30.51398080266418
 10
-63.66816274598051
 20
-27.77568779665445
 10
-66.25275561840121
 20
-26.77574795654801
  0
LWPOLYLINE
  5
D2
100
AcDbEntity
  8
guildes
  6
ByLayer
 62
  256
370
   -1
100
AcDbPolyline
 90
    6
 70
    1
 43
0
 10
-12.88290107675849
 20
-41.8534
 10
-11.72820053837925
 20
-43.85339999999999
 10
-9.418799461620754
 20
-43.85339999999999
 10
-8.264098923241505
 20
-41.8534
 10
-9.418799461620749
 20
-39.85340000000001
 10
-11.72820053837925
 20
-39.85340000000001
  0
LWPOLYLINE
  5
D3
100
AcDbEntity
  8
guildes
  6
ByLayer
 62
  256
370
   -1
100
AcDbPolyline
 90
    6
 70
    1
 43
0
 10
-13.3447812921102
 20
-41.8534
 10
-11.95914064605511
 20
-44.25339999999999
 10
-9.187859353944898
 20
-44.25339999999999
 10
-7.802218707889807
 20
-41.8534
 10
-9.187859353944894
 20
-39.45340000000001
 10
-11.9591406460551
 20
-39.45340000000001
  0
LWPOLYLINE
  5
D4
100
AcDbEntity
  8
guildes
  6
ByLayer
 62
  256
370
   -1
100
AcDbPolyline
 90
    6
 70
    1
 43
0
 10
55.4056301604563
 20
-52.5893313779561
 10
55.88578277982852
 20
-54.84826625870072
 10
58.08215408173425
 20
-55.56190933300304
 10
59.79837276426775
 20
-54.01661752656075
 10
59.31822014489553
 20
-51.75768264581614
 10
57.12184884298981
 20
-51.04403957151381
  0
LWPOLYLINE
  5
D5
100
AcDbEntity
  8
guildes
  6
ByLayer
 62
  256
370
   -1
100
AcDbPolyline
 90
    6
 70
    1
 43
0
 10
54.96635590007521
 20
-52.44660276309565
 10
55.54253904332187
 20
-55.15732461998914
 10
58.17818460560867
 20
-56.01369630915191
 10
60.23764702464884
 20
-54.1593461414212
 10
59.66146388140218
 20
-51.44862428452772
 10
57.02581831911538
 20
-50.59225259536495
  0
LINE
  5
D6
100
AcDbEntity
  8
40 Inner Bezel
  6
ByLayer
 62
  256
370
   -1
100
AcDbLine
 10
-16.08831978578585
 20
-39.65336436589059
 11
-16.08831978578585
 21
-20.60336436589057
  0
LINE
  5
D7
100
AcDbEntity
  8
40 Inner Bezel
  6
ByLayer
 62
  256
370
   -1
100
AcDbLine
 10
-16.08831978578585
 20
-20.60336436589057
 11
-29.02371978578587
 21
-20.60336436589057
  0
LINE
  5
D8
100
AcDbEntity
  8
40 Inner Bezel
  6
ByLayer
 62
  256
370
   -1
100
AcDbLine
 10
-29.02371978578587
 20
-20.60336436589057
 11
-29.02371978578588
 21
-26.31836436589058
  0
LINE
  5
D9
100
AcDbEntity
  8
40 Inner Bezel
  6
ByLayer
 62
  256
370
   -1
100
AcDbLine
 10
-29.02371978578588
 20
-26.31836436589058
 11
-68.32331978578584
 21
-26.31836436589058
  0
LINE
  5
DA
100
AcDbEntity
  8
40 Inner Bezel
  6
ByLayer
 62
  256
370
   -1
100
AcDbLine
 10
-68.32331978578584
 20
-26.31836436589058
 11
-68.32331978578584
 21
32.03123563410941
  0
LINE
  5
DB
100
AcDbEntity
  8
40 Inner Bezel
  6
ByLayer
 62
  256
370
   -1
100
AcDbLine
 10
-68.32331978578584
 20
32.03123563410941
 11
-30.22331978578585
 21
32.03123563410943
  0
LINE
  5
DC
100
AcDbEntity
  8
40 Inner Bezel
  6
ByLayer
 62
  256
370
   -1
100
AcDbLine
 10
-30.22331978578585
 20
32.03123563410943
 11
-30.22331978578585
 21
37.74623563410942
  0
LINE
  5
DD
100
AcDbEntity
  8
40 Inner Bezel
  6
ByLayer
 62
  256
370
   -1
100
AcDbLine
 10
-30.22331978578585
 20
37.74623563410942
 11
-11.17331978578585
 21
37.74623563410942
  0
LINE
  5
DE
100
AcDbEntity
  8
40 Inner Bezel
  6
ByLayer
 62
  256
370
   -1
100
AcDbLine
 10
-11.17331978578585
 20
37.74623563410942
 11
-11.17331978578585
 21
39.65123563410944
  0
LINE
  5
DF
100
AcDbEntity
  8
40 Inner Bezel
  6
ByLayer
 62
  256
370
   -1
100
AcDbLine
 10
-11.17331978578585
 20
39.65123563410944
 11
9.076280214214158
 21
39.65123563410942
  0
LINE
  5
E0
100
AcDbEntity
  8
40 Inner Bezel
  6
ByLayer
 62
  256
370
   -1
100
AcDbLine
 10
9.076280214214158
 20
39.65123563410942
 11
9.07628021421416
 21
37.74623563410942
  0
LINE
  5
E1
100
AcDbEntity
  8
40 Inner Bezel
  6
ByLayer
 62
  256
370
   -1
100
AcDbLine
 10
9.07628021421416
 20
37.74623563410942
 11
28.12628021421416
 21
37.74623563410942
  0
LINE
  5
E2
100
AcDbEntity
  8
40 Inner Bezel
  6
ByLayer
 62
  256
370
   -1
100
AcDbLine
 10
28.12628021421416
 20
37.74623563410942
 11
28.12628021421415
 21
35.84123563410942
  0
LINE
  5
E3
100
AcDbEntity
  8
40 Inner Bezel
  6
ByLayer
 62
  256
370
   -1
100
AcDbLine
 10
28.12628021421415
 20
35.84123563410942
 11
47.17628021421416
 21
35.84123563410942
  0
LINE
  5
E4
100
AcDbEntity
  8
40 Inner Bezel
  6
ByLayer
 62
  256
370
   -1
100
AcDbLine
 10
47.17628021421416
 20
35.84123563410942
 11
47.17628021421415
 21
-22.50836436589057
  0
LINE
  5
E5
100
AcDbEntity
  8
40 Inner Bezel
  6
ByLayer
 62
  256
370
   -1
100
AcDbLine
 10
47.17628021421415
 20
-22.50836436589057
 11
36.37611775336703
 21
-22.5083643658908
  0
ARC
  5
E6
100
AcDbEntity
  8
40 Inner Bezel
  6
ByLayer
 62
  256
370
   -1
100
AcDbCircle
 10
36.37611807930379
 20
-23.20836436589072
 40
0.6999999999999946
100
AcDbArc
 50
90.00002667828622
 51
257.9266055484011
  0
ARC
  5
E7
100
AcDbEntity
  8
40 Inner Bezel
  6
ByLayer
 62
  256
370
   -1
100
AcDbCircle
 10
-6.224428054961258
 20
-222.3735610490178
 40
202.9702779022171
100
AcDbArc
 50
71.8116370885637
 51
77.92661888141306
  0
LINE
  5
E8
100
AcDbEntity
  8
40 Inner Bezel
  6
ByLayer
 62
  256
370
   -1
100
AcDbLine
 10
57.13111383601773
 20
-29.544597914836
 11
66.7594715682863
 21
-32.67304098442642
  0
LINE
  5
E9
100
AcDbEntity
  8
40 Inner Bezel
  6
ByLayer
 62
  256
370
   -1
100
AcDbLine
 10
66.7594715682863
 20
-32.67304098442642
 11
60.50200264285148
 21
-51.93155573529027
  0
LINE
  5
EA
100
AcDbEntity
  8
40 Inner Bezel
  6
ByLayer
 62
  256
370
   -1
100
AcDbLine
 10
60.50200264285148
 20
-51.93155573529027
 11
50.87274524383297
 21
-48.80282126490909
  0
ARC
  5
EB
100
AcDbEntity
  8
10 Inner Surface of the Outer Wall
  6
ByLayer
 62
  256
370
   -1
100
AcDbCircle
 10
-3.020815395432649e-13
 20
-266.2429999999995
 40
309.3959999999994
100
AcDbArc
 50
92.35395331069218
 51
101.9690912538288
  0
ARC
  5
EC
100
AcDbEntity
  8
10 Inner Surface of the Outer Wall
  6
ByLayer
 62
  256
370
   -1
100
AcDbCircle
 10
-3.020815395432649e-13
 20
-266.2429999999995
 40
309.3959999999994
100
AcDbArc
 50
102.7178534907126
 51
102.7959704400729
  0
ARC
  5
ED
100
AcDbEntity
  8
10 Inner Surface of the Outer Wall
  6
ByLayer
 62
  256
370
   -1
100
AcDbCircle
 10
-65.8622
 20
34.731
 40
2.399946690619704
100
AcDbArc
 50
44.95255913578129
 51
159.7343856087173
  0
ARC
  5
EE
100
AcDbEntity
  8
10 Inner Surface of the Outer Wall
  6
ByLayer
 62
  256
370
   -1
100
AcDbCircle
 10
-3.020815395432649e-13
 20
-266.2429999999995
 40
309.3959999999994
100
AcDbArc
 50
77.20402955992698
 51
81.18115244246239
  0
ARC
  5
EF
100
AcDbEntity
  8
10 Inner Surface of the Outer Wall
  6
ByLayer
 62
  256
370
   -1
100
AcDbCircle
 10
-3.020815395432649e-13
 20
-266.2429999999995
 40
309.3959999999994
100
AcDbArc
 50
81.92992553250683
 51
91.60518022064583
  0
ARC
  5
F0
100
AcDbEntity
  8
10 Inner Surface of the Outer Wall
  6
ByLayer
 62
  256
370
   -1
100
AcDbCircle
 10
45.24409816618731
 20
38.51283144072615
 40
2.399999999999996
100
AcDbArc
 50
24.16531696230295
 51
138.9457610126663
  0
LINE
  5
F1
100
AcDbEntity
  8
10 Inner Surface of the Outer Wall
  6
ByLayer
 62
  256
370
   -1
100
AcDbLine
 10
59.11893455474992
 20
-55.16278244988197
 11
59.6105
 21
-55.3225
  0
LINE
  5
F2
100
AcDbEntity
  8
10 Inner Surface of the Outer Wall
  6
ByLayer
 62
  256
370
   -1
100
AcDbLine
 10
49.7895797851269
 20
-52.13152445080081
 11
55.28162540579294
 21
-53.91597874909472
  0
ARC
  5
F3
100
AcDbEntity
  8
10 Inner Surface of the Outer Wall
  6
ByLayer
 62
  256
370
   -1
100
AcDbCircle
 10
57.602
 20
-53.303
 40
2.399975250764983
100
AcDbArc
 50
194.7979073558341
 51
309.2024605931337
  0
LINE
  5
F4
100
AcDbEntity
  8
10 Inner Surface of the Outer Wall
  6
ByLayer
 62
  256
370
   -1
100
AcDbLine
 10
-8.556075899816875
 20
-43.15339999999998
 11
-5.964999999996234
 21
-43.1534
  0
LINE
  5
F5
100
AcDbEntity
  8
10 Inner Surface of the Outer Wall
  6
ByLayer
 62
  256
370
   -1
100
AcDbLine
 10
-15.81858190222588
 20
-43.15339999999995
 11
-12.59092410018302
 21
-43.15339999999996
  0
ARC
  5
F6
100
AcDbEntity
  8
10 Inner Surface of the Outer Wall
  6
ByLayer
 62
  256
370
   -1
100
AcDbCircle
 10
-10.5735
 20
-41.8534
 40
2.399999999999991
100
AcDbArc
 50
212.7971682958252
 51
327.2028317041742
  0
ARC
  5
F7
100
AcDbEntity
  8
10 Inner Surface of the Outer Wall
  6
ByLayer
 62
  256
370
   -1
100
AcDbCircle
 10
7.312220000004466
 20
159.5310000000173
 40
204.0000000000177
100
AcDbArc
 50
249.4177370307056
 51
263.4894428850113
  0
ARC
  5
F8
100
AcDbEntity
  8
10 Inner Surface of the Outer Wall
  6
ByLayer
 62
  256
370
   -1
100
AcDbCircle
 10
7.312220000004466
 20
159.5310000000173
 40
204.0000000000177
100
AcDbArc
 50
248.1763485747726
 51
248.280870042789
  0
ARC
  5
F9
100
AcDbEntity
  8
10 Inner Surface of the Outer Wall
  6
ByLayer
 62
  256
370
   -1
100
AcDbCircle
 10
-65.82643248597918
 20
-29.51404096255775
 40
2.399999999999987
100
AcDbArc
 50
191.3618008398686
 51
306.3368062336252
  0
ARC
  5
FA
100
AcDbEntity
  8
40 Inner Bezel
  6
ByLayer
 62
  256
370
   -1
100
AcDbCircle
 10
-6.227257084510629
 20
-222.3993746539184
 40
182.7462
100
AcDbArc
 50
71.79274468374655
 51
90.08255832246913
  0
ARC
  5
FB
100
AcDbEntity
  8
guildes
  6
ByLayer
 62
  256
370
   -1
100
AcDbCircle
 10
-4.1922e-13
 20
-266.243
 40
311.396
100
AcDbArc
 50
75.0722444558275
 51
103.7479482233722
  0
LINE
  5
FC
100
AcDbEntity
  8
00 External Edge
  6
ByLayer
 62
  256
370
   -1
100
AcDbLine
 10
70.52500000000001
 20
-28.20328849920908
 11
70.52500000000001
 21
37.0616211171203
  0
ARC
  5
FD
100
AcDbEntity
  8
00 External Edge
  6
ByLayer
 62
  256
370
   -1
100
AcDbCircle
 10
3.163336259603966e-11
 20
-266.2429999998375
 40
311.3959999998344
100
AcDbArc
 50
76.91007083515967
 51
103.0899291648523
  0
LINE
  5
FE
100
AcDbEntity
  8
guildes
  6
ByLayer
 62
  256
370
   -1
100
AcDbLine
 10
-5.965
 20
-45.1534
 11
-15.7901
 21
-45.1534
  0
ARC
  5
FF
100
AcDbEntity
  8
guildes
  6
ByLayer
 62
  256
370
   -1
100
AcDbCircle
 10
7.312220000000991
 20
159.5310000000039
 40
204.500000000004
100
AcDbArc
 50
245.5787152476478
 51
265.2689068366235
  0
LINE
  5
100
100
AcDbEntity
  8
00 External Edge
  6
ByLayer
 62
  256
370
   -1
100
AcDbLine
 10
60.89457747062255
 20
-57.8426813739157
 11
47.87304433142485
 21
-53.61172878184085
  0
ARC
  5
101
100
AcDbEntity
  8
00 External Edge
  6
ByLayer
 62
  256
370
   -1
100
AcDbCircle
 10
-6.228570000001913
 20
-222.3980000000106
 40
177.245
100
AcDbArc
 50
72.22761700767694
 51
89.87827474152024
  0
LINE
  5
102
100
AcDbEntity
  8
00 External Edge
  6
ByLayer
 62
  256
370
   -1
100
AcDbLine
 10
-15.93205664249189
 20
-45.1534
 11
-5.852012120999998
 21
-45.15339999999999
  0
ARC
  5
103
100
AcDbEntity
  8
00 External Edge
  6
ByLayer
 62
  256
370
   -1
100
AcDbCircle
 10
7.312220000004466
 20
159.5310000000173
 40
206
100
AcDbArc
 50
247.7993938096511
 51
263.5211585004022
  0
LINE
  5
104
100
AcDbEntity
  8
00 External Edge
  6
ByLayer
 62
  256
370
   -1
100
AcDbLine
 10
-70.52500000000001
 20
-31.19751696236798
 11
-70.52500000000001
 21
37.06162111710559
  0
LINE
  5
105
100
AcDbEntity
  8
00 External Edge
  6
ByLayer
 62
  256
370
   -1
100
AcDbLine
 10
60.89457747062256
 20
-57.8426813739157
 11
70.52500000000001
 21
-28.20328849920909
  0
LWPOLYLINE
  5
106
100
AcDbEntity
  8
36 Nut Pockets
  6
ByLayer
 62
  256
370
   -1
100
AcDbPolyline
 90
    6
 70
    1
 43
0
 10
44.35319356228949
 20
40.76811168645032
 10
42.8645030639746
 20
38.89284325517816
 10
42.56680042068926
 20
36.77859416661597
 10
47.30209771255755
 20
36.07559119366736
 10
47.63146069764706
 20
38.18513958566845
 10
46.75177584968876
 20
40.41201758291225
  0
LWPOLYLINE
  5
107
100
AcDbEntity
  8
36 Nut Pockets
  6
ByLayer
 62
  256
370
   -1
100
AcDbPolyline
 90
    6
 70
    1
 43
0
 10
-8.235335623982198
 20
41.7787972612278
 10
-9.503414651178581
 20
43.80975926198078
 10
-11.92683864190593
 20
43.7259967335604
 10
-13.05166381508065
 20
41.61232708162559
 10
-12.96191860909867
 20
39.47910861385717
 10
-8.177578718419957
 20
39.64447315906226
  0
LWPOLYLINE
  5
108
100
AcDbEntity
  8
36 Nut Pockets
  6
ByLayer
 62
  256
370
   -1
100
AcDbPolyline
 90
    6
 70
    1
 43
0
 10
-67.49550436533633
 20
36.52322231039177
 10
-68.22173021348644
 20
34.24168179841602
 10
-67.74968414910587
 20
32.15941092007895
 10
-63.07792239395177
 20
33.18177227457629
 10
-63.51690581120032
 20
35.26221309647999
 10
-65.12644454764916
 20
37.04164381435562
  0
LWPOLYLINE
  5
109
100
AcDbEntity
  8
36 Nut Pockets
  6
ByLayer
 62
  256
370
   -1
100
AcDbPolyline
 90
    6
 70
    1
 43
0
 10
-67.71491850847801
 20
-31.03509998272314
 10
-65.45339974510992
 20
-31.91004734281628
 10
-63.58815661379947
 20
-30.40770903801529
 10
-62.85715160191765
 20
-28.39739206833039
 10
-67.30277186859935
 20
-26.67703560710733
 10
-68.07906951742183
 20
-28.69614137342315
  0
LWPOLYLINE
  5
10A
100
AcDbEntity
  8
36 Nut Pockets
  6
ByLayer
 62
  256
370
   -1
100
AcDbPolyline
 90
    6
 70
    1
 43
0
 10
55.95959850349668
 20
-50.56108623403158
 10
55.30238377147391
 20
-52.5837851951671
 10
55.79996742412301
 20
-54.92552941236723
 10
58.10616171270284
 20
-55.67485607704027
 10
59.86528586229969
 20
-54.0909319754369
 10
60.54237965639217
 20
-52.05013929493547
  0
LWPOLYLINE
  5
10B
100
AcDbEntity
  8
36 Nut Pockets
  6
ByLayer
 62
  256
370
   -1
100
AcDbPolyline
 90
    6
 70
    1
 43
0
 10
-9.361064434701792
 20
-43.95339999999999
 10
-8.164098923241506
 20
-41.88019491924312
 10
-8.164098923241506
 20
-39.75324548791406
 10
-12.98290107675849
 20
-39.75334521106497
 10
-12.98290107675849
 20
-41.88019491924311
 10
-11.7859355652982
 20
-43.95339999999999
  0
LINE
  5
10C
100
AcDbEntity
  8
40 Inner Bezel
  6
ByLayer
 62
  256
370
   -1
100
AcDbLine
 10
-6.490578652272102
 20
-39.65336436589061
 11
-16.08831978578585
 21
-39.65336436589059
  0
CIRCLE
  5
10D
100
AcDbEntity
  8
35 Screw Hole
  6
ByLayer
 62
  256
370
   -1
100
AcDbCircle
 10
-10.642586169045
 20
41.66913125766001
 40
1.2
  0
CIRCLE
  5
10E
100
AcDbEntity
  8
35 Screw Hole
  6
ByLayer
 62
  256
370
   -1
100
AcDbCircle
 10
45.24409816618731
 20
38.51283144072615
 40
1.2
  0
CIRCLE
  5
10F
100
AcDbEntity
  8
35 Screw Hole
  6
ByLayer
 62
  256
370
   -1
100
AcDbCircle
 10
57.602
 20
-53.303
 40
1.2
  0
CIRCLE
  5
110
100
AcDbEntity
  8
35 Screw Hole
  6
ByLayer
 62
  256
370
   -1
100
AcDbCircle
 10
-10.5735
 20
-41.8534
 40
1.2
  0
CIRCLE
  5
111
100
AcDbEntity
  8
35 Screw Hole
  6
ByLayer
 62
  256
370
   -1
100
AcDbCircle
 10
-65.82643248597918
 20
-29.51404096255775
 40
1.2
  0
CIRCLE
  5
112
100
AcDbEntity
  8
35 Screw Hole
  6
ByLayer
 62
  256
370
   -1
100
AcDbCircle
 10
-65.8622
 20
34.731
 40
1.2
  0
ARC
  5
113
100
AcDbEntity
  8
50 ProMicro Connector Cut
  6
ByLayer
 62
  256
370
   -1
100
AcDbCircle
 10
57.67628021421416
 20
59.91366458960192
 40
30
100
AcDbArc
 50
254.5339900465796
 51
285.4660099534206
  0
ARC
  5
114
100
AcDbEntity
  8
50 ProMicro Connector Cut
  6
ByLayer
 62
  256
370
   -1
100
AcDbCircle
 10
3.26387805671402e-11
 20
-266.2429999998388
 40
311.3959999998356
100
AcDbArc
 50
77.82436119426011
 51
80.82051807669886
  0
LINE
  5
115
100
AcDbEntity
  8
50 ProMicro Connector Cut
  6
ByLayer
 62
  256
370
   -1
100
AcDbLine
 10
65.67628021421416
 20
31
 11
65.67628021421416
 21
38.14835177140623
  0
LINE
  5
116
100
AcDbEntity
  8
50 ProMicro Connector Cut
  6
ByLayer
 62
  256
370
   -1
100
AcDbLine
 10
49.67628021421416
 20
31
 11
49.67628021421415
 21
41.16509358258423
  0
LINE
  5
117
100
AcDbEntity
  8
60 ProMicro Edge Cut
  6
ByLayer
 62
  256
370
   -1
100
AcDbLine
 10
51.17628021421416
 20
34
 11
67.02500000000005
 21
34
  0
LINE
  5
118
100
AcDbEntity
  8
60 ProMicro Edge Cut
  6
ByLayer
 62
  256
370
   -1
100
AcDbLine
 10
51.17628021421416
 20
34
 11
51.17628021421415
 21
26
  0
LINE
  5
119
100
AcDbEntity
  8
60 ProMicro Edge Cut
  6
ByLayer
 62
  256
370
   -1
100
AcDbLine
 10
51.17628021421415
 20
26
 11
67.02500000000003
 21
26
  0
LINE
  5
11A
100
AcDbEntity
  8
60 ProMicro Edge Cut
  6
ByLayer
 62
  256
370
   -1
100
AcDbLine
 10
67.02500000000003
 20
26
 11
67.02500000000005
 21
34
  0
ENDSEC
  0
SECTION
  2
OBJECTS
  0
DICTIONARY
  5
C
330
0
100
AcDbDictionary
281
    1
  3
ACAD_GROUP
350
D
  0
DICTIONARY
  5
D
330
C
100
AcDbDictionary
281
    1
  0
PLOTSETTINGS
  5
11B
100
AcDbPlotSettings
  6
1x1
 40
0
 41
0
 42
0
 43
0
  0
ENDSEC
  0
EOF
