999
dxfrw 0.6.3
  0
SECTION
  2
HEADER
  9
$ACADVER
  1
AC1021
  9
$DWGCODEPAGE
  3
ANSI_1252
  9
$INSBASE
 10
0
 20
0
 30
0
  9
$EXTMIN
 10
0.003278964193000888
 20
-89.5635
 30
0
  9
$EXTMAX
 10
133.355
 20
1.06083
 30
0
  9
$LIMMIN
 10
0
 20
0
  9
$LIMMAX
 10
420
 20
297
  9
$ORTHOMODE
 70
    0
  9
$REGENMODE
 70
    1
  9
$FILLMODE
 70
    1
  9
$QTEXTMODE
 70
    0
  9
$MIRRTEXT
 70
    1
  9
$LTSCALE
 40
1
  9
$ATTMODE
 70
    1
  9
$TEXTSIZE
 40
2.5
  9
$TRACEWID
 40
1
  9
$TEXTSTYLE
  7
Standard
  9
$CLAYER
  8
80 GUIDE
  9
$CELTYPE
  6
ByLayer
  9
$CECOLOR
 62
  256
  9
$CELTSCALE
 40
1
  9
$DISPSILH
 70
    0
  9
$DIMSCALE
 40
1
  9
$DIMASZ
 40
2.5
  9
$DIMEXO
 40
0.625
  9
$DIMDLI
 40
3.75
  9
$DIMRND
 40
0
  9
$DIMDLE
 40
0
  9
$DIMEXE
 40
1.25
  9
$DIMTP
 40
0
  9
$DIMTM
 40
0
  9
$DIMTXT
 40
2.5
  9
$DIMCEN
 40
2.5
  9
$DIMTSZ
 40
0
  9
$DIMTOL
 70
    0
  9
$DIMLIM
 70
    0
  9
$DIMTIH
 70
    0
  9
$DIMTOH
 70
    0
  9
$DIMSE1
 70
    0
  9
$DIMSE2
 70
    0
  9
$DIMTAD
 70
    1
  9
$DIMZIN
 70
    8
  9
$DIMBLK
  1

  9
$DIMASO
 70
    1
  9
$DIMSHO
 70
    1
  9
$DIMPOST
  1

  9
$DIMAPOST
  1

  9
$DIMALT
 70
    0
  9
$DIMALTD
 70
    3
  9
$DIMALTF
 40
0.03937007874
  9
$DIMLFAC
 40
1
  9
$DIMTOFL
 70
    1
  9
$DIMTVP
 40
0
  9
$DIMTIX
 70
    0
  9
$DIMSOXD
 70
    0
  9
$DIMSAH
 70
    0
  9
$DIMBLK1
  1

  9
$DIMBLK2
  1

  9
$DIMSTYLE
  2
ISO-25
  9
$DIMCLRD
 70
    0
  9
$DIMCLRE
 70
    0
  9
$DIMCLRT
 70
    0
  9
$DIMTFAC
 40
1
  9
$DIMGAP
 40
0.625
  9
$DIMJUST
 70
    0
  9
$DIMSD1
 70
    0
  9
$DIMSD2
 70
    0
  9
$DIMTOLJ
 70
    0
  9
$DIMTZIN
 70
    8
  9
$DIMALTZ
 70
    0
  9
$DIMALTTZ
 70
    0
  9
$DIMUPT
 70
    0
  9
$DIMDEC
 70
    2
  9
$DIMTDEC
 70
    2
  9
$DIMALTU
 70
    2
  9
$DIMALTTD
 70
    3
  9
$DIMTXSTY
  7
Standard
  9
$DIMAUNIT
 70
    0
  9
$DIMADEC
 70
    0
  9
$DIMALTRND
 40
0
  9
$DIMAZIN
 70
    0
  9
$DIMDSEP
 70
   44
  9
$DIMATFIT
 70
    3
  9
$DIMFRAC
 70
    0
  9
$DIMLDRBLK
  1

  9
$DIMLUNIT
 70
    2
  9
$DIMLWD
 70
   -2
  9
$DIMLWE
 70
   -2
  9
$DIMTMOVE
 70
    0
  9
$DIMFXL
 40
1
  9
$DIMFXLON
 70
    0
  9
$DIMJOGANG
 40
0.785398163397
  9
$DIMTFILL
 70
    0
  9
$DIMTFILLCLR
 70
    0
  9
$DIMARCSYM
 70
    0
  9
$DIMLTYPE
  6

  9
$DIMLTEX1
  6

  9
$DIMLTEX2
  6

  9
$LUNITS
 70
    2
  9
$LUPREC
 70
    4
  9
$SKETCHINC
 40
1
  9
$FILLETRAD
 40
10
  9
$AUNITS
 70
    0
  9
$AUPREC
 70
    2
  9
$MENU
  1
.
  9
$ELEVATION
 40
0
  9
$PELEVATION
 40
0
  9
$THICKNESS
 40
0
  9
$LIMCHECK
 70
    0
  9
$CHAMFERA
 40
0
  9
$CHAMFERB
 40
0
  9
$CHAMFERC
 40
0
  9
$CHAMFERD
 40
0
  9
$SKPOLY
 70
    0
  9
$USRTIMER
 70
    1
  9
$ANGBASE
 50
0
  9
$ANGDIR
 70
    0
  9
$PDMODE
 70
    0
  9
$PDSIZE
 40
0
  9
$PLINEWID
 40
0
  9
$SPLFRAME
 70
    0
  9
$SPLINETYPE
 70
    6
  9
$SPLINESEGS
 70
    8
  9
$HANDSEED
  5
20000
  9
$SURFTAB1
 70
    6
  9
$SURFTAB2
 70
    6
  9
$SURFTYPE
 70
    6
  9
$SURFU
 70
    6
  9
$SURFV
 70
    6
  9
$UCSBASE
  2

  9
$UCSNAME
  2

  9
$UCSORG
 10
0
 20
0
 30
0
  9
$UCSXDIR
 10
1
 20
0
 30
0
  9
$UCSYDIR
 10
0
 20
1
 30
0
  9
$UCSORTHOREF
  2

  9
$UCSORTHOVIEW
 70
    0
  9
$UCSORGTOP
 10
0
 20
0
 30
0
  9
$UCSORGBOTTOM
 10
0
 20
0
 30
0
  9
$UCSORGLEFT
 10
0
 20
0
 30
0
  9
$UCSORGRIGHT
 10
0
 20
0
 30
0
  9
$UCSORGFRONT
 10
0
 20
0
 30
0
  9
$UCSORGBACK
 10
0
 20
0
 30
0
  9
$PUCSBASE
  2

  9
$PUCSNAME
  2

  9
$PUCSORG
 10
0
 20
0
 30
0
  9
$PUCSXDIR
 10
1
 20
0
 30
0
  9
$PUCSYDIR
 10
0
 20
1
 30
0
  9
$PUCSORTHOREF
  2

  9
$PUCSORTHOVIEW
 70
    0
  9
$PUCSORGTOP
 10
0
 20
0
 30
0
  9
$PUCSORGBOTTOM
 10
0
 20
0
 30
0
  9
$PUCSORGLEFT
 10
0
 20
0
 30
0
  9
$PUCSORGRIGHT
 10
0
 20
0
 30
0
  9
$PUCSORGFRONT
 10
0
 20
0
 30
0
  9
$PUCSORGBACK
 10
0
 20
0
 30
0
  9
$USERI1
 70
    0
  9
$USERI2
 70
    0
  9
$USERI3
 70
    0
  9
$USERI4
 70
    0
  9
$USERI5
 70
    0
  9
$USERR1
 40
0
  9
$USERR2
 40
0
  9
$USERR3
 40
0
  9
$USERR4
 40
0
  9
$USERR5
 40
0
  9
$WORLDVIEW
 70
    1
  9
$SHADEDGE
 70
    3
  9
$SHADEDIF
 70
   70
  9
$TILEMODE
 70
    1
  9
$MAXACTVP
 70
   64
  9
$PINSBASE
 10
0
 20
0
 30
0
  9
$PLIMCHECK
 70
    0
  9
$PEXTMIN
 10
1e+20
 20
1e+20
 30
1e+20
  9
$PEXTMAX
 10
-1e+20
 20
-1e+20
 30
-1e+20
  9
$GRIDMODE
 70
    0
  9
$SNAPSTYLE
 70
    0
  9
$PLIMMIN
 10
0
 20
0
  9
$PLIMMAX
 10
420
 20
297
  9
$UNITMODE
 70
    0
  9
$VISRETAIN
 70
    1
  9
$PLINEGEN
 70
    0
  9
$PSLTSCALE
 70
    1
  9
$TREEDEPTH
 70
 3020
  9
$CMLSTYLE
  2
Standard
  9
$CMLJUST
 70
    0
  9
$CMLSCALE
 40
20
  9
$PROXYGRAPHICS
 70
    1
  9
$MEASUREMENT
 70
    1
  9
$CELWEIGHT
370
   -1
  9
$ENDCAPS
280
    0
  9
$JOINSTYLE
280
    0
  9
$LWDISPLAY
290
    0
  9
$INSUNITS
 70
    4
  9
$HYPERLINKBASE
  1

  9
$STYLESHEET
  1

  9
$XEDIT
290
    1
  9
$CEPSNTYPE
380
    0
  9
$PSTYLEMODE
290
    1
  9
$EXTNAMES
290
    1
  9
$PSVPSCALE
 40
0
  9
$OLESTARTUP
290
    0
  9
$SORTENTS
280
  127
  9
$INDEXCTL
280
    0
  9
$HIDETEXT
280
    1
  9
$XCLIPFRAME
290
    1
  9
$HALOGAP
280
    0
  9
$OBSCOLOR
 70
  257
  9
$OBSLTYPE
280
    0
  9
$INTERSECTIONDISPLAY
280
    0
  9
$INTERSECTIONCOLOR
 70
  257
  9
$DIMASSOC
280
    2
  9
$PROJECTNAME
  1

  9
$CAMERADISPLAY
290
    0
  9
$LENSLENGTH
 40
50
  9
$CAMERAHEIGHT
 40
0
  9
$STEPSPERSEC
 40
24
  9
$STEPSIZE
 40
100
  9
$3DDWFPREC
 40
2
  9
$PSOLWIDTH
 40
0.005
  9
$PSOLHEIGHT
 40
0.08
  9
$LOFTANG1
 40
1.570796326795
  9
$LOFTANG2
 40
1.570796326795
  9
$LOFTMAG1
 40
0
  9
$LOFTMAG2
 40
0
  9
$LOFTPARAM
 70
    7
  9
$LOFTNORMALS
280
    1
  9
$LATITUDE
 40
37.795
  9
$LONGITUDE
 40
-122.394
  9
$NORTHDIRECTION
 40
0
  9
$TIMEZONE
 70
-8000
  9
$LIGHTGLYPHDISPLAY
280
    1
  9
$TILEMODELIGHTSYNCH
280
    1
  9
$SOLIDHIST
280
    0
  9
$SHOWHIST
280
    1
  9
$DWFFRAME
280
    2
  9
$DGNFRAME
280
    2
  9
$REALWORLDSCALE
290
    1
  9
$INTERFERECOLOR
 62
  256
  9
$CSHADOW
280
    0
  9
$SHADOWPLANELOCATION
 40
0
  0
ENDSEC
  0
SECTION
  2
CLASSES
  0
ENDSEC
  0
SECTION
  2
TABLES
  0
TABLE
  2
VPORT
  5
8
330
0
100
AcDbSymbolTable
 70
    1
  0
VPORT
  5
31
330
2
100
AcDbSymbolTableRecord
100
AcDbViewportTableRecord
  2
*ACTIVE
 70
    0
 10
0
 20
0
 11
1
 21
1
 12
82.03361178761399
 22
7.230664627659576
 13
0
 23
0
 14
10
 24
10
 15
10
 25
10
 16
0
 26
0
 36
1
 17
0
 27
0
 37
0
 40
116.7235861322189
 41
1.671091445427729
 42
50
 43
0
 44
0
 50
0
 51
0
 71
    0
 72
  100
 73
    1
 74
    3
 75
    0
 76
    0
 77
    0
 78
    0
281
    0
 65
    1
110
0
120
0
130
0
111
1
121
0
131
0
112
0
122
1
132
0
 79
    0
146
0
348
10020
 60
    7
 61
    5
292
1
282
    1
141
0
142
0
 63
  250
421
3358443
  0
ENDTAB
  0
TABLE
  2
LTYPE
  5
5
330
0
100
AcDbSymbolTable
 70
    4
  0
LTYPE
  5
14
330
5
100
AcDbSymbolTableRecord
100
AcDbLinetypeTableRecord
  2
ByBlock
 70
    0
  3

 72
   65
 73
    0
 40
0
  0
LTYPE
  5
15
330
5
100
AcDbSymbolTableRecord
100
AcDbLinetypeTableRecord
  2
ByLayer
 70
    0
  3

 72
   65
 73
    0
 40
0
  0
LTYPE
  5
16
330
5
100
AcDbSymbolTableRecord
100
AcDbLinetypeTableRecord
  2
Continuous
 70
    0
  3
Solid line
 72
   65
 73
    0
 40
0
  0
LTYPE
  5
32
330
5
100
AcDbSymbolTableRecord
100
AcDbLinetypeTableRecord
  2
DOT
 70
    0
  3
Dot . . . . . . . . . . . . . . . . . . . . . .
 72
   65
 73
    2
 40
6.35
 49
0
 74
    0
 49
-6.35
 74
    0
  0
LTYPE
  5
33
330
5
100
AcDbSymbolTableRecord
100
AcDbLinetypeTableRecord
  2
DOTTINY
 70
    0
  3
Dot (.15x) .....................................
 72
   65
 73
    2
 40
0.9525
 49
0
 74
    0
 49
-0.9525
 74
    0
  0
LTYPE
  5
34
330
5
100
AcDbSymbolTableRecord
100
AcDbLinetypeTableRecord
  2
DOT2
 70
    0
  3
Dot (.5x) .....................................
 72
   65
 73
    2
 40
3.175
 49
0
 74
    0
 49
-3.175
 74
    0
  0
LTYPE
  5
35
330
5
100
AcDbSymbolTableRecord
100
AcDbLinetypeTableRecord
  2
DOTX2
 70
    0
  3
Dot (2x) .  .  .  .  .  .  .  .  .  .  .  .  .
 72
   65
 73
    2
 40
12.7
 49
0
 74
    0
 49
-12.7
 74
    0
  0
LTYPE
  5
36
330
5
100
AcDbSymbolTableRecord
100
AcDbLinetypeTableRecord
  2
DASHED
 70
    0
  3
Dashed _ _ _ _ _ _ _ _ _ _ _ _ _ _ _ _ _
 72
   65
 73
    2
 40
19.05
 49
12.7
 74
    0
 49
-6.35
 74
    0
  0
LTYPE
  5
37
330
5
100
AcDbSymbolTableRecord
100
AcDbLinetypeTableRecord
  2
DASHEDTINY
 70
    0
  3
Dashed (.15x) _ _ _ _ _ _ _ _ _ _ _ _ _ _ _ _ _
 72
   65
 73
    2
 40
2.8575
 49
1.905
 74
    0
 49
-0.9525
 74
    0
  0
LTYPE
  5
38
330
5
100
AcDbSymbolTableRecord
100
AcDbLinetypeTableRecord
  2
DASHED2
 70
    0
  3
Dashed (.5x) _ _ _ _ _ _ _ _ _ _ _ _ _ _ _ _ _
 72
   65
 73
    2
 40
9.524999999999999
 49
6.35
 74
    0
 49
-3.175
 74
    0
  0
LTYPE
  5
39
330
5
100
AcDbSymbolTableRecord
100
AcDbLinetypeTableRecord
  2
DASHEDX2
 70
    0
  3
Dashed (2x) ____  ____  ____  ____  ____  ___
 72
   65
 73
    2
 40
38.09999999999999
 49
25.4
 74
    0
 49
-12.7
 74
    0
  0
LTYPE
  5
3A
330
5
100
AcDbSymbolTableRecord
100
AcDbLinetypeTableRecord
  2
DASHDOT
 70
    0
  3
Dash dot __ . __ . __ . __ . __ . __ . __ . __
 72
   65
 73
    4
 40
25.4
 49
12.7
 74
    0
 49
-6.35
 74
    0
 49
0
 74
    0
 49
-6.35
 74
    0
  0
LTYPE
  5
3B
330
5
100
AcDbSymbolTableRecord
100
AcDbLinetypeTableRecord
  2
DASHDOTTINY
 70
    0
  3
Dash dot (.15x) _._._._._._._._._._._._._._._.
 72
   65
 73
    4
 40
3.81
 49
1.905
 74
    0
 49
-0.9525
 74
    0
 49
0
 74
    0
 49
-0.9525
 74
    0
  0
LTYPE
  5
3C
330
5
100
AcDbSymbolTableRecord
100
AcDbLinetypeTableRecord
  2
DASHDOT2
 70
    0
  3
Dash dot (.5x) _._._._._._._._._._._._._._._.
 72
   65
 73
    4
 40
12.7
 49
6.35
 74
    0
 49
-3.175
 74
    0
 49
0
 74
    0
 49
-3.175
 74
    0
  0
LTYPE
  5
3D
330
5
100
AcDbSymbolTableRecord
100
AcDbLinetypeTableRecord
  2
DASHDOTX2
 70
    0
  3
Dash dot (2x) ____  .  ____  .  ____  .  ___
 72
   65
 73
    4
 40
50.8
 49
25.4
 74
    0
 49
-12.7
 74
    0
 49
0
 74
    0
 49
-12.7
 74
    0
  0
LTYPE
  5
3E
330
5
100
AcDbSymbolTableRecord
100
AcDbLinetypeTableRecord
  2
DIVIDE
 70
    0
  3
Divide ____ . . ____ . . ____ . . ____ . . ____
 72
   65
 73
    6
 40
31.75
 49
12.7
 74
    0
 49
-6.35
 74
    0
 49
0
 74
    0
 49
-6.35
 74
    0
 49
0
 74
    0
 49
-6.35
 74
    0
  0
LTYPE
  5
3F
330
5
100
AcDbSymbolTableRecord
100
AcDbLinetypeTableRecord
  2
DIVIDETINY
 70
    0
  3
Divide (.15x) __..__..__..__..__..__..__..__.._
 72
   65
 73
    6
 40
4.7625
 49
1.905
 74
    0
 49
-0.9525
 74
    0
 49
0
 74
    0
 49
-0.9525
 74
    0
 49
0
 74
    0
 49
-0.9525
 74
    0
  0
LTYPE
  5
40
330
5
100
AcDbSymbolTableRecord
100
AcDbLinetypeTableRecord
  2
DIVIDE2
 70
    0
  3
Divide (.5x) __..__..__..__..__..__..__..__.._
 72
   65
 73
    6
 40
15.875
 49
6.35
 74
    0
 49
-3.175
 74
    0
 49
0
 74
    0
 49
-3.175
 74
    0
 49
0
 74
    0
 49
-3.175
 74
    0
  0
LTYPE
  5
41
330
5
100
AcDbSymbolTableRecord
100
AcDbLinetypeTableRecord
  2
DIVIDEX2
 70
    0
  3
Divide (2x) ________  .  .  ________  .  .  _
 72
   65
 73
    6
 40
63.5
 49
25.4
 74
    0
 49
-12.7
 74
    0
 49
0
 74
    0
 49
-12.7
 74
    0
 49
0
 74
    0
 49
-12.7
 74
    0
  0
LTYPE
  5
42
330
5
100
AcDbSymbolTableRecord
100
AcDbLinetypeTableRecord
  2
BORDER
 70
    0
  3
Border __ __ . __ __ . __ __ . __ __ . __ __ .
 72
   65
 73
    6
 40
44.45
 49
12.7
 74
    0
 49
-6.35
 74
    0
 49
12.7
 74
    0
 49
-6.35
 74
    0
 49
0
 74
    0
 49
-6.35
 74
    0
  0
LTYPE
  5
43
330
5
100
AcDbSymbolTableRecord
100
AcDbLinetypeTableRecord
  2
BORDERTINY
 70
    0
  3
Border (.15x) __.__.__.__.__.__.__.__.__.__.__.
 72
   65
 73
    6
 40
6.6675
 49
1.905
 74
    0
 49
-0.9525
 74
    0
 49
1.905
 74
    0
 49
-0.9525
 74
    0
 49
0
 74
    0
 49
-0.9525
 74
    0
  0
LTYPE
  5
44
330
5
100
AcDbSymbolTableRecord
100
AcDbLinetypeTableRecord
  2
BORDER2
 70
    0
  3
Border (.5x) __.__.__.__.__.__.__.__.__.__.__.
 72
   65
 73
    6
 40
22.225
 49
6.35
 74
    0
 49
-3.175
 74
    0
 49
6.35
 74
    0
 49
-3.175
 74
    0
 49
0
 74
    0
 49
-3.175
 74
    0
  0
LTYPE
  5
45
330
5
100
AcDbSymbolTableRecord
100
AcDbLinetypeTableRecord
  2
BORDERX2
 70
    0
  3
Border (2x) ____  ____  .  ____  ____  .  ___
 72
   65
 73
    6
 40
88.89999999999999
 49
25.4
 74
    0
 49
-12.7
 74
    0
 49
25.4
 74
    0
 49
-12.7
 74
    0
 49
0
 74
    0
 49
-12.7
 74
    0
  0
LTYPE
  5
46
330
5
100
AcDbSymbolTableRecord
100
AcDbLinetypeTableRecord
  2
CENTER
 70
    0
  3
Center ____ _ ____ _ ____ _ ____ _ ____ _ ____
 72
   65
 73
    4
 40
50.8
 49
31.75
 74
    0
 49
-6.35
 74
    0
 49
6.35
 74
    0
 49
-6.35
 74
    0
  0
LTYPE
  5
47
330
5
100
AcDbSymbolTableRecord
100
AcDbLinetypeTableRecord
  2
CENTERTINY
 70
    0
  3
Center (.15x) ___ _ ___ _ ___ _ ___ _ ___ _ ___
 72
   65
 73
    4
 40
7.619999999999999
 49
4.7625
 74
    0
 49
-0.9525
 74
    0
 49
0.9525
 74
    0
 49
-0.9525
 74
    0
  0
LTYPE
  5
48
330
5
100
AcDbSymbolTableRecord
100
AcDbLinetypeTableRecord
  2
CENTER2
 70
    0
  3
Center (.5x) ___ _ ___ _ ___ _ ___ _ ___ _ ___
 72
   65
 73
    4
 40
28.575
 49
19.05
 74
    0
 49
-3.175
 74
    0
 49
3.175
 74
    0
 49
-3.175
 74
    0
  0
LTYPE
  5
49
330
5
100
AcDbSymbolTableRecord
100
AcDbLinetypeTableRecord
  2
CENTERX2
 70
    0
  3
Center (2x) ________  __  ________  __  _____
 72
   65
 73
    4
 40
101.6
 49
63.5
 74
    0
 49
-12.7
 74
    0
 49
12.7
 74
    0
 49
-12.7
 74
    0
  0
ENDTAB
  0
TABLE
  2
LAYER
  5
2
330
0
100
AcDbSymbolTable
 70
    1
  0
LAYER
  5
10
330
2
100
AcDbSymbolTableRecord
100
AcDbLayerTableRecord
  2
0
 70
    0
 62
    7
  6
CONTINUOUS
370
   -3
390
F
  0
LAYER
  5
4A
330
2
100
AcDbSymbolTableRecord
100
AcDbLayerTableRecord
  2
50 CENTER
 70
    0
 62
    1
  6
CONTINUOUS
370
   -3
390
F
  0
LAYER
  5
4B
330
2
100
AcDbSymbolTableRecord
100
AcDbLayerTableRecord
  2
00 CUTOUT
 70
    0
 62
    7
  6
CONTINUOUS
370
   -3
390
F
  0
LAYER
  5
4C
330
2
100
AcDbSymbolTableRecord
100
AcDbLayerTableRecord
  2
99 Defpoints
 70
    0
 62
    7
  6
CONTINUOUS
290
0
370
   -3
390
F
  0
LAYER
  5
4D
330
2
100
AcDbSymbolTableRecord
100
AcDbLayerTableRecord
  2
80 GUIDE
 70
    1
 62
   96
420
32768
  6
DASHEDTINY
370
    0
390
F
  0
LAYER
  5
4E
330
2
100
AcDbSymbolTableRecord
100
AcDbLayerTableRecord
  2
60 KEYCAP_18
 70
    1
 62
    9
  6
CONTINUOUS
370
   -3
390
F
  0
LAYER
  5
4F
330
2
100
AcDbSymbolTableRecord
100
AcDbLayerTableRecord
  2
70 KEY_1U
 70
    1
 62
    8
  6
CONTINUOUS
370
   -3
390
F
  0
LAYER
  5
50
330
2
100
AcDbSymbolTableRecord
100
AcDbLayerTableRecord
  2
10 OUTLINE
 70
    0
 62
    7
  6
CONTINUOUS
370
    0
390
F
  0
ENDTAB
  0
TABLE
  2
STYLE
  5
3
330
0
100
AcDbSymbolTable
 70
    3
  0
STYLE
  5
51
330
2
100
AcDbSymbolTableRecord
100
AcDbTextStyleTableRecord
  2
Standard
 70
    0
 40
0
 41
1
 50
0
 71
    0
 42
1
  3
txt
  4

  0
ENDTAB
  0
TABLE
  2
VIEW
  5
6
330
0
100
AcDbSymbolTable
 70
    0
  0
ENDTAB
  0
TABLE
  2
UCS
  5
7
330
0
100
AcDbSymbolTable
 70
    0
  0
ENDTAB
  0
TABLE
  2
APPID
  5
9
330
0
100
AcDbSymbolTable
 70
    1
  0
APPID
  5
12
330
9
100
AcDbSymbolTableRecord
100
AcDbRegAppTableRecord
  2
ACAD
 70
    0
  0
APPID
  5
52
330
9
100
AcDbSymbolTableRecord
100
AcDbRegAppTableRecord
  2
LibreCad
 70
    0
  0
ENDTAB
  0
TABLE
  2
DIMSTYLE
  5
A
330
0
100
AcDbSymbolTable
 70
    1
100
AcDbDimStyleTable
 71
    1
  0
DIMSTYLE
105
53
330
A
100
AcDbSymbolTableRecord
100
AcDbDimStyleTableRecord
  2
Standard
 70
    0
 40
1
 41
2.5
 42
0.625
 43
0.38
 44
1.25
 45
0
 46
0
 47
0
 48
0
 49
1
140
2.5
141
0.09
142
0
143
25.4
144
1
145
0
146
1
147
0.625
148
0
 71
    0
 72
    0
 73
    0
 74
    1
 75
    0
 76
    0
 77
    0
 78
    8
 79
    0
170
    0
171
    2
172
    0
173
    0
174
    0
175
    0
176
    0
177
    0
178
    0
179
    0
271
    2
272
    4
273
    2
274
    2
275
    0
276
    0
277
    2
278
   44
279
    0
280
    0
281
    0
282
    0
283
    1
284
    0
285
    0
286
    0
288
    0
289
    3
340
Standard
341

371
   -2
372
   -2
  0
ENDTAB
  0
TABLE
  2
BLOCK_RECORD
  5
1
330
0
100
AcDbSymbolTable
 70
    2
  0
BLOCK_RECORD
  5
1F
330
1
100
AcDbSymbolTableRecord
100
AcDbBlockTableRecord
  2
*Model_Space
 70
    0
280
    1
281
    0
  0
BLOCK_RECORD
  5
1E
330
1
100
AcDbSymbolTableRecord
100
AcDbBlockTableRecord
  2
*Paper_Space
 70
    0
280
    1
281
    0
  0
ENDTAB
  0
ENDSEC
  0
SECTION
  2
BLOCKS
  0
BLOCK
  5
20
330
1F
100
AcDbEntity
  8
0
100
AcDbBlockBegin
  2
*Model_Space
 70
    0
 10
0
 20
0
 30
0
  3
*Model_Space
  1

  0
ENDBLK
  5
21
330
1F
100
AcDbEntity
  8
0
100
AcDbBlockEnd
  0
BLOCK
  5
1C
330
1B
100
AcDbEntity
  8
0
100
AcDbBlockBegin
  2
*Paper_Space
 70
    0
 10
0
 20
0
 30
0
  3
*Paper_Space
  1

  0
ENDBLK
  5
1D
330
1F
100
AcDbEntity
  8
0
100
AcDbBlockEnd
  0
ENDSEC
  0
SECTION
  2
ENTITIES
  0
LINE
  5
54
100
AcDbEntity
  8
00 CUTOUT
  6
ByLayer
 62
  256
370
   -1
100
AcDbLine
 10
2.529999999999999
 20
-10.14
 11
16.53
 21
-10.14
  0
LINE
  5
55
100
AcDbEntity
  8
00 CUTOUT
  6
ByLayer
 62
  256
370
   -1
100
AcDbLine
 10
16.53
 20
-10.14
 11
16.53
 21
-24.14
  0
LINE
  5
56
100
AcDbEntity
  8
00 CUTOUT
  6
ByLayer
 62
  256
370
   -1
100
AcDbLine
 10
16.53
 20
-24.14
 11
2.529999999999999
 21
-24.14
  0
LINE
  5
57
100
AcDbEntity
  8
00 CUTOUT
  6
ByLayer
 62
  256
370
   -1
100
AcDbLine
 10
2.529999999999999
 20
-24.14
 11
2.529999999999999
 21
-10.14
  0
LINE
  5
58
100
AcDbEntity
  8
70 KEY_1U
  6
ByLayer
 62
  256
370
   -1
100
AcDbLine
 10
0.004999999999999005
 20
-7.615
 11
19.055
 21
-7.615
  0
LINE
  5
59
100
AcDbEntity
  8
70 KEY_1U
  6
ByLayer
 62
  256
370
   -1
100
AcDbLine
 10
19.055
 20
-7.615
 11
19.055
 21
-26.665
  0
LINE
  5
5A
100
AcDbEntity
  8
70 KEY_1U
  6
ByLayer
 62
  256
370
   -1
100
AcDbLine
 10
19.055
 20
-26.665
 11
0.004999999999999005
 21
-26.665
  0
LINE
  5
5B
100
AcDbEntity
  8
70 KEY_1U
  6
ByLayer
 62
  256
370
   -1
100
AcDbLine
 10
0.004999999999999005
 20
-26.665
 11
0.004999999999999005
 21
-7.615
  0
LINE
  5
5C
100
AcDbEntity
  8
60 KEYCAP_18
  6
ByLayer
 62
  256
370
   -1
100
AcDbLine
 10
0.5299999999999994
 20
-8.140000000000001
 11
18.53
 21
-8.140000000000001
  0
LINE
  5
5D
100
AcDbEntity
  8
60 KEYCAP_18
  6
ByLayer
 62
  256
370
   -1
100
AcDbLine
 10
18.53
 20
-8.140000000000001
 11
18.53
 21
-26.14
  0
LINE
  5
5E
100
AcDbEntity
  8
60 KEYCAP_18
  6
ByLayer
 62
  256
370
   -1
100
AcDbLine
 10
18.53
 20
-26.14
 11
0.5299999999999994
 21
-26.14
  0
LINE
  5
5F
100
AcDbEntity
  8
60 KEYCAP_18
  6
ByLayer
 62
  256
370
   -1
100
AcDbLine
 10
0.5299999999999994
 20
-26.14
 11
0.5299999999999994
 21
-8.140000000000001
  0
LINE
  5
60
100
AcDbEntity
  8
50 CENTER
  6
ByLayer
 62
  256
370
   -1
100
AcDbLine
 10
8.529999999999999
 20
-17.14
 11
10.53
 21
-17.14
  0
LINE
  5
61
100
AcDbEntity
  8
50 CENTER
  6
ByLayer
 62
  256
370
   -1
100
AcDbLine
 10
9.529999999999999
 20
-18.14
 11
9.529999999999999
 21
-16.14
  0
LINE
  5
62
100
AcDbEntity
  8
00 CUTOUT
  6
ByLayer
 62
  256
370
   -1
100
AcDbLine
 10
21.58
 20
-10.14
 11
35.58
 21
-10.14
  0
LINE
  5
63
100
AcDbEntity
  8
00 CUTOUT
  6
ByLayer
 62
  256
370
   -1
100
AcDbLine
 10
35.58
 20
-10.14
 11
35.58
 21
-24.14
  0
LINE
  5
64
100
AcDbEntity
  8
00 CUTOUT
  6
ByLayer
 62
  256
370
   -1
100
AcDbLine
 10
35.58
 20
-24.14
 11
21.58
 21
-24.14
  0
LINE
  5
65
100
AcDbEntity
  8
00 CUTOUT
  6
ByLayer
 62
  256
370
   -1
100
AcDbLine
 10
21.58
 20
-24.14
 11
21.58
 21
-10.14
  0
LINE
  5
66
100
AcDbEntity
  8
70 KEY_1U
  6
ByLayer
 62
  256
370
   -1
100
AcDbLine
 10
19.055
 20
-7.615
 11
38.105
 21
-7.615
  0
LINE
  5
67
100
AcDbEntity
  8
70 KEY_1U
  6
ByLayer
 62
  256
370
   -1
100
AcDbLine
 10
38.105
 20
-7.615
 11
38.105
 21
-26.665
  0
LINE
  5
68
100
AcDbEntity
  8
70 KEY_1U
  6
ByLayer
 62
  256
370
   -1
100
AcDbLine
 10
38.105
 20
-26.665
 11
19.055
 21
-26.665
  0
LINE
  5
69
100
AcDbEntity
  8
70 KEY_1U
  6
ByLayer
 62
  256
370
   -1
100
AcDbLine
 10
19.055
 20
-26.665
 11
19.055
 21
-7.615
  0
LINE
  5
6A
100
AcDbEntity
  8
60 KEYCAP_18
  6
ByLayer
 62
  256
370
   -1
100
AcDbLine
 10
19.58
 20
-8.140000000000001
 11
37.58
 21
-8.140000000000001
  0
LINE
  5
6B
100
AcDbEntity
  8
60 KEYCAP_18
  6
ByLayer
 62
  256
370
   -1
100
AcDbLine
 10
37.58
 20
-8.140000000000001
 11
37.58
 21
-26.14
  0
LINE
  5
6C
100
AcDbEntity
  8
60 KEYCAP_18
  6
ByLayer
 62
  256
370
   -1
100
AcDbLine
 10
37.58
 20
-26.14
 11
19.58
 21
-26.14
  0
LINE
  5
6D
100
AcDbEntity
  8
60 KEYCAP_18
  6
ByLayer
 62
  256
370
   -1
100
AcDbLine
 10
19.58
 20
-26.14
 11
19.58
 21
-8.140000000000001
  0
LINE
  5
6E
100
AcDbEntity
  8
50 CENTER
  6
ByLayer
 62
  256
370
   -1
100
AcDbLine
 10
27.58
 20
-17.14
 11
29.58
 21
-17.14
  0
LINE
  5
6F
100
AcDbEntity
  8
50 CENTER
  6
ByLayer
 62
  256
370
   -1
100
AcDbLine
 10
28.58
 20
-18.14
 11
28.58
 21
-16.14
  0
LINE
  5
70
100
AcDbEntity
  8
00 CUTOUT
  6
ByLayer
 62
  256
370
   -1
100
AcDbLine
 10
40.62
 20
-4.43
 11
54.62
 21
-4.43
  0
LINE
  5
71
100
AcDbEntity
  8
00 CUTOUT
  6
ByLayer
 62
  256
370
   -1
100
AcDbLine
 10
54.62
 20
-4.43
 11
54.62
 21
-18.43
  0
LINE
  5
72
100
AcDbEntity
  8
00 CUTOUT
  6
ByLayer
 62
  256
370
   -1
100
AcDbLine
 10
54.62
 20
-18.43
 11
40.62
 21
-18.43
  0
LINE
  5
73
100
AcDbEntity
  8
00 CUTOUT
  6
ByLayer
 62
  256
370
   -1
100
AcDbLine
 10
40.62
 20
-18.43
 11
40.62
 21
-4.43
  0
LINE
  5
74
100
AcDbEntity
  8
70 KEY_1U
  6
ByLayer
 62
  256
370
   -1
100
AcDbLine
 10
38.095
 20
-1.904999999999999
 11
57.145
 21
-1.904999999999999
  0
LINE
  5
75
100
AcDbEntity
  8
70 KEY_1U
  6
ByLayer
 62
  256
370
   -1
100
AcDbLine
 10
57.145
 20
-1.904999999999999
 11
57.145
 21
-20.955
  0
LINE
  5
76
100
AcDbEntity
  8
70 KEY_1U
  6
ByLayer
 62
  256
370
   -1
100
AcDbLine
 10
57.145
 20
-20.955
 11
38.095
 21
-20.955
  0
LINE
  5
77
100
AcDbEntity
  8
70 KEY_1U
  6
ByLayer
 62
  256
370
   -1
100
AcDbLine
 10
38.095
 20
-20.955
 11
38.095
 21
-1.904999999999999
  0
LINE
  5
78
100
AcDbEntity
  8
60 KEYCAP_18
  6
ByLayer
 62
  256
370
   -1
100
AcDbLine
 10
38.62
 20
-2.43
 11
56.62
 21
-2.43
  0
LINE
  5
79
100
AcDbEntity
  8
60 KEYCAP_18
  6
ByLayer
 62
  256
370
   -1
100
AcDbLine
 10
56.62
 20
-2.43
 11
56.62
 21
-20.43
  0
LINE
  5
7A
100
AcDbEntity
  8
60 KEYCAP_18
  6
ByLayer
 62
  256
370
   -1
100
AcDbLine
 10
56.62
 20
-20.43
 11
38.62
 21
-20.43
  0
LINE
  5
7B
100
AcDbEntity
  8
60 KEYCAP_18
  6
ByLayer
 62
  256
370
   -1
100
AcDbLine
 10
38.62
 20
-20.43
 11
38.62
 21
-2.43
  0
LINE
  5
7C
100
AcDbEntity
  8
50 CENTER
  6
ByLayer
 62
  256
370
   -1
100
AcDbLine
 10
46.62
 20
-11.43
 11
48.62
 21
-11.43
  0
LINE
  5
7D
100
AcDbEntity
  8
50 CENTER
  6
ByLayer
 62
  256
370
   -1
100
AcDbLine
 10
47.62
 20
-12.43
 11
47.62
 21
-10.43
  0
LINE
  5
7E
100
AcDbEntity
  8
00 CUTOUT
  6
ByLayer
 62
  256
370
   -1
100
AcDbLine
 10
59.67
 20
-2.529999999999999
 11
73.67
 21
-2.529999999999999
  0
LINE
  5
7F
100
AcDbEntity
  8
00 CUTOUT
  6
ByLayer
 62
  256
370
   -1
100
AcDbLine
 10
73.67
 20
-2.529999999999999
 11
73.67
 21
-16.53
  0
LINE
  5
80
100
AcDbEntity
  8
00 CUTOUT
  6
ByLayer
 62
  256
370
   -1
100
AcDbLine
 10
73.67
 20
-16.53
 11
59.67
 21
-16.53
  0
LINE
  5
81
100
AcDbEntity
  8
00 CUTOUT
  6
ByLayer
 62
  256
370
   -1
100
AcDbLine
 10
59.67
 20
-16.53
 11
59.67
 21
-2.529999999999999
  0
LINE
  5
82
100
AcDbEntity
  8
70 KEY_1U
  6
ByLayer
 62
  256
370
   -1
100
AcDbLine
 10
57.145
 20
-0.004999999999999005
 11
76.19500000000001
 21
-0.004999999999999005
  0
LINE
  5
83
100
AcDbEntity
  8
70 KEY_1U
  6
ByLayer
 62
  256
370
   -1
100
AcDbLine
 10
76.19500000000001
 20
-0.004999999999999005
 11
76.19500000000001
 21
-19.055
  0
LINE
  5
84
100
AcDbEntity
  8
70 KEY_1U
  6
ByLayer
 62
  256
370
   -1
100
AcDbLine
 10
76.19500000000001
 20
-19.055
 11
57.145
 21
-19.055
  0
LINE
  5
85
100
AcDbEntity
  8
70 KEY_1U
  6
ByLayer
 62
  256
370
   -1
100
AcDbLine
 10
57.145
 20
-19.055
 11
57.145
 21
-0.004999999999999005
  0
LINE
  5
86
100
AcDbEntity
  8
60 KEYCAP_18
  6
ByLayer
 62
  256
370
   -1
100
AcDbLine
 10
57.67
 20
-0.5299999999999994
 11
75.67
 21
-0.5299999999999994
  0
LINE
  5
87
100
AcDbEntity
  8
60 KEYCAP_18
  6
ByLayer
 62
  256
370
   -1
100
AcDbLine
 10
75.67
 20
-0.5299999999999994
 11
75.67
 21
-18.53
  0
LINE
  5
88
100
AcDbEntity
  8
60 KEYCAP_18
  6
ByLayer
 62
  256
370
   -1
100
AcDbLine
 10
75.67
 20
-18.53
 11
57.67
 21
-18.53
  0
LINE
  5
89
100
AcDbEntity
  8
60 KEYCAP_18
  6
ByLayer
 62
  256
370
   -1
100
AcDbLine
 10
57.67
 20
-18.53
 11
57.67
 21
-0.5299999999999994
  0
LINE
  5
8A
100
AcDbEntity
  8
50 CENTER
  6
ByLayer
 62
  256
370
   -1
100
AcDbLine
 10
65.67
 20
-9.529999999999999
 11
67.67
 21
-9.529999999999999
  0
LINE
  5
8B
100
AcDbEntity
  8
50 CENTER
  6
ByLayer
 62
  256
370
   -1
100
AcDbLine
 10
66.67
 20
-10.53
 11
66.67
 21
-8.529999999999999
  0
LINE
  5
8C
100
AcDbEntity
  8
00 CUTOUT
  6
ByLayer
 62
  256
370
   -1
100
AcDbLine
 10
78.73
 20
-4.43
 11
92.73
 21
-4.43
  0
LINE
  5
8D
100
AcDbEntity
  8
00 CUTOUT
  6
ByLayer
 62
  256
370
   -1
100
AcDbLine
 10
92.73
 20
-4.43
 11
92.73
 21
-18.43
  0
LINE
  5
8E
100
AcDbEntity
  8
00 CUTOUT
  6
ByLayer
 62
  256
370
   -1
100
AcDbLine
 10
92.73
 20
-18.43
 11
78.73
 21
-18.43
  0
LINE
  5
8F
100
AcDbEntity
  8
00 CUTOUT
  6
ByLayer
 62
  256
370
   -1
100
AcDbLine
 10
78.73
 20
-18.43
 11
78.73
 21
-4.43
  0
LINE
  5
90
100
AcDbEntity
  8
70 KEY_1U
  6
ByLayer
 62
  256
370
   -1
100
AcDbLine
 10
76.205
 20
-1.904999999999999
 11
95.25500000000001
 21
-1.904999999999999
  0
LINE
  5
91
100
AcDbEntity
  8
70 KEY_1U
  6
ByLayer
 62
  256
370
   -1
100
AcDbLine
 10
95.25500000000001
 20
-1.904999999999999
 11
95.25500000000001
 21
-20.955
  0
LINE
  5
92
100
AcDbEntity
  8
70 KEY_1U
  6
ByLayer
 62
  256
370
   -1
100
AcDbLine
 10
95.25500000000001
 20
-20.955
 11
76.205
 21
-20.955
  0
LINE
  5
93
100
AcDbEntity
  8
70 KEY_1U
  6
ByLayer
 62
  256
370
   -1
100
AcDbLine
 10
76.205
 20
-20.955
 11
76.205
 21
-1.904999999999999
  0
LINE
  5
94
100
AcDbEntity
  8
60 KEYCAP_18
  6
ByLayer
 62
  256
370
   -1
100
AcDbLine
 10
76.73
 20
-2.43
 11
94.73
 21
-2.43
  0
LINE
  5
95
100
AcDbEntity
  8
60 KEYCAP_18
  6
ByLayer
 62
  256
370
   -1
100
AcDbLine
 10
94.73
 20
-2.43
 11
94.73
 21
-20.43
  0
LINE
  5
96
100
AcDbEntity
  8
60 KEYCAP_18
  6
ByLayer
 62
  256
370
   -1
100
AcDbLine
 10
94.73
 20
-20.43
 11
76.73
 21
-20.43
  0
LINE
  5
97
100
AcDbEntity
  8
60 KEYCAP_18
  6
ByLayer
 62
  256
370
   -1
100
AcDbLine
 10
76.73
 20
-20.43
 11
76.73
 21
-2.43
  0
LINE
  5
98
100
AcDbEntity
  8
50 CENTER
  6
ByLayer
 62
  256
370
   -1
100
AcDbLine
 10
84.73
 20
-11.43
 11
86.73
 21
-11.43
  0
LINE
  5
99
100
AcDbEntity
  8
50 CENTER
  6
ByLayer
 62
  256
370
   -1
100
AcDbLine
 10
85.73
 20
-12.43
 11
85.73
 21
-10.43
  0
LINE
  5
9A
100
AcDbEntity
  8
00 CUTOUT
  6
ByLayer
 62
  256
370
   -1
100
AcDbLine
 10
97.78
 20
-6.880000000000001
 11
111.78
 21
-6.880000000000001
  0
LINE
  5
9B
100
AcDbEntity
  8
00 CUTOUT
  6
ByLayer
 62
  256
370
   -1
100
AcDbLine
 10
111.78
 20
-6.880000000000001
 11
111.78
 21
-20.88
  0
LINE
  5
9C
100
AcDbEntity
  8
00 CUTOUT
  6
ByLayer
 62
  256
370
   -1
100
AcDbLine
 10
111.78
 20
-20.88
 11
97.78
 21
-20.88
  0
LINE
  5
9D
100
AcDbEntity
  8
00 CUTOUT
  6
ByLayer
 62
  256
370
   -1
100
AcDbLine
 10
97.78
 20
-20.88
 11
97.78
 21
-6.880000000000001
  0
LINE
  5
9E
100
AcDbEntity
  8
70 KEY_1U
  6
ByLayer
 62
  256
370
   -1
100
AcDbLine
 10
95.255
 20
-4.355
 11
114.305
 21
-4.355
  0
LINE
  5
9F
100
AcDbEntity
  8
70 KEY_1U
  6
ByLayer
 62
  256
370
   -1
100
AcDbLine
 10
114.305
 20
-4.355
 11
114.305
 21
-23.405
  0
LINE
  5
A0
100
AcDbEntity
  8
70 KEY_1U
  6
ByLayer
 62
  256
370
   -1
100
AcDbLine
 10
114.305
 20
-23.405
 11
95.255
 21
-23.405
  0
LINE
  5
A1
100
AcDbEntity
  8
70 KEY_1U
  6
ByLayer
 62
  256
370
   -1
100
AcDbLine
 10
95.255
 20
-23.405
 11
95.255
 21
-4.355
  0
LINE
  5
A2
100
AcDbEntity
  8
60 KEYCAP_18
  6
ByLayer
 62
  256
370
   -1
100
AcDbLine
 10
95.78
 20
-4.880000000000001
 11
113.78
 21
-4.880000000000001
  0
LINE
  5
A3
100
AcDbEntity
  8
60 KEYCAP_18
  6
ByLayer
 62
  256
370
   -1
100
AcDbLine
 10
113.78
 20
-4.880000000000001
 11
113.78
 21
-22.88
  0
LINE
  5
A4
100
AcDbEntity
  8
60 KEYCAP_18
  6
ByLayer
 62
  256
370
   -1
100
AcDbLine
 10
113.78
 20
-22.88
 11
95.78
 21
-22.88
  0
LINE
  5
A5
100
AcDbEntity
  8
60 KEYCAP_18
  6
ByLayer
 62
  256
370
   -1
100
AcDbLine
 10
95.78
 20
-22.88
 11
95.78
 21
-4.880000000000001
  0
LINE
  5
A6
100
AcDbEntity
  8
50 CENTER
  6
ByLayer
 62
  256
370
   -1
100
AcDbLine
 10
103.78
 20
-13.88
 11
105.78
 21
-13.88
  0
LINE
  5
A7
100
AcDbEntity
  8
50 CENTER
  6
ByLayer
 62
  256
370
   -1
100
AcDbLine
 10
104.78
 20
-14.88
 11
104.78
 21
-12.88
  0
LINE
  5
A8
100
AcDbEntity
  8
00 CUTOUT
  6
ByLayer
 62
  256
370
   -1
100
AcDbLine
 10
116.83
 20
-10.68
 11
130.83
 21
-10.68
  0
LINE
  5
A9
100
AcDbEntity
  8
00 CUTOUT
  6
ByLayer
 62
  256
370
   -1
100
AcDbLine
 10
130.83
 20
-10.68
 11
130.83
 21
-24.68
  0
LINE
  5
AA
100
AcDbEntity
  8
00 CUTOUT
  6
ByLayer
 62
  256
370
   -1
100
AcDbLine
 10
130.83
 20
-24.68
 11
116.83
 21
-24.68
  0
LINE
  5
AB
100
AcDbEntity
  8
00 CUTOUT
  6
ByLayer
 62
  256
370
   -1
100
AcDbLine
 10
116.83
 20
-24.68
 11
116.83
 21
-10.68
  0
LINE
  5
AC
100
AcDbEntity
  8
70 KEY_1U
  6
ByLayer
 62
  256
370
   -1
100
AcDbLine
 10
114.305
 20
-8.154999999999999
 11
133.355
 21
-8.154999999999999
  0
LINE
  5
AD
100
AcDbEntity
  8
70 KEY_1U
  6
ByLayer
 62
  256
370
   -1
100
AcDbLine
 10
133.355
 20
-8.154999999999999
 11
133.355
 21
-27.205
  0
LINE
  5
AE
100
AcDbEntity
  8
70 KEY_1U
  6
ByLayer
 62
  256
370
   -1
100
AcDbLine
 10
133.355
 20
-27.205
 11
114.305
 21
-27.205
  0
LINE
  5
AF
100
AcDbEntity
  8
70 KEY_1U
  6
ByLayer
 62
  256
370
   -1
100
AcDbLine
 10
114.305
 20
-27.205
 11
114.305
 21
-8.154999999999999
  0
LINE
  5
B0
100
AcDbEntity
  8
60 KEYCAP_18
  6
ByLayer
 62
  256
370
   -1
100
AcDbLine
 10
114.83
 20
-8.68
 11
132.83
 21
-8.68
  0
LINE
  5
B1
100
AcDbEntity
  8
60 KEYCAP_18
  6
ByLayer
 62
  256
370
   -1
100
AcDbLine
 10
132.83
 20
-8.68
 11
132.83
 21
-26.68
  0
LINE
  5
B2
100
AcDbEntity
  8
60 KEYCAP_18
  6
ByLayer
 62
  256
370
   -1
100
AcDbLine
 10
132.83
 20
-26.68
 11
114.83
 21
-26.68
  0
LINE
  5
B3
100
AcDbEntity
  8
60 KEYCAP_18
  6
ByLayer
 62
  256
370
   -1
100
AcDbLine
 10
114.83
 20
-26.68
 11
114.83
 21
-8.68
  0
LINE
  5
B4
100
AcDbEntity
  8
50 CENTER
  6
ByLayer
 62
  256
370
   -1
100
AcDbLine
 10
122.83
 20
-17.68
 11
124.83
 21
-17.68
  0
LINE
  5
B5
100
AcDbEntity
  8
50 CENTER
  6
ByLayer
 62
  256
370
   -1
100
AcDbLine
 10
123.83
 20
-18.68
 11
123.83
 21
-16.68
  0
LINE
  5
B6
100
AcDbEntity
  8
00 CUTOUT
  6
ByLayer
 62
  256
370
   -1
100
AcDbLine
 10
2.529999999999999
 20
-29.2
 11
16.53
 21
-29.2
  0
LINE
  5
B7
100
AcDbEntity
  8
00 CUTOUT
  6
ByLayer
 62
  256
370
   -1
100
AcDbLine
 10
16.53
 20
-29.2
 11
16.53
 21
-43.2
  0
LINE
  5
B8
100
AcDbEntity
  8
00 CUTOUT
  6
ByLayer
 62
  256
370
   -1
100
AcDbLine
 10
16.53
 20
-43.2
 11
2.529999999999999
 21
-43.2
  0
LINE
  5
B9
100
AcDbEntity
  8
00 CUTOUT
  6
ByLayer
 62
  256
370
   -1
100
AcDbLine
 10
2.529999999999999
 20
-43.2
 11
2.529999999999999
 21
-29.2
  0
LINE
  5
BA
100
AcDbEntity
  8
70 KEY_1U
  6
ByLayer
 62
  256
370
   -1
100
AcDbLine
 10
0.004999999999999005
 20
-26.675
 11
19.055
 21
-26.675
  0
LINE
  5
BB
100
AcDbEntity
  8
70 KEY_1U
  6
ByLayer
 62
  256
370
   -1
100
AcDbLine
 10
19.055
 20
-26.675
 11
19.055
 21
-45.725
  0
LINE
  5
BC
100
AcDbEntity
  8
70 KEY_1U
  6
ByLayer
 62
  256
370
   -1
100
AcDbLine
 10
19.055
 20
-45.725
 11
0.004999999999999005
 21
-45.725
  0
LINE
  5
BD
100
AcDbEntity
  8
70 KEY_1U
  6
ByLayer
 62
  256
370
   -1
100
AcDbLine
 10
0.004999999999999005
 20
-45.725
 11
0.004999999999999005
 21
-26.675
  0
LINE
  5
BE
100
AcDbEntity
  8
60 KEYCAP_18
  6
ByLayer
 62
  256
370
   -1
100
AcDbLine
 10
0.5299999999999994
 20
-27.2
 11
18.53
 21
-27.2
  0
LINE
  5
BF
100
AcDbEntity
  8
60 KEYCAP_18
  6
ByLayer
 62
  256
370
   -1
100
AcDbLine
 10
18.53
 20
-27.2
 11
18.53
 21
-45.2
  0
LINE
  5
C0
100
AcDbEntity
  8
60 KEYCAP_18
  6
ByLayer
 62
  256
370
   -1
100
AcDbLine
 10
18.53
 20
-45.2
 11
0.5299999999999994
 21
-45.2
  0
LINE
  5
C1
100
AcDbEntity
  8
60 KEYCAP_18
  6
ByLayer
 62
  256
370
   -1
100
AcDbLine
 10
0.5299999999999994
 20
-45.2
 11
0.5299999999999994
 21
-27.2
  0
LINE
  5
C2
100
AcDbEntity
  8
50 CENTER
  6
ByLayer
 62
  256
370
   -1
100
AcDbLine
 10
8.529999999999999
 20
-36.2
 11
10.53
 21
-36.2
  0
LINE
  5
C3
100
AcDbEntity
  8
50 CENTER
  6
ByLayer
 62
  256
370
   -1
100
AcDbLine
 10
9.529999999999999
 20
-37.2
 11
9.529999999999999
 21
-35.2
  0
LINE
  5
C4
100
AcDbEntity
  8
00 CUTOUT
  6
ByLayer
 62
  256
370
   -1
100
AcDbLine
 10
21.58
 20
-29.2
 11
35.58
 21
-29.2
  0
LINE
  5
C5
100
AcDbEntity
  8
00 CUTOUT
  6
ByLayer
 62
  256
370
   -1
100
AcDbLine
 10
35.58
 20
-29.2
 11
35.58
 21
-43.2
  0
LINE
  5
C6
100
AcDbEntity
  8
00 CUTOUT
  6
ByLayer
 62
  256
370
   -1
100
AcDbLine
 10
35.58
 20
-43.2
 11
21.58
 21
-43.2
  0
LINE
  5
C7
100
AcDbEntity
  8
00 CUTOUT
  6
ByLayer
 62
  256
370
   -1
100
AcDbLine
 10
21.58
 20
-43.2
 11
21.58
 21
-29.2
  0
LINE
  5
C8
100
AcDbEntity
  8
70 KEY_1U
  6
ByLayer
 62
  256
370
   -1
100
AcDbLine
 10
19.055
 20
-26.675
 11
38.105
 21
-26.675
  0
LINE
  5
C9
100
AcDbEntity
  8
70 KEY_1U
  6
ByLayer
 62
  256
370
   -1
100
AcDbLine
 10
38.105
 20
-26.675
 11
38.105
 21
-45.725
  0
LINE
  5
CA
100
AcDbEntity
  8
70 KEY_1U
  6
ByLayer
 62
  256
370
   -1
100
AcDbLine
 10
38.105
 20
-45.725
 11
19.055
 21
-45.725
  0
LINE
  5
CB
100
AcDbEntity
  8
70 KEY_1U
  6
ByLayer
 62
  256
370
   -1
100
AcDbLine
 10
19.055
 20
-45.725
 11
19.055
 21
-26.675
  0
LINE
  5
CC
100
AcDbEntity
  8
60 KEYCAP_18
  6
ByLayer
 62
  256
370
   -1
100
AcDbLine
 10
19.58
 20
-27.2
 11
37.58
 21
-27.2
  0
LINE
  5
CD
100
AcDbEntity
  8
60 KEYCAP_18
  6
ByLayer
 62
  256
370
   -1
100
AcDbLine
 10
37.58
 20
-27.2
 11
37.58
 21
-45.2
  0
LINE
  5
CE
100
AcDbEntity
  8
60 KEYCAP_18
  6
ByLayer
 62
  256
370
   -1
100
AcDbLine
 10
37.58
 20
-45.2
 11
19.58
 21
-45.2
  0
LINE
  5
CF
100
AcDbEntity
  8
60 KEYCAP_18
  6
ByLayer
 62
  256
370
   -1
100
AcDbLine
 10
19.58
 20
-45.2
 11
19.58
 21
-27.2
  0
LINE
  5
D0
100
AcDbEntity
  8
50 CENTER
  6
ByLayer
 62
  256
370
   -1
100
AcDbLine
 10
27.58
 20
-36.2
 11
29.58
 21
-36.2
  0
LINE
  5
D1
100
AcDbEntity
  8
50 CENTER
  6
ByLayer
 62
  256
370
   -1
100
AcDbLine
 10
28.58
 20
-37.2
 11
28.58
 21
-35.2
  0
LINE
  5
D2
100
AcDbEntity
  8
00 CUTOUT
  6
ByLayer
 62
  256
370
   -1
100
AcDbLine
 10
40.62
 20
-23.48
 11
54.62
 21
-23.48
  0
LINE
  5
D3
100
AcDbEntity
  8
00 CUTOUT
  6
ByLayer
 62
  256
370
   -1
100
AcDbLine
 10
54.62
 20
-23.48
 11
54.62
 21
-37.48
  0
LINE
  5
D4
100
AcDbEntity
  8
00 CUTOUT
  6
ByLayer
 62
  256
370
   -1
100
AcDbLine
 10
54.62
 20
-37.48
 11
40.62
 21
-37.48
  0
LINE
  5
D5
100
AcDbEntity
  8
00 CUTOUT
  6
ByLayer
 62
  256
370
   -1
100
AcDbLine
 10
40.62
 20
-37.48
 11
40.62
 21
-23.48
  0
LINE
  5
D6
100
AcDbEntity
  8
70 KEY_1U
  6
ByLayer
 62
  256
370
   -1
100
AcDbLine
 10
38.095
 20
-20.955
 11
57.145
 21
-20.955
  0
LINE
  5
D7
100
AcDbEntity
  8
70 KEY_1U
  6
ByLayer
 62
  256
370
   -1
100
AcDbLine
 10
57.145
 20
-20.955
 11
57.145
 21
-40.005
  0
LINE
  5
D8
100
AcDbEntity
  8
70 KEY_1U
  6
ByLayer
 62
  256
370
   -1
100
AcDbLine
 10
57.145
 20
-40.005
 11
38.095
 21
-40.005
  0
LINE
  5
D9
100
AcDbEntity
  8
70 KEY_1U
  6
ByLayer
 62
  256
370
   -1
100
AcDbLine
 10
38.095
 20
-40.005
 11
38.095
 21
-20.955
  0
LINE
  5
DA
100
AcDbEntity
  8
60 KEYCAP_18
  6
ByLayer
 62
  256
370
   -1
100
AcDbLine
 10
38.62
 20
-21.48
 11
56.62
 21
-21.48
  0
LINE
  5
DB
100
AcDbEntity
  8
60 KEYCAP_18
  6
ByLayer
 62
  256
370
   -1
100
AcDbLine
 10
56.62
 20
-21.48
 11
56.62
 21
-39.48
  0
LINE
  5
DC
100
AcDbEntity
  8
60 KEYCAP_18
  6
ByLayer
 62
  256
370
   -1
100
AcDbLine
 10
56.62
 20
-39.48
 11
38.62
 21
-39.48
  0
LINE
  5
DD
100
AcDbEntity
  8
60 KEYCAP_18
  6
ByLayer
 62
  256
370
   -1
100
AcDbLine
 10
38.62
 20
-39.48
 11
38.62
 21
-21.48
  0
LINE
  5
DE
100
AcDbEntity
  8
50 CENTER
  6
ByLayer
 62
  256
370
   -1
100
AcDbLine
 10
46.62
 20
-30.48
 11
48.62
 21
-30.48
  0
LINE
  5
DF
100
AcDbEntity
  8
50 CENTER
  6
ByLayer
 62
  256
370
   -1
100
AcDbLine
 10
47.62
 20
-31.48
 11
47.62
 21
-29.48
  0
LINE
  5
E0
100
AcDbEntity
  8
00 CUTOUT
  6
ByLayer
 62
  256
370
   -1
100
AcDbLine
 10
59.67
 20
-21.58
 11
73.67
 21
-21.58
  0
LINE
  5
E1
100
AcDbEntity
  8
00 CUTOUT
  6
ByLayer
 62
  256
370
   -1
100
AcDbLine
 10
73.67
 20
-21.58
 11
73.67
 21
-35.58
  0
LINE
  5
E2
100
AcDbEntity
  8
00 CUTOUT
  6
ByLayer
 62
  256
370
   -1
100
AcDbLine
 10
73.67
 20
-35.58
 11
59.67
 21
-35.58
  0
LINE
  5
E3
100
AcDbEntity
  8
00 CUTOUT
  6
ByLayer
 62
  256
370
   -1
100
AcDbLine
 10
59.67
 20
-35.58
 11
59.67
 21
-21.58
  0
LINE
  5
E4
100
AcDbEntity
  8
70 KEY_1U
  6
ByLayer
 62
  256
370
   -1
100
AcDbLine
 10
57.145
 20
-19.055
 11
76.19500000000001
 21
-19.055
  0
LINE
  5
E5
100
AcDbEntity
  8
70 KEY_1U
  6
ByLayer
 62
  256
370
   -1
100
AcDbLine
 10
76.19500000000001
 20
-19.055
 11
76.19500000000001
 21
-38.105
  0
LINE
  5
E6
100
AcDbEntity
  8
70 KEY_1U
  6
ByLayer
 62
  256
370
   -1
100
AcDbLine
 10
76.19500000000001
 20
-38.105
 11
57.145
 21
-38.105
  0
LINE
  5
E7
100
AcDbEntity
  8
70 KEY_1U
  6
ByLayer
 62
  256
370
   -1
100
AcDbLine
 10
57.145
 20
-38.105
 11
57.145
 21
-19.055
  0
LINE
  5
E8
100
AcDbEntity
  8
60 KEYCAP_18
  6
ByLayer
 62
  256
370
   -1
100
AcDbLine
 10
57.67
 20
-19.58
 11
75.67
 21
-19.58
  0
LINE
  5
E9
100
AcDbEntity
  8
60 KEYCAP_18
  6
ByLayer
 62
  256
370
   -1
100
AcDbLine
 10
75.67
 20
-19.58
 11
75.67
 21
-37.58
  0
LINE
  5
EA
100
AcDbEntity
  8
60 KEYCAP_18
  6
ByLayer
 62
  256
370
   -1
100
AcDbLine
 10
75.67
 20
-37.58
 11
57.67
 21
-37.58
  0
LINE
  5
EB
100
AcDbEntity
  8
60 KEYCAP_18
  6
ByLayer
 62
  256
370
   -1
100
AcDbLine
 10
57.67
 20
-37.58
 11
57.67
 21
-19.58
  0
LINE
  5
EC
100
AcDbEntity
  8
50 CENTER
  6
ByLayer
 62
  256
370
   -1
100
AcDbLine
 10
65.67
 20
-28.58
 11
67.67
 21
-28.58
  0
LINE
  5
ED
100
AcDbEntity
  8
50 CENTER
  6
ByLayer
 62
  256
370
   -1
100
AcDbLine
 10
66.67
 20
-29.58
 11
66.67
 21
-27.58
  0
LINE
  5
EE
100
AcDbEntity
  8
00 CUTOUT
  6
ByLayer
 62
  256
370
   -1
100
AcDbLine
 10
78.73
 20
-23.48
 11
92.73
 21
-23.48
  0
LINE
  5
EF
100
AcDbEntity
  8
00 CUTOUT
  6
ByLayer
 62
  256
370
   -1
100
AcDbLine
 10
92.73
 20
-23.48
 11
92.73
 21
-37.48
  0
LINE
  5
F0
100
AcDbEntity
  8
00 CUTOUT
  6
ByLayer
 62
  256
370
   -1
100
AcDbLine
 10
92.73
 20
-37.48
 11
78.73
 21
-37.48
  0
LINE
  5
F1
100
AcDbEntity
  8
00 CUTOUT
  6
ByLayer
 62
  256
370
   -1
100
AcDbLine
 10
78.73
 20
-37.48
 11
78.73
 21
-23.48
  0
LINE
  5
F2
100
AcDbEntity
  8
70 KEY_1U
  6
ByLayer
 62
  256
370
   -1
100
AcDbLine
 10
76.205
 20
-20.955
 11
95.25500000000001
 21
-20.955
  0
LINE
  5
F3
100
AcDbEntity
  8
70 KEY_1U
  6
ByLayer
 62
  256
370
   -1
100
AcDbLine
 10
95.25500000000001
 20
-20.955
 11
95.25500000000001
 21
-40.005
  0
LINE
  5
F4
100
AcDbEntity
  8
70 KEY_1U
  6
ByLayer
 62
  256
370
   -1
100
AcDbLine
 10
95.25500000000001
 20
-40.005
 11
76.205
 21
-40.005
  0
LINE
  5
F5
100
AcDbEntity
  8
70 KEY_1U
  6
ByLayer
 62
  256
370
   -1
100
AcDbLine
 10
76.205
 20
-40.005
 11
76.205
 21
-20.955
  0
LINE
  5
F6
100
AcDbEntity
  8
60 KEYCAP_18
  6
ByLayer
 62
  256
370
   -1
100
AcDbLine
 10
76.73
 20
-21.48
 11
94.73
 21
-21.48
  0
LINE
  5
F7
100
AcDbEntity
  8
60 KEYCAP_18
  6
ByLayer
 62
  256
370
   -1
100
AcDbLine
 10
94.73
 20
-21.48
 11
94.73
 21
-39.48
  0
LINE
  5
F8
100
AcDbEntity
  8
60 KEYCAP_18
  6
ByLayer
 62
  256
370
   -1
100
AcDbLine
 10
94.73
 20
-39.48
 11
76.73
 21
-39.48
  0
LINE
  5
F9
100
AcDbEntity
  8
60 KEYCAP_18
  6
ByLayer
 62
  256
370
   -1
100
AcDbLine
 10
76.73
 20
-39.48
 11
76.73
 21
-21.48
  0
LINE
  5
FA
100
AcDbEntity
  8
50 CENTER
  6
ByLayer
 62
  256
370
   -1
100
AcDbLine
 10
84.73
 20
-30.48
 11
86.73
 21
-30.48
  0
LINE
  5
FB
100
AcDbEntity
  8
50 CENTER
  6
ByLayer
 62
  256
370
   -1
100
AcDbLine
 10
85.73
 20
-31.48
 11
85.73
 21
-29.48
  0
LINE
  5
FC
100
AcDbEntity
  8
00 CUTOUT
  6
ByLayer
 62
  256
370
   -1
100
AcDbLine
 10
97.78
 20
-25.93
 11
111.78
 21
-25.93
  0
LINE
  5
FD
100
AcDbEntity
  8
00 CUTOUT
  6
ByLayer
 62
  256
370
   -1
100
AcDbLine
 10
111.78
 20
-25.93
 11
111.78
 21
-39.93
  0
LINE
  5
FE
100
AcDbEntity
  8
00 CUTOUT
  6
ByLayer
 62
  256
370
   -1
100
AcDbLine
 10
111.78
 20
-39.93
 11
97.78
 21
-39.93
  0
LINE
  5
FF
100
AcDbEntity
  8
00 CUTOUT
  6
ByLayer
 62
  256
370
   -1
100
AcDbLine
 10
97.78
 20
-39.93
 11
97.78
 21
-25.93
  0
LINE
  5
100
100
AcDbEntity
  8
70 KEY_1U
  6
ByLayer
 62
  256
370
   -1
100
AcDbLine
 10
95.255
 20
-23.405
 11
114.305
 21
-23.405
  0
LINE
  5
101
100
AcDbEntity
  8
70 KEY_1U
  6
ByLayer
 62
  256
370
   -1
100
AcDbLine
 10
114.305
 20
-23.405
 11
114.305
 21
-42.455
  0
LINE
  5
102
100
AcDbEntity
  8
70 KEY_1U
  6
ByLayer
 62
  256
370
   -1
100
AcDbLine
 10
114.305
 20
-42.455
 11
95.255
 21
-42.455
  0
LINE
  5
103
100
AcDbEntity
  8
70 KEY_1U
  6
ByLayer
 62
  256
370
   -1
100
AcDbLine
 10
95.255
 20
-42.455
 11
95.255
 21
-23.405
  0
LINE
  5
104
100
AcDbEntity
  8
60 KEYCAP_18
  6
ByLayer
 62
  256
370
   -1
100
AcDbLine
 10
95.78
 20
-23.93
 11
113.78
 21
-23.93
  0
LINE
  5
105
100
AcDbEntity
  8
60 KEYCAP_18
  6
ByLayer
 62
  256
370
   -1
100
AcDbLine
 10
113.78
 20
-23.93
 11
113.78
 21
-41.93
  0
LINE
  5
106
100
AcDbEntity
  8
60 KEYCAP_18
  6
ByLayer
 62
  256
370
   -1
100
AcDbLine
 10
113.78
 20
-41.93
 11
95.78
 21
-41.93
  0
LINE
  5
107
100
AcDbEntity
  8
60 KEYCAP_18
  6
ByLayer
 62
  256
370
   -1
100
AcDbLine
 10
95.78
 20
-41.93
 11
95.78
 21
-23.93
  0
LINE
  5
108
100
AcDbEntity
  8
50 CENTER
  6
ByLayer
 62
  256
370
   -1
100
AcDbLine
 10
103.78
 20
-32.93
 11
105.78
 21
-32.93
  0
LINE
  5
109
100
AcDbEntity
  8
50 CENTER
  6
ByLayer
 62
  256
370
   -1
100
AcDbLine
 10
104.78
 20
-33.93
 11
104.78
 21
-31.93
  0
LINE
  5
10A
100
AcDbEntity
  8
00 CUTOUT
  6
ByLayer
 62
  256
370
   -1
100
AcDbLine
 10
116.83
 20
-29.73
 11
130.83
 21
-29.73
  0
LINE
  5
10B
100
AcDbEntity
  8
00 CUTOUT
  6
ByLayer
 62
  256
370
   -1
100
AcDbLine
 10
130.83
 20
-29.73
 11
130.83
 21
-43.73
  0
LINE
  5
10C
100
AcDbEntity
  8
00 CUTOUT
  6
ByLayer
 62
  256
370
   -1
100
AcDbLine
 10
130.83
 20
-43.73
 11
116.83
 21
-43.73
  0
LINE
  5
10D
100
AcDbEntity
  8
00 CUTOUT
  6
ByLayer
 62
  256
370
   -1
100
AcDbLine
 10
116.83
 20
-43.73
 11
116.83
 21
-29.73
  0
LINE
  5
10E
100
AcDbEntity
  8
70 KEY_1U
  6
ByLayer
 62
  256
370
   -1
100
AcDbLine
 10
114.305
 20
-27.205
 11
133.355
 21
-27.205
  0
LINE
  5
10F
100
AcDbEntity
  8
70 KEY_1U
  6
ByLayer
 62
  256
370
   -1
100
AcDbLine
 10
133.355
 20
-27.205
 11
133.355
 21
-46.255
  0
LINE
  5
110
100
AcDbEntity
  8
70 KEY_1U
  6
ByLayer
 62
  256
370
   -1
100
AcDbLine
 10
133.355
 20
-46.255
 11
114.305
 21
-46.255
  0
LINE
  5
111
100
AcDbEntity
  8
70 KEY_1U
  6
ByLayer
 62
  256
370
   -1
100
AcDbLine
 10
114.305
 20
-46.255
 11
114.305
 21
-27.205
  0
LINE
  5
112
100
AcDbEntity
  8
60 KEYCAP_18
  6
ByLayer
 62
  256
370
   -1
100
AcDbLine
 10
114.83
 20
-27.73
 11
132.83
 21
-27.73
  0
LINE
  5
113
100
AcDbEntity
  8
60 KEYCAP_18
  6
ByLayer
 62
  256
370
   -1
100
AcDbLine
 10
132.83
 20
-27.73
 11
132.83
 21
-45.73
  0
LINE
  5
114
100
AcDbEntity
  8
60 KEYCAP_18
  6
ByLayer
 62
  256
370
   -1
100
AcDbLine
 10
132.83
 20
-45.73
 11
114.83
 21
-45.73
  0
LINE
  5
115
100
AcDbEntity
  8
60 KEYCAP_18
  6
ByLayer
 62
  256
370
   -1
100
AcDbLine
 10
114.83
 20
-45.73
 11
114.83
 21
-27.73
  0
LINE
  5
116
100
AcDbEntity
  8
50 CENTER
  6
ByLayer
 62
  256
370
   -1
100
AcDbLine
 10
122.83
 20
-36.73
 11
124.83
 21
-36.73
  0
LINE
  5
117
100
AcDbEntity
  8
50 CENTER
  6
ByLayer
 62
  256
370
   -1
100
AcDbLine
 10
123.83
 20
-37.73
 11
123.83
 21
-35.73
  0
LINE
  5
118
100
AcDbEntity
  8
00 CUTOUT
  6
ByLayer
 62
  256
370
   -1
100
AcDbLine
 10
2.529999999999999
 20
-48.24
 11
16.53
 21
-48.24
  0
LINE
  5
119
100
AcDbEntity
  8
00 CUTOUT
  6
ByLayer
 62
  256
370
   -1
100
AcDbLine
 10
16.53
 20
-48.24
 11
16.53
 21
-62.24
  0
LINE
  5
11A
100
AcDbEntity
  8
00 CUTOUT
  6
ByLayer
 62
  256
370
   -1
100
AcDbLine
 10
16.53
 20
-62.24
 11
2.529999999999999
 21
-62.24
  0
LINE
  5
11B
100
AcDbEntity
  8
00 CUTOUT
  6
ByLayer
 62
  256
370
   -1
100
AcDbLine
 10
2.529999999999999
 20
-62.24
 11
2.529999999999999
 21
-48.24
  0
LINE
  5
11C
100
AcDbEntity
  8
70 KEY_1U
  6
ByLayer
 62
  256
370
   -1
100
AcDbLine
 10
0.004999999999999005
 20
-45.715
 11
19.055
 21
-45.715
  0
LINE
  5
11D
100
AcDbEntity
  8
70 KEY_1U
  6
ByLayer
 62
  256
370
   -1
100
AcDbLine
 10
19.055
 20
-45.715
 11
19.055
 21
-64.765
  0
LINE
  5
11E
100
AcDbEntity
  8
70 KEY_1U
  6
ByLayer
 62
  256
370
   -1
100
AcDbLine
 10
19.055
 20
-64.765
 11
0.004999999999999005
 21
-64.765
  0
LINE
  5
11F
100
AcDbEntity
  8
70 KEY_1U
  6
ByLayer
 62
  256
370
   -1
100
AcDbLine
 10
0.004999999999999005
 20
-64.765
 11
0.004999999999999005
 21
-45.715
  0
LINE
  5
120
100
AcDbEntity
  8
60 KEYCAP_18
  6
ByLayer
 62
  256
370
   -1
100
AcDbLine
 10
0.5299999999999994
 20
-46.24
 11
18.53
 21
-46.24
  0
LINE
  5
121
100
AcDbEntity
  8
60 KEYCAP_18
  6
ByLayer
 62
  256
370
   -1
100
AcDbLine
 10
18.53
 20
-46.24
 11
18.53
 21
-64.24000000000001
  0
LINE
  5
122
100
AcDbEntity
  8
60 KEYCAP_18
  6
ByLayer
 62
  256
370
   -1
100
AcDbLine
 10
18.53
 20
-64.24000000000001
 11
0.5299999999999994
 21
-64.24000000000001
  0
LINE
  5
123
100
AcDbEntity
  8
60 KEYCAP_18
  6
ByLayer
 62
  256
370
   -1
100
AcDbLine
 10
0.5299999999999994
 20
-64.24000000000001
 11
0.5299999999999994
 21
-46.24
  0
LINE
  5
124
100
AcDbEntity
  8
50 CENTER
  6
ByLayer
 62
  256
370
   -1
100
AcDbLine
 10
8.529999999999999
 20
-55.24
 11
10.53
 21
-55.24
  0
LINE
  5
125
100
AcDbEntity
  8
50 CENTER
  6
ByLayer
 62
  256
370
   -1
100
AcDbLine
 10
9.529999999999999
 20
-56.24
 11
9.529999999999999
 21
-54.24
  0
LINE
  5
126
100
AcDbEntity
  8
00 CUTOUT
  6
ByLayer
 62
  256
370
   -1
100
AcDbLine
 10
21.58
 20
-48.24
 11
35.58
 21
-48.24
  0
LINE
  5
127
100
AcDbEntity
  8
00 CUTOUT
  6
ByLayer
 62
  256
370
   -1
100
AcDbLine
 10
35.58
 20
-48.24
 11
35.58
 21
-62.24
  0
LINE
  5
128
100
AcDbEntity
  8
00 CUTOUT
  6
ByLayer
 62
  256
370
   -1
100
AcDbLine
 10
35.58
 20
-62.24
 11
21.58
 21
-62.24
  0
LINE
  5
129
100
AcDbEntity
  8
00 CUTOUT
  6
ByLayer
 62
  256
370
   -1
100
AcDbLine
 10
21.58
 20
-62.24
 11
21.58
 21
-48.24
  0
LINE
  5
12A
100
AcDbEntity
  8
70 KEY_1U
  6
ByLayer
 62
  256
370
   -1
100
AcDbLine
 10
19.055
 20
-45.715
 11
38.105
 21
-45.715
  0
LINE
  5
12B
100
AcDbEntity
  8
70 KEY_1U
  6
ByLayer
 62
  256
370
   -1
100
AcDbLine
 10
38.105
 20
-45.715
 11
38.105
 21
-64.765
  0
LINE
  5
12C
100
AcDbEntity
  8
70 KEY_1U
  6
ByLayer
 62
  256
370
   -1
100
AcDbLine
 10
38.105
 20
-64.765
 11
19.055
 21
-64.765
  0
LINE
  5
12D
100
AcDbEntity
  8
70 KEY_1U
  6
ByLayer
 62
  256
370
   -1
100
AcDbLine
 10
19.055
 20
-64.765
 11
19.055
 21
-45.715
  0
LINE
  5
12E
100
AcDbEntity
  8
60 KEYCAP_18
  6
ByLayer
 62
  256
370
   -1
100
AcDbLine
 10
19.58
 20
-46.24
 11
37.58
 21
-46.24
  0
LINE
  5
12F
100
AcDbEntity
  8
60 KEYCAP_18
  6
ByLayer
 62
  256
370
   -1
100
AcDbLine
 10
37.58
 20
-46.24
 11
37.58
 21
-64.24000000000001
  0
LINE
  5
130
100
AcDbEntity
  8
60 KEYCAP_18
  6
ByLayer
 62
  256
370
   -1
100
AcDbLine
 10
37.58
 20
-64.24000000000001
 11
19.58
 21
-64.24000000000001
  0
LINE
  5
131
100
AcDbEntity
  8
60 KEYCAP_18
  6
ByLayer
 62
  256
370
   -1
100
AcDbLine
 10
19.58
 20
-64.24000000000001
 11
19.58
 21
-46.24
  0
LINE
  5
132
100
AcDbEntity
  8
50 CENTER
  6
ByLayer
 62
  256
370
   -1
100
AcDbLine
 10
27.58
 20
-55.24
 11
29.58
 21
-55.24
  0
LINE
  5
133
100
AcDbEntity
  8
50 CENTER
  6
ByLayer
 62
  256
370
   -1
100
AcDbLine
 10
28.58
 20
-56.24
 11
28.58
 21
-54.24
  0
LINE
  5
134
100
AcDbEntity
  8
00 CUTOUT
  6
ByLayer
 62
  256
370
   -1
100
AcDbLine
 10
40.62
 20
-42.53
 11
54.62
 21
-42.53
  0
LINE
  5
135
100
AcDbEntity
  8
00 CUTOUT
  6
ByLayer
 62
  256
370
   -1
100
AcDbLine
 10
54.62
 20
-42.53
 11
54.62
 21
-56.53
  0
LINE
  5
136
100
AcDbEntity
  8
00 CUTOUT
  6
ByLayer
 62
  256
370
   -1
100
AcDbLine
 10
54.62
 20
-56.53
 11
40.62
 21
-56.53
  0
LINE
  5
137
100
AcDbEntity
  8
00 CUTOUT
  6
ByLayer
 62
  256
370
   -1
100
AcDbLine
 10
40.62
 20
-56.53
 11
40.62
 21
-42.53
  0
LINE
  5
138
100
AcDbEntity
  8
70 KEY_1U
  6
ByLayer
 62
  256
370
   -1
100
AcDbLine
 10
38.095
 20
-40.005
 11
57.145
 21
-40.005
  0
LINE
  5
139
100
AcDbEntity
  8
70 KEY_1U
  6
ByLayer
 62
  256
370
   -1
100
AcDbLine
 10
57.145
 20
-40.005
 11
57.145
 21
-59.055
  0
LINE
  5
13A
100
AcDbEntity
  8
70 KEY_1U
  6
ByLayer
 62
  256
370
   -1
100
AcDbLine
 10
57.145
 20
-59.055
 11
38.095
 21
-59.055
  0
LINE
  5
13B
100
AcDbEntity
  8
70 KEY_1U
  6
ByLayer
 62
  256
370
   -1
100
AcDbLine
 10
38.095
 20
-59.055
 11
38.095
 21
-40.005
  0
LINE
  5
13C
100
AcDbEntity
  8
60 KEYCAP_18
  6
ByLayer
 62
  256
370
   -1
100
AcDbLine
 10
38.62
 20
-40.53
 11
56.62
 21
-40.53
  0
LINE
  5
13D
100
AcDbEntity
  8
60 KEYCAP_18
  6
ByLayer
 62
  256
370
   -1
100
AcDbLine
 10
56.62
 20
-40.53
 11
56.62
 21
-58.53
  0
LINE
  5
13E
100
AcDbEntity
  8
60 KEYCAP_18
  6
ByLayer
 62
  256
370
   -1
100
AcDbLine
 10
56.62
 20
-58.53
 11
38.62
 21
-58.53
  0
LINE
  5
13F
100
AcDbEntity
  8
60 KEYCAP_18
  6
ByLayer
 62
  256
370
   -1
100
AcDbLine
 10
38.62
 20
-58.53
 11
38.62
 21
-40.53
  0
LINE
  5
140
100
AcDbEntity
  8
50 CENTER
  6
ByLayer
 62
  256
370
   -1
100
AcDbLine
 10
46.62
 20
-49.53
 11
48.62
 21
-49.53
  0
LINE
  5
141
100
AcDbEntity
  8
50 CENTER
  6
ByLayer
 62
  256
370
   -1
100
AcDbLine
 10
47.62
 20
-50.53
 11
47.62
 21
-48.53
  0
LINE
  5
142
100
AcDbEntity
  8
00 CUTOUT
  6
ByLayer
 62
  256
370
   -1
100
AcDbLine
 10
59.67
 20
-40.62
 11
73.67
 21
-40.62
  0
LINE
  5
143
100
AcDbEntity
  8
00 CUTOUT
  6
ByLayer
 62
  256
370
   -1
100
AcDbLine
 10
73.67
 20
-40.62
 11
73.67
 21
-54.62
  0
LINE
  5
144
100
AcDbEntity
  8
00 CUTOUT
  6
ByLayer
 62
  256
370
   -1
100
AcDbLine
 10
73.67
 20
-54.62
 11
59.67
 21
-54.62
  0
LINE
  5
145
100
AcDbEntity
  8
00 CUTOUT
  6
ByLayer
 62
  256
370
   -1
100
AcDbLine
 10
59.67
 20
-54.62
 11
59.67
 21
-40.62
  0
LINE
  5
146
100
AcDbEntity
  8
70 KEY_1U
  6
ByLayer
 62
  256
370
   -1
100
AcDbLine
 10
57.145
 20
-38.095
 11
76.19500000000001
 21
-38.095
  0
LINE
  5
147
100
AcDbEntity
  8
70 KEY_1U
  6
ByLayer
 62
  256
370
   -1
100
AcDbLine
 10
76.19500000000001
 20
-38.095
 11
76.19500000000001
 21
-57.145
  0
LINE
  5
148
100
AcDbEntity
  8
70 KEY_1U
  6
ByLayer
 62
  256
370
   -1
100
AcDbLine
 10
76.19500000000001
 20
-57.145
 11
57.145
 21
-57.145
  0
LINE
  5
149
100
AcDbEntity
  8
70 KEY_1U
  6
ByLayer
 62
  256
370
   -1
100
AcDbLine
 10
57.145
 20
-57.145
 11
57.145
 21
-38.095
  0
LINE
  5
14A
100
AcDbEntity
  8
60 KEYCAP_18
  6
ByLayer
 62
  256
370
   -1
100
AcDbLine
 10
57.67
 20
-38.62
 11
75.67
 21
-38.62
  0
LINE
  5
14B
100
AcDbEntity
  8
60 KEYCAP_18
  6
ByLayer
 62
  256
370
   -1
100
AcDbLine
 10
75.67
 20
-38.62
 11
75.67
 21
-56.62
  0
LINE
  5
14C
100
AcDbEntity
  8
60 KEYCAP_18
  6
ByLayer
 62
  256
370
   -1
100
AcDbLine
 10
75.67
 20
-56.62
 11
57.67
 21
-56.62
  0
LINE
  5
14D
100
AcDbEntity
  8
60 KEYCAP_18
  6
ByLayer
 62
  256
370
   -1
100
AcDbLine
 10
57.67
 20
-56.62
 11
57.67
 21
-38.62
  0
LINE
  5
14E
100
AcDbEntity
  8
50 CENTER
  6
ByLayer
 62
  256
370
   -1
100
AcDbLine
 10
65.67
 20
-47.62
 11
67.67
 21
-47.62
  0
LINE
  5
14F
100
AcDbEntity
  8
50 CENTER
  6
ByLayer
 62
  256
370
   -1
100
AcDbLine
 10
66.67
 20
-48.62
 11
66.67
 21
-46.62
  0
LINE
  5
150
100
AcDbEntity
  8
00 CUTOUT
  6
ByLayer
 62
  256
370
   -1
100
AcDbLine
 10
78.73
 20
-42.53
 11
92.73
 21
-42.53
  0
LINE
  5
151
100
AcDbEntity
  8
00 CUTOUT
  6
ByLayer
 62
  256
370
   -1
100
AcDbLine
 10
92.73
 20
-42.53
 11
92.73
 21
-56.53
  0
LINE
  5
152
100
AcDbEntity
  8
00 CUTOUT
  6
ByLayer
 62
  256
370
   -1
100
AcDbLine
 10
92.73
 20
-56.53
 11
78.73
 21
-56.53
  0
LINE
  5
153
100
AcDbEntity
  8
00 CUTOUT
  6
ByLayer
 62
  256
370
   -1
100
AcDbLine
 10
78.73
 20
-56.53
 11
78.73
 21
-42.53
  0
LINE
  5
154
100
AcDbEntity
  8
70 KEY_1U
  6
ByLayer
 62
  256
370
   -1
100
AcDbLine
 10
76.205
 20
-40.005
 11
95.25500000000001
 21
-40.005
  0
LINE
  5
155
100
AcDbEntity
  8
70 KEY_1U
  6
ByLayer
 62
  256
370
   -1
100
AcDbLine
 10
95.25500000000001
 20
-40.005
 11
95.25500000000001
 21
-59.055
  0
LINE
  5
156
100
AcDbEntity
  8
70 KEY_1U
  6
ByLayer
 62
  256
370
   -1
100
AcDbLine
 10
95.25500000000001
 20
-59.055
 11
76.205
 21
-59.055
  0
LINE
  5
157
100
AcDbEntity
  8
70 KEY_1U
  6
ByLayer
 62
  256
370
   -1
100
AcDbLine
 10
76.205
 20
-59.055
 11
76.205
 21
-40.005
  0
LINE
  5
158
100
AcDbEntity
  8
60 KEYCAP_18
  6
ByLayer
 62
  256
370
   -1
100
AcDbLine
 10
76.73
 20
-40.53
 11
94.73
 21
-40.53
  0
LINE
  5
159
100
AcDbEntity
  8
60 KEYCAP_18
  6
ByLayer
 62
  256
370
   -1
100
AcDbLine
 10
94.73
 20
-40.53
 11
94.73
 21
-58.53
  0
LINE
  5
15A
100
AcDbEntity
  8
60 KEYCAP_18
  6
ByLayer
 62
  256
370
   -1
100
AcDbLine
 10
94.73
 20
-58.53
 11
76.73
 21
-58.53
  0
LINE
  5
15B
100
AcDbEntity
  8
60 KEYCAP_18
  6
ByLayer
 62
  256
370
   -1
100
AcDbLine
 10
76.73
 20
-58.53
 11
76.73
 21
-40.53
  0
LINE
  5
15C
100
AcDbEntity
  8
50 CENTER
  6
ByLayer
 62
  256
370
   -1
100
AcDbLine
 10
84.73
 20
-49.53
 11
86.73
 21
-49.53
  0
LINE
  5
15D
100
AcDbEntity
  8
50 CENTER
  6
ByLayer
 62
  256
370
   -1
100
AcDbLine
 10
85.73
 20
-50.53
 11
85.73
 21
-48.53
  0
LINE
  5
15E
100
AcDbEntity
  8
00 CUTOUT
  6
ByLayer
 62
  256
370
   -1
100
AcDbLine
 10
97.78
 20
-44.98
 11
111.78
 21
-44.98
  0
LINE
  5
15F
100
AcDbEntity
  8
00 CUTOUT
  6
ByLayer
 62
  256
370
   -1
100
AcDbLine
 10
111.78
 20
-44.98
 11
111.78
 21
-58.98
  0
LINE
  5
160
100
AcDbEntity
  8
00 CUTOUT
  6
ByLayer
 62
  256
370
   -1
100
AcDbLine
 10
111.78
 20
-58.98
 11
97.78
 21
-58.98
  0
LINE
  5
161
100
AcDbEntity
  8
00 CUTOUT
  6
ByLayer
 62
  256
370
   -1
100
AcDbLine
 10
97.78
 20
-58.98
 11
97.78
 21
-44.98
  0
LINE
  5
162
100
AcDbEntity
  8
70 KEY_1U
  6
ByLayer
 62
  256
370
   -1
100
AcDbLine
 10
95.255
 20
-42.455
 11
114.305
 21
-42.455
  0
LINE
  5
163
100
AcDbEntity
  8
70 KEY_1U
  6
ByLayer
 62
  256
370
   -1
100
AcDbLine
 10
114.305
 20
-42.455
 11
114.305
 21
-61.505
  0
LINE
  5
164
100
AcDbEntity
  8
70 KEY_1U
  6
ByLayer
 62
  256
370
   -1
100
AcDbLine
 10
114.305
 20
-61.505
 11
95.255
 21
-61.505
  0
LINE
  5
165
100
AcDbEntity
  8
70 KEY_1U
  6
ByLayer
 62
  256
370
   -1
100
AcDbLine
 10
95.255
 20
-61.505
 11
95.255
 21
-42.455
  0
LINE
  5
166
100
AcDbEntity
  8
60 KEYCAP_18
  6
ByLayer
 62
  256
370
   -1
100
AcDbLine
 10
95.78
 20
-42.98
 11
113.78
 21
-42.98
  0
LINE
  5
167
100
AcDbEntity
  8
60 KEYCAP_18
  6
ByLayer
 62
  256
370
   -1
100
AcDbLine
 10
113.78
 20
-42.98
 11
113.78
 21
-60.98
  0
LINE
  5
168
100
AcDbEntity
  8
60 KEYCAP_18
  6
ByLayer
 62
  256
370
   -1
100
AcDbLine
 10
113.78
 20
-60.98
 11
95.78
 21
-60.98
  0
LINE
  5
169
100
AcDbEntity
  8
60 KEYCAP_18
  6
ByLayer
 62
  256
370
   -1
100
AcDbLine
 10
95.78
 20
-60.98
 11
95.78
 21
-42.98
  0
LINE
  5
16A
100
AcDbEntity
  8
50 CENTER
  6
ByLayer
 62
  256
370
   -1
100
AcDbLine
 10
103.78
 20
-51.98
 11
105.78
 21
-51.98
  0
LINE
  5
16B
100
AcDbEntity
  8
50 CENTER
  6
ByLayer
 62
  256
370
   -1
100
AcDbLine
 10
104.78
 20
-52.98
 11
104.78
 21
-50.98
  0
LINE
  5
16C
100
AcDbEntity
  8
00 CUTOUT
  6
ByLayer
 62
  256
370
   -1
100
AcDbLine
 10
116.83
 20
-48.78
 11
130.83
 21
-48.78
  0
LINE
  5
16D
100
AcDbEntity
  8
00 CUTOUT
  6
ByLayer
 62
  256
370
   -1
100
AcDbLine
 10
130.83
 20
-48.78
 11
130.83
 21
-62.78
  0
LINE
  5
16E
100
AcDbEntity
  8
00 CUTOUT
  6
ByLayer
 62
  256
370
   -1
100
AcDbLine
 10
130.83
 20
-62.78
 11
116.83
 21
-62.78
  0
LINE
  5
16F
100
AcDbEntity
  8
00 CUTOUT
  6
ByLayer
 62
  256
370
   -1
100
AcDbLine
 10
116.83
 20
-62.78
 11
116.83
 21
-48.78
  0
LINE
  5
170
100
AcDbEntity
  8
70 KEY_1U
  6
ByLayer
 62
  256
370
   -1
100
AcDbLine
 10
114.305
 20
-46.255
 11
133.355
 21
-46.255
  0
LINE
  5
171
100
AcDbEntity
  8
70 KEY_1U
  6
ByLayer
 62
  256
370
   -1
100
AcDbLine
 10
133.355
 20
-46.255
 11
133.355
 21
-65.30500000000001
  0
LINE
  5
172
100
AcDbEntity
  8
70 KEY_1U
  6
ByLayer
 62
  256
370
   -1
100
AcDbLine
 10
133.355
 20
-65.30500000000001
 11
114.305
 21
-65.30500000000001
  0
LINE
  5
173
100
AcDbEntity
  8
70 KEY_1U
  6
ByLayer
 62
  256
370
   -1
100
AcDbLine
 10
114.305
 20
-65.30500000000001
 11
114.305
 21
-46.255
  0
LINE
  5
174
100
AcDbEntity
  8
60 KEYCAP_18
  6
ByLayer
 62
  256
370
   -1
100
AcDbLine
 10
114.83
 20
-46.78
 11
132.83
 21
-46.78
  0
LINE
  5
175
100
AcDbEntity
  8
60 KEYCAP_18
  6
ByLayer
 62
  256
370
   -1
100
AcDbLine
 10
132.83
 20
-46.78
 11
132.83
 21
-64.78
  0
LINE
  5
176
100
AcDbEntity
  8
60 KEYCAP_18
  6
ByLayer
 62
  256
370
   -1
100
AcDbLine
 10
132.83
 20
-64.78
 11
114.83
 21
-64.78
  0
LINE
  5
177
100
AcDbEntity
  8
60 KEYCAP_18
  6
ByLayer
 62
  256
370
   -1
100
AcDbLine
 10
114.83
 20
-64.78
 11
114.83
 21
-46.78
  0
LINE
  5
178
100
AcDbEntity
  8
50 CENTER
  6
ByLayer
 62
  256
370
   -1
100
AcDbLine
 10
122.83
 20
-55.78
 11
124.83
 21
-55.78
  0
LINE
  5
179
100
AcDbEntity
  8
50 CENTER
  6
ByLayer
 62
  256
370
   -1
100
AcDbLine
 10
123.83
 20
-56.78
 11
123.83
 21
-54.78
  0
LINE
  5
17A
100
AcDbEntity
  8
00 CUTOUT
  6
ByLayer
 62
  256
370
   -1
100
AcDbLine
 10
54.72
 20
-61.58
 11
68.72
 21
-61.58
  0
LINE
  5
17B
100
AcDbEntity
  8
00 CUTOUT
  6
ByLayer
 62
  256
370
   -1
100
AcDbLine
 10
68.72
 20
-61.58
 11
68.72
 21
-75.58
  0
LINE
  5
17C
100
AcDbEntity
  8
00 CUTOUT
  6
ByLayer
 62
  256
370
   -1
100
AcDbLine
 10
68.72
 20
-75.58
 11
54.72
 21
-75.58
  0
LINE
  5
17D
100
AcDbEntity
  8
00 CUTOUT
  6
ByLayer
 62
  256
370
   -1
100
AcDbLine
 10
54.72
 20
-75.58
 11
54.72
 21
-61.58
  0
LINE
  5
17E
100
AcDbEntity
  8
70 KEY_1U
  6
ByLayer
 62
  256
370
   -1
100
AcDbLine
 10
52.195
 20
-59.055
 11
71.245
 21
-59.055
  0
LINE
  5
17F
100
AcDbEntity
  8
70 KEY_1U
  6
ByLayer
 62
  256
370
   -1
100
AcDbLine
 10
71.245
 20
-59.055
 11
71.245
 21
-78.105
  0
LINE
  5
180
100
AcDbEntity
  8
70 KEY_1U
  6
ByLayer
 62
  256
370
   -1
100
AcDbLine
 10
71.245
 20
-78.105
 11
52.195
 21
-78.105
  0
LINE
  5
181
100
AcDbEntity
  8
70 KEY_1U
  6
ByLayer
 62
  256
370
   -1
100
AcDbLine
 10
52.195
 20
-78.105
 11
52.195
 21
-59.055
  0
LINE
  5
182
100
AcDbEntity
  8
60 KEYCAP_18
  6
ByLayer
 62
  256
370
   -1
100
AcDbLine
 10
52.72
 20
-59.58
 11
70.72
 21
-59.58
  0
LINE
  5
183
100
AcDbEntity
  8
60 KEYCAP_18
  6
ByLayer
 62
  256
370
   -1
100
AcDbLine
 10
70.72
 20
-59.58
 11
70.72
 21
-77.58
  0
LINE
  5
184
100
AcDbEntity
  8
60 KEYCAP_18
  6
ByLayer
 62
  256
370
   -1
100
AcDbLine
 10
70.72
 20
-77.58
 11
52.72
 21
-77.58
  0
LINE
  5
185
100
AcDbEntity
  8
60 KEYCAP_18
  6
ByLayer
 62
  256
370
   -1
100
AcDbLine
 10
52.72
 20
-77.58
 11
52.72
 21
-59.58
  0
LINE
  5
186
100
AcDbEntity
  8
50 CENTER
  6
ByLayer
 62
  256
370
   -1
100
AcDbLine
 10
60.72
 20
-68.58
 11
62.72
 21
-68.58
  0
LINE
  5
187
100
AcDbEntity
  8
50 CENTER
  6
ByLayer
 62
  256
370
   -1
100
AcDbLine
 10
61.72
 20
-69.58
 11
61.72
 21
-67.58
  0
LINE
  5
188
100
AcDbEntity
  8
00 CUTOUT
  6
ByLayer
 62
  256
370
   -1
100
AcDbLine
 10
75.34314687907131
 20
-61.90130634378819
 11
89.27869365621181
 21
-63.24314687907132
  0
LINE
  5
189
100
AcDbEntity
  8
00 CUTOUT
  6
ByLayer
 62
  256
370
   -1
100
AcDbLine
 10
89.27869365621181
 20
-63.24314687907132
 11
87.93685312092869
 21
-77.17869365621182
  0
LINE
  5
18A
100
AcDbEntity
  8
00 CUTOUT
  6
ByLayer
 62
  256
370
   -1
100
AcDbLine
 10
87.93685312092869
 20
-77.17869365621182
 11
74.00130634378819
 21
-75.83685312092869
  0
LINE
  5
18B
100
AcDbEntity
  8
00 CUTOUT
  6
ByLayer
 62
  256
370
   -1
100
AcDbLine
 10
74.00130634378819
 20
-75.83685312092869
 11
75.34314687907131
 21
-61.90130634378819
  0
LINE
  5
18C
100
AcDbEntity
  8
70 KEY_1U
  6
ByLayer
 62
  256
370
   -1
100
AcDbLine
 10
73.07178200330776
 20
-59.14592041779749
 11
92.03407958220251
 21
-60.97178200330776
  0
LINE
  5
18D
100
AcDbEntity
  8
70 KEY_1U
  6
ByLayer
 62
  256
370
   -1
100
AcDbLine
 10
92.03407958220251
 20
-60.97178200330776
 11
90.20821799669224
 21
-79.93407958220251
  0
LINE
  5
18E
100
AcDbEntity
  8
70 KEY_1U
  6
ByLayer
 62
  256
370
   -1
100
AcDbLine
 10
90.20821799669224
 20
-79.93407958220251
 11
71.24592041779749
 21
-78.10821799669225
  0
LINE
  5
18F
100
AcDbEntity
  8
70 KEY_1U
  6
ByLayer
 62
  256
370
   -1
100
AcDbLine
 10
71.24592041779749
 20
-78.10821799669225
 11
73.07178200330776
 21
-59.14592041779749
  0
LINE
  5
190
100
AcDbEntity
  8
60 KEYCAP_18
  6
ByLayer
 62
  256
370
   -1
100
AcDbLine
 10
73.5440459873774
 20
-59.71882244201338
 11
91.46117755798663
 21
-61.44404598737741
  0
LINE
  5
191
100
AcDbEntity
  8
60 KEYCAP_18
  6
ByLayer
 62
  256
370
   -1
100
AcDbLine
 10
91.46117755798663
 20
-61.44404598737741
 11
89.7359540126226
 21
-79.36117755798664
  0
LINE
  5
192
100
AcDbEntity
  8
60 KEYCAP_18
  6
ByLayer
 62
  256
370
   -1
100
AcDbLine
 10
89.7359540126226
 20
-79.36117755798664
 11
71.81882244201337
 21
-77.63595401262261
  0
LINE
  5
193
100
AcDbEntity
  8
60 KEYCAP_18
  6
ByLayer
 62
  256
370
   -1
100
AcDbLine
 10
71.81882244201337
 20
-77.63595401262261
 11
73.5440459873774
 21
-59.71882244201338
  0
LINE
  5
194
100
AcDbEntity
  8
50 CENTER
  6
ByLayer
 62
  256
370
   -1
100
AcDbLine
 10
80.64
 20
-69.54000000000001
 11
82.64
 21
-69.54000000000001
  0
LINE
  5
195
100
AcDbEntity
  8
50 CENTER
  6
ByLayer
 62
  256
370
   -1
100
AcDbLine
 10
81.64
 20
-70.54000000000001
 11
81.64
 21
-68.54000000000001
  0
LINE
  5
196
100
AcDbEntity
  8
00 CUTOUT
  6
ByLayer
 62
  256
370
   -1
100
AcDbLine
 10
95.84427268350215
 20
-64.19294674823054
 11
109.5870532517695
 21
-66.86427268350216
  0
LINE
  5
197
100
AcDbEntity
  8
00 CUTOUT
  6
ByLayer
 62
  256
370
   -1
100
AcDbLine
 10
109.5870532517695
 20
-66.86427268350216
 11
106.9157273164978
 21
-80.60705325176947
  0
LINE
  5
198
100
AcDbEntity
  8
00 CUTOUT
  6
ByLayer
 62
  256
370
   -1
100
AcDbLine
 10
106.9157273164978
 20
-80.60705325176947
 11
93.17294674823053
 21
-77.93572731649785
  0
LINE
  5
199
100
AcDbEntity
  8
00 CUTOUT
  6
ByLayer
 62
  256
370
   -1
100
AcDbLine
 10
93.17294674823053
 20
-77.93572731649785
 11
95.84427268350215
 21
-64.19294674823054
  0
LINE
  5
19A
100
AcDbEntity
  8
70 KEY_1U
  6
ByLayer
 62
  256
370
   -1
100
AcDbLine
 10
93.84745675862258
 20
-61.23254539669942
 11
112.5474546033006
 21
-64.86745675862259
  0
LINE
  5
19B
100
AcDbEntity
  8
70 KEY_1U
  6
ByLayer
 62
  256
370
   -1
100
AcDbLine
 10
112.5474546033006
 20
-64.86745675862259
 11
108.9125432413774
 21
-83.56745460330059
  0
LINE
  5
19C
100
AcDbEntity
  8
70 KEY_1U
  6
ByLayer
 62
  256
370
   -1
100
AcDbLine
 10
108.9125432413774
 20
-83.56745460330059
 11
90.21254539669941
 21
-79.93254324137742
  0
LINE
  5
19D
100
AcDbEntity
  8
70 KEY_1U
  6
ByLayer
 62
  256
370
   -1
100
AcDbLine
 10
90.21254539669941
 20
-79.93254324137742
 11
93.84745675862258
 21
-61.23254539669942
  0
LINE
  5
19E
100
AcDbEntity
  8
60 KEYCAP_18
  6
ByLayer
 62
  256
370
   -1
100
AcDbLine
 10
94.26263630735991
 20
-61.84807439058213
 11
111.9319256094179
 21
-65.28263630735992
  0
LINE
  5
19F
100
AcDbEntity
  8
60 KEYCAP_18
  6
ByLayer
 62
  256
370
   -1
100
AcDbLine
 10
111.9319256094179
 20
-65.28263630735992
 11
108.4973636926401
 21
-82.95192560941788
  0
LINE
  5
1A0
100
AcDbEntity
  8
60 KEYCAP_18
  6
ByLayer
 62
  256
370
   -1
100
AcDbLine
 10
108.4973636926401
 20
-82.95192560941788
 11
90.82807439058212
 21
-79.51736369264009
  0
LINE
  5
1A1
100
AcDbEntity
  8
60 KEYCAP_18
  6
ByLayer
 62
  256
370
   -1
100
AcDbLine
 10
90.82807439058212
 20
-79.51736369264009
 11
94.26263630735991
 21
-61.84807439058213
  0
LINE
  5
1A2
100
AcDbEntity
  8
50 CENTER
  6
ByLayer
 62
  256
370
   -1
100
AcDbLine
 10
100.38
 20
-72.40000000000001
 11
102.38
 21
-72.40000000000001
  0
LINE
  5
1A3
100
AcDbEntity
  8
50 CENTER
  6
ByLayer
 62
  256
370
   -1
100
AcDbLine
 10
101.38
 20
-73.40000000000001
 11
101.38
 21
-71.40000000000001
  0
LINE
  5
1A4
100
AcDbEntity
  8
00 CUTOUT
  6
ByLayer
 62
  256
370
   -1
100
AcDbLine
 10
116.0263692688501
 20
-68.44015444299518
 11
129.4498455570048
 21
-72.4163692688501
  0
LINE
  5
1A5
100
AcDbEntity
  8
00 CUTOUT
  6
ByLayer
 62
  256
370
   -1
100
AcDbLine
 10
129.4498455570048
 20
-72.4163692688501
 11
125.4736307311499
 21
-85.83984555700482
  0
LINE
  5
1A6
100
AcDbEntity
  8
00 CUTOUT
  6
ByLayer
 62
  256
370
   -1
100
AcDbLine
 10
125.4736307311499
 20
-85.83984555700482
 11
112.0501544429952
 21
-81.8636307311499
  0
LINE
  5
1A7
100
AcDbEntity
  8
00 CUTOUT
  6
ByLayer
 62
  256
370
   -1
100
AcDbLine
 10
112.0501544429952
 20
-81.8636307311499
 11
116.0263692688501
 21
-68.44015444299518
  0
LINE
  5
1A8
100
AcDbEntity
  8
70 KEY_1U
  6
ByLayer
 62
  256
370
   -1
100
AcDbLine
 10
114.3224881836853
 20
-65.3019958670756
 11
132.5880041329244
 21
-70.71248818368532
  0
LINE
  5
1A9
100
AcDbEntity
  8
70 KEY_1U
  6
ByLayer
 62
  256
370
   -1
100
AcDbLine
 10
132.5880041329244
 20
-70.71248818368532
 11
127.1775118163147
 21
-88.9780041329244
  0
LINE
  5
1AA
100
AcDbEntity
  8
70 KEY_1U
  6
ByLayer
 62
  256
370
   -1
100
AcDbLine
 10
127.1775118163147
 20
-88.9780041329244
 11
108.9119958670756
 21
-83.56751181631468
  0
LINE
  5
1AB
100
AcDbEntity
  8
70 KEY_1U
  6
ByLayer
 62
  256
370
   -1
100
AcDbLine
 10
108.9119958670756
 20
-83.56751181631468
 11
114.3224881836853
 21
-65.3019958670756
  0
LINE
  5
1AC
100
AcDbEntity
  8
60 KEYCAP_18
  6
ByLayer
 62
  256
370
   -1
100
AcDbLine
 10
114.6767604885216
 20
-65.95448428385095
 11
131.935515716149
 21
-71.06676048852157
  0
LINE
  5
1AD
100
AcDbEntity
  8
60 KEYCAP_18
  6
ByLayer
 62
  256
370
   -1
100
AcDbLine
 10
131.935515716149
 20
-71.06676048852157
 11
126.8232395114784
 21
-88.32551571614906
  0
LINE
  5
1AE
100
AcDbEntity
  8
60 KEYCAP_18
  6
ByLayer
 62
  256
370
   -1
100
AcDbLine
 10
126.8232395114784
 20
-88.32551571614906
 11
109.564484283851
 21
-83.21323951147843
  0
LINE
  5
1AF
100
AcDbEntity
  8
60 KEYCAP_18
  6
ByLayer
 62
  256
370
   -1
100
AcDbLine
 10
109.564484283851
 20
-83.21323951147843
 11
114.6767604885216
 21
-65.95448428385095
  0
LINE
  5
1B0
100
AcDbEntity
  8
50 CENTER
  6
ByLayer
 62
  256
370
   -1
100
AcDbLine
 10
119.75
 20
-77.14
 11
121.75
 21
-77.14
  0
LINE
  5
1B1
100
AcDbEntity
  8
50 CENTER
  6
ByLayer
 62
  256
370
   -1
100
AcDbLine
 10
120.75
 20
-78.14
 11
120.75
 21
-76.14
  0
LINE
  5
1B2
100
AcDbEntity
  8
80 GUIDE
  6
ByLayer
 62
  256
370
   -1
100
AcDbLine
 10
-15.17206412679747
 20
-7.615
 11
147.3857658031752
 21
-7.615
  0
ARC
  5
1B3
100
AcDbEntity
  8
80 GUIDE
  6
ByLayer
 62
  256
370
   -1
100
AcDbCircle
 10
66.67999999999999
 20
-295.8964339684626
 40
299.3914
100
AcDbArc
 50
77.13222827979368
 51
102.8677717202063
  0
ARC
  5
1B4
100
AcDbEntity
  8
80 GUIDE
  6
ByLayer
 62
  256
370
   -1
100
AcDbCircle
 10
61.6719043841598
 20
-276.7279344201877
 40
195.1229
100
AcDbArc
 50
70.71396468707579
 51
88.53220144941507
  0
ARC
  5
1B5
100
AcDbEntity
  8
80 GUIDE
  6
ByLayer
 62
  256
370
   -1
100
AcDbCircle
 10
61.71428965477127
 20
71.29499989087
 40
152.9
100
AcDbArc
 50
246.1970454945802
 51
270.0021398213293
  0
LINE
  5
1B6
100
AcDbEntity
  8
80 GUIDE
  6
ByLayer
 62
  256
370
   -1
100
AcDbLine
 10
104.78
 20
-13.88
 11
104.78
 21
10.12
  0
LINE
  5
1B7
100
AcDbEntity
  8
80 GUIDE
  6
ByLayer
 62
  256
370
   -1
100
AcDbLine
 10
123.83
 20
-17.68
 11
123.83
 21
6.32
  0
LINE
  5
1B8
100
AcDbEntity
  8
80 GUIDE
  6
ByLayer
 62
  256
370
   -1
100
AcDbLine
 10
116.83
 20
-62.78
 11
116.83
 21
-94.78
  0
LINE
  5
1B9
100
AcDbEntity
  8
80 GUIDE
  6
ByLayer
 62
  256
370
   -1
100
AcDbLine
 10
97.78
 20
-58.98
 11
97.78
 21
-90.97999999999999
  0
LINE
  5
1BA
100
AcDbEntity
  8
80 GUIDE
  6
ByLayer
 62
  256
370
   -1
100
AcDbLine
 10
28.57999999999999
 20
-86.2
 11
28.58
 21
9.676288659793812
  0
LINE
  5
1BB
100
AcDbEntity
  8
80 GUIDE
  6
ByLayer
 62
  256
370
   -1
100
AcDbLine
 10
9.529999999999996
 20
-81.41734509512169
 11
9.530000000000001
 21
6.58350515463917
  0
LINE
  5
1BC
100
AcDbEntity
  8
10 OUTLINE
  6
ByLayer
 62
  256
370
   -1
100
AcDbLine
 10
133.355
 20
-7.615
 11
133.355
 21
-68.1232
  0
ARC
  5
1BD
100
AcDbEntity
  8
10 OUTLINE
  6
ByLayer
 62
  256
370
   -1
100
AcDbCircle
 10
66.68000000000001
 20
-295.896
 40
295.891
100
AcDbArc
 50
76.9774
 51
78.86360000000001
  0
ARC
  5
1BE
100
AcDbEntity
  8
10 OUTLINE
  6
ByLayer
 62
  256
370
   -1
100
AcDbCircle
 10
66.68000000000001
 20
-295.896
 40
299.391
100
AcDbArc
 50
78.9954
 51
82.6888
  0
LINE
  5
1BF
100
AcDbEntity
  8
10 OUTLINE
  6
ByLayer
 62
  256
370
   -1
100
AcDbLine
 10
123.83
 20
-2.01023
 11
123.83
 21
-5.57658
  0
LINE
  5
1C0
100
AcDbEntity
  8
10 OUTLINE
  6
ByLayer
 62
  256
370
   -1
100
AcDbLine
 10
104.78
 20
1.06083
 11
104.78
 21
-2.4682
  0
ARC
  5
1C1
100
AcDbEntity
  8
10 OUTLINE
  6
ByLayer
 62
  256
370
   -1
100
AcDbCircle
 10
66.68000000000001
 20
-295.896
 40
295.891
100
AcDbArc
 50
82.6019
 51
97.3981
  0
LINE
  5
1C2
100
AcDbEntity
  8
10 OUTLINE
  6
ByLayer
 62
  256
370
   -1
100
AcDbLine
 10
28.58
 20
1.06083
 11
28.58
 21
-2.4682
  0
ARC
  5
1C3
100
AcDbEntity
  8
10 OUTLINE
  6
ByLayer
 62
  256
370
   -1
100
AcDbCircle
 10
66.68000000000001
 20
-295.896
 40
299.391
100
AcDbArc
 50
97.3112
 51
101.005
  0
LINE
  5
1C4
100
AcDbEntity
  8
10 OUTLINE
  6
ByLayer
 62
  256
370
   -1
100
AcDbLine
 10
9.529999999999999
 20
-2.01023
 11
9.529999999999999
 21
-5.57658
  0
ARC
  5
1C5
100
AcDbEntity
  8
10 OUTLINE
  6
ByLayer
 62
  256
370
   -1
100
AcDbCircle
 10
66.68000000000001
 20
-295.896
 40
295.891
100
AcDbArc
 50
101.136
 51
103.023
  0
LINE
  5
1C6
100
AcDbEntity
  8
10 OUTLINE
  6
ByLayer
 62
  256
370
   -1
100
AcDbLine
 10
0.005
 20
-7.615
 11
0.005
 21
-64.765
  0
ARC
  5
1C7
100
AcDbEntity
  8
10 OUTLINE
  6
ByLayer
 62
  256
370
   -1
100
AcDbCircle
 10
61.7143
 20
71.295
 40
149.4
100
AcDbArc
 50
245.604
 51
249.556
  0
LINE
  5
1C8
100
AcDbEntity
  8
10 OUTLINE
  6
ByLayer
 62
  256
370
   -1
100
AcDbLine
 10
9.529999999999999
 20
-68.6949
 11
9.529999999999999
 21
-72.4242
  0
ARC
  5
1C9
100
AcDbEntity
  8
10 OUTLINE
  6
ByLayer
 62
  256
370
   -1
100
AcDbCircle
 10
61.7143
 20
71.295
 40
152.9
100
AcDbArc
 50
250.044
 51
257.484
  0
LINE
  5
1CA
100
AcDbEntity
  8
10 OUTLINE
  6
ByLayer
 62
  256
370
   -1
100
AcDbLine
 10
28.58
 20
-74.3844
 11
28.58
 21
-77.9716
  0
ARC
  5
1CB
100
AcDbEntity
  8
10 OUTLINE
  6
ByLayer
 62
  256
370
   -1
100
AcDbCircle
 10
61.7143
 20
71.295
 40
149.4
100
AcDbArc
 50
257.186
 51
270.002
  0
ARC
  5
1CC
100
AcDbEntity
  8
10 OUTLINE
  6
ByLayer
 62
  256
370
   -1
100
AcDbCircle
 10
61.6719
 20
-276.728
 40
198.623
100
AcDbArc
 50
79.5258
 51
89.98609999999999
  0
LINE
  5
1CD
100
AcDbEntity
  8
10 OUTLINE
  6
ByLayer
 62
  256
370
   -1
100
AcDbLine
 10
97.78
 20
-81.4147
 11
97.78
 21
-84.9751
  0
ARC
  5
1CE
100
AcDbEntity
  8
10 OUTLINE
  6
ByLayer
 62
  256
370
   -1
100
AcDbCircle
 10
61.6719
 20
-276.728
 40
195.123
100
AcDbArc
 50
73.5796
 51
79.33580000000001
  0
LINE
  5
1CF
100
AcDbEntity
  8
10 OUTLINE
  6
ByLayer
 62
  256
370
   -1
100
AcDbLine
 10
116.83
 20
-85.9174
 11
116.83
 21
-89.5635
  0
LINE
  5
1D0
100
AcDbEntity
  8
10 OUTLINE
  6
ByLayer
 62
  256
370
   -1
100
AcDbLine
 10
127.178
 20
-88.97799999999999
 11
133.355
 21
-68.1232
  0
LINE
  5
1D1
100
AcDbEntity
  8
10 OUTLINE
  6
ByLayer
 62
  256
370
   -1
100
AcDbLine
 10
127.178
 20
-88.97799999999999
 11
118.045
 21
-86.2728
  0
ARC
  5
1D2
100
AcDbEntity
  8
10 OUTLINE
  6
ByLayer
 62
  256
370
   -1
100
AcDbCircle
 10
61.6719
 20
-276.728
 40
198.623
100
AcDbArc
 50
73.51179999999999
 51
73.87690000000001
  0
ENDSEC
  0
SECTION
  2
OBJECTS
  0
DICTIONARY
  5
C
330
0
100
AcDbDictionary
281
    1
  3
ACAD_GROUP
350
D
  0
DICTIONARY
  5
D
330
C
100
AcDbDictionary
281
    1
  0
PLOTSETTINGS
  5
1D3
100
AcDbPlotSettings
  6
1x1
 40
0
 41
0
 42
0
 43
0
  0
ENDSEC
  0
EOF
